<svg width="64" height="64" viewBox="0 0 64 64" fill="none" xmlns="http://www.w3.org/2000/svg">
<g filter="url(#filter0_d_207_336)">
<path d="M32 7L35.4825 15.616L42.1684 9.16136L41.8454 18.449L50.5786 15.2717L46.5059 23.625L55.7764 24.2746L48.6582 30.2491L56.863 34.6132L47.9302 37.176L53.6506 44.5L44.4477 43.2079L46.6946 52.2254L38.8128 47.3019L37.1978 56.4537L32 48.75L26.8022 56.4537L25.1872 47.3019L17.3054 52.2254L19.5523 43.2079L10.3494 44.5L16.0698 37.176L7.13695 34.6132L15.3418 30.2491L8.22359 24.2746L17.4941 23.625L13.4214 15.2717L22.1546 18.449L21.8316 9.16136L28.5175 15.616L32 7Z" fill="#FFD84F"/>
</g>
<g filter="url(#filter1_f_207_336)">
<circle cx="32" cy="32" r="17" fill="#FFED47"/>
</g>
<g filter="url(#filter2_f_207_336)">
<circle cx="32" cy="32" r="17" fill="#FFED47"/>
</g>
<defs>
<filter id="filter0_d_207_336" x="2.13672" y="4" width="59.7266" height="59.4537" filterUnits="userSpaceOnUse" color-interpolation-filters="sRGB">
<feFlood flood-opacity="0" result="BackgroundImageFix"/>
<feColorMatrix in="SourceAlpha" type="matrix" values="0 0 0 0 0 0 0 0 0 0 0 0 0 0 0 0 0 0 127 0" result="hardAlpha"/>
<feOffset dy="2"/>
<feGaussianBlur stdDeviation="2.5"/>
<feComposite in2="hardAlpha" operator="out"/>
<feColorMatrix type="matrix" values="0 0 0 0 0 0 0 0 0 0 0 0 0 0 0 0 0 0 0.25 0"/>
<feBlend mode="normal" in2="BackgroundImageFix" result="effect1_dropShadow_207_336"/>
<feBlend mode="normal" in="SourceGraphic" in2="effect1_dropShadow_207_336" result="shape"/>
</filter>
<filter id="filter1_f_207_336" x="0" y="0" width="64" height="64" filterUnits="userSpaceOnUse" color-interpolation-filters="sRGB">
<feFlood flood-opacity="0" result="BackgroundImageFix"/>
<feBlend mode="normal" in="SourceGraphic" in2="BackgroundImageFix" result="shape"/>
<feGaussianBlur stdDeviation="7.5" result="effect1_foregroundBlur_207_336"/>
</filter>
<filter id="filter2_f_207_336" x="10" y="10" width="44" height="44" filterUnits="userSpaceOnUse" color-interpolation-filters="sRGB">
<feFlood flood-opacity="0" result="BackgroundImageFix"/>
<feBlend mode="normal" in="SourceGraphic" in2="BackgroundImageFix" result="shape"/>
<feGaussianBlur stdDeviation="2.5" result="effect1_foregroundBlur_207_336"/>
</filter>
</defs>
</svg>
