<svg width="56" height="56" viewBox="0 0 56 56" fill="none" xmlns="http://www.w3.org/2000/svg">
<path d="M27.9415 9L30.5801 15.528L35.6457 10.6376L35.401 17.6744L42.0178 15.2672L38.9321 21.5961L45.956 22.0883L40.5628 26.615L46.7793 29.9214L40.0112 31.8632L44.3454 37.4123L37.3726 36.4333L39.0751 43.2655L33.1033 39.5352L31.8797 46.4691L27.9415 40.6323L24.0034 46.4691L22.7797 39.5352L16.808 43.2655L18.5104 36.4333L11.5377 37.4123L15.8718 31.8632L9.10376 29.9214L15.3202 26.615L9.92706 22.0883L16.9509 21.5961L13.8652 15.2672L20.482 17.6744L20.2373 10.6376L25.3029 15.528L27.9415 9Z" fill="#FFD24C"/>
<g filter="url(#filter0_f_736_347)">
<ellipse cx="28.029" cy="27.9419" rx="12.6277" ry="12.6277" fill="#FFD24C"/>
</g>
<ellipse cx="28.029" cy="27.9419" rx="12.6277" ry="12.6277" fill="#FFD24C"/>
<defs>
<filter id="filter0_f_736_347" x="0.401367" y="0.314209" width="55.2549" height="55.2554" filterUnits="userSpaceOnUse" color-interpolation-filters="sRGB">
<feFlood flood-opacity="0" result="BackgroundImageFix"/>
<feBlend mode="normal" in="SourceGraphic" in2="BackgroundImageFix" result="shape"/>
<feGaussianBlur stdDeviation="7.5" result="effect1_foregroundBlur_736_347"/>
</filter>
</defs>
</svg>
