<svg width="100" height="100" viewBox="0 0 100 100" fill="none" xmlns="http://www.w3.org/2000/svg">
<g filter="url(#filter0_d_207_384)">
<path d="M37.9415 27L40.5801 33.528L45.6457 28.6376L45.401 35.6744L52.0178 33.2672L48.9321 39.5961L55.956 40.0883L50.5628 44.615L56.7793 47.9214L50.0112 49.8632L54.3454 55.4123L47.3726 54.4333L49.0751 61.2655L43.1033 57.5352L41.8797 64.4691L37.9415 58.6323L34.0034 64.4691L32.7797 57.5352L26.808 61.2655L28.5104 54.4333L21.5377 55.4123L25.8718 49.8632L19.1038 47.9214L25.3202 44.615L19.9271 40.0883L26.9509 39.5961L23.8652 33.2672L30.482 35.6744L30.2373 28.6376L35.3029 33.528L37.9415 27Z" fill="#FFD84F"/>
</g>
<g filter="url(#filter1_f_207_384)">
<ellipse cx="38.029" cy="45.9419" rx="12.6277" ry="12.6277" fill="#FFED47"/>
</g>
<g filter="url(#filter2_f_207_384)">
<ellipse cx="38.029" cy="45.9419" rx="12.6277" ry="12.6277" fill="#FFED47"/>
</g>
<g filter="url(#filter3_di_207_384)">
<path d="M70.8794 49.75C70.8794 57.3439 65.3927 63.5 58.6245 63.5C51.8563 63.5 46.3696 57.3439 46.3696 49.75C46.3696 42.1561 51.8563 36 58.6245 36C65.3927 36 70.8794 42.1561 70.8794 49.75Z" fill="white"/>
<path d="M77.7422 57.175C77.7422 62.4907 73.9015 66.8 69.1638 66.8C64.426 66.8 60.5853 62.4907 60.5853 57.175C60.5853 51.8593 64.426 47.55 69.1638 47.55C73.9015 47.55 77.7422 51.8593 77.7422 57.175Z" fill="white"/>
<path d="M55.1932 51.125C55.1932 56.4407 51.3525 60.75 46.6147 60.75C41.877 60.75 38.0363 56.4407 38.0363 51.125C38.0363 45.8093 41.877 41.5 46.6147 41.5C51.3525 41.5 55.1932 45.8093 55.1932 51.125Z" fill="white"/>
<path d="M70.3892 59.375C70.3892 64.6907 60.8424 69 49.0657 69C37.2891 69 27.7422 64.6907 27.7422 59.375C27.7422 54.0593 37.2891 49.75 49.0657 49.75C60.8424 49.75 70.3892 54.0593 70.3892 59.375Z" fill="white"/>
</g>
<g filter="url(#filter4_di_207_384)">
<path d="M43 65.8289C43 68.938 40.1262 71.4585 36.5811 71.4585C33.036 71.4585 30.1622 68.938 30.1622 65.8289C30.1622 62.7197 33.036 60.1992 36.5811 60.1992C40.1262 60.1992 43 62.7197 43 65.8289Z" fill="white"/>
<path d="M28.1351 65.8289C28.1351 68.2835 25.8663 70.2733 23.0676 70.2733C20.2688 70.2733 18 68.2835 18 65.8289C18 63.3743 20.2688 61.3844 23.0676 61.3844C25.8663 61.3844 28.1351 63.3743 28.1351 65.8289Z" fill="white"/>
<path d="M38.2703 62.8659C38.2703 66.9569 34.4889 70.2733 29.8243 70.2733C25.1598 70.2733 21.3784 66.9569 21.3784 62.8659C21.3784 58.7749 25.1598 55.4585 29.8243 55.4585C34.4889 55.4585 38.2703 58.7749 38.2703 62.8659Z" fill="white"/>
</g>
<g filter="url(#filter5_di_207_384)">
<path d="M54.0283 67.2019C54.0283 70.3111 57.247 72.8315 61.2175 72.8315C65.188 72.8315 68.4067 70.3111 68.4067 67.2019C68.4067 64.0928 65.188 61.5723 61.2175 61.5723C57.247 61.5723 54.0283 64.0928 54.0283 67.2019Z" fill="white"/>
<path d="M70.677 67.2019C70.677 69.6565 73.2181 71.6464 76.3526 71.6464C79.4872 71.6464 82.0283 69.6565 82.0283 67.2019C82.0283 64.7473 79.4872 62.7575 76.3526 62.7575C73.2181 62.7575 70.677 64.7473 70.677 67.2019Z" fill="white"/>
<path d="M59.3256 64.2389C59.3256 68.3299 63.5608 71.6464 68.7851 71.6464C74.0094 71.6464 78.2445 68.3299 78.2445 64.239C78.2445 60.148 74.0094 56.8315 68.7851 56.8315C63.5608 56.8315 59.3256 60.148 59.3256 64.2389Z" fill="white"/>
</g>
<defs>
<filter id="filter0_d_207_384" x="14.1035" y="24" width="47.6758" height="47.4691" filterUnits="userSpaceOnUse" color-interpolation-filters="sRGB">
<feFlood flood-opacity="0" result="BackgroundImageFix"/>
<feColorMatrix in="SourceAlpha" type="matrix" values="0 0 0 0 0 0 0 0 0 0 0 0 0 0 0 0 0 0 127 0" result="hardAlpha"/>
<feOffset dy="2"/>
<feGaussianBlur stdDeviation="2.5"/>
<feComposite in2="hardAlpha" operator="out"/>
<feColorMatrix type="matrix" values="0 0 0 0 0 0 0 0 0 0 0 0 0 0 0 0 0 0 0.25 0"/>
<feBlend mode="normal" in2="BackgroundImageFix" result="effect1_dropShadow_207_384"/>
<feBlend mode="normal" in="SourceGraphic" in2="effect1_dropShadow_207_384" result="shape"/>
</filter>
<filter id="filter1_f_207_384" x="10.4014" y="18.3142" width="55.2549" height="55.2554" filterUnits="userSpaceOnUse" color-interpolation-filters="sRGB">
<feFlood flood-opacity="0" result="BackgroundImageFix"/>
<feBlend mode="normal" in="SourceGraphic" in2="BackgroundImageFix" result="shape"/>
<feGaussianBlur stdDeviation="7.5" result="effect1_foregroundBlur_207_384"/>
</filter>
<filter id="filter2_f_207_384" x="20.4014" y="28.3142" width="35.2549" height="35.2554" filterUnits="userSpaceOnUse" color-interpolation-filters="sRGB">
<feFlood flood-opacity="0" result="BackgroundImageFix"/>
<feBlend mode="normal" in="SourceGraphic" in2="BackgroundImageFix" result="shape"/>
<feGaussianBlur stdDeviation="2.5" result="effect1_foregroundBlur_207_384"/>
</filter>
<filter id="filter3_di_207_384" x="22.7422" y="31" width="60" height="45" filterUnits="userSpaceOnUse" color-interpolation-filters="sRGB">
<feFlood flood-opacity="0" result="BackgroundImageFix"/>
<feColorMatrix in="SourceAlpha" type="matrix" values="0 0 0 0 0 0 0 0 0 0 0 0 0 0 0 0 0 0 127 0" result="hardAlpha"/>
<feOffset dy="2"/>
<feGaussianBlur stdDeviation="2.5"/>
<feComposite in2="hardAlpha" operator="out"/>
<feColorMatrix type="matrix" values="0 0 0 0 0 0 0 0 0 0 0 0 0 0 0 0 0 0 0.25 0"/>
<feBlend mode="normal" in2="BackgroundImageFix" result="effect1_dropShadow_207_384"/>
<feBlend mode="normal" in="SourceGraphic" in2="effect1_dropShadow_207_384" result="shape"/>
<feColorMatrix in="SourceAlpha" type="matrix" values="0 0 0 0 0 0 0 0 0 0 0 0 0 0 0 0 0 0 127 0" result="hardAlpha"/>
<feOffset dy="-5"/>
<feGaussianBlur stdDeviation="5"/>
<feComposite in2="hardAlpha" operator="arithmetic" k2="-1" k3="1"/>
<feColorMatrix type="matrix" values="0 0 0 0 0 0 0 0 0 0 0 0 0 0 0 0 0 0 0.5 0"/>
<feBlend mode="normal" in2="shape" result="effect2_innerShadow_207_384"/>
</filter>
<filter id="filter4_di_207_384" x="13" y="50.4585" width="35" height="26" filterUnits="userSpaceOnUse" color-interpolation-filters="sRGB">
<feFlood flood-opacity="0" result="BackgroundImageFix"/>
<feColorMatrix in="SourceAlpha" type="matrix" values="0 0 0 0 0 0 0 0 0 0 0 0 0 0 0 0 0 0 127 0" result="hardAlpha"/>
<feOffset/>
<feGaussianBlur stdDeviation="2.5"/>
<feComposite in2="hardAlpha" operator="out"/>
<feColorMatrix type="matrix" values="0 0 0 0 0 0 0 0 0 0 0 0 0 0 0 0 0 0 0.25 0"/>
<feBlend mode="normal" in2="BackgroundImageFix" result="effect1_dropShadow_207_384"/>
<feBlend mode="normal" in="SourceGraphic" in2="effect1_dropShadow_207_384" result="shape"/>
<feColorMatrix in="SourceAlpha" type="matrix" values="0 0 0 0 0 0 0 0 0 0 0 0 0 0 0 0 0 0 127 0" result="hardAlpha"/>
<feOffset dy="-2.75"/>
<feGaussianBlur stdDeviation="2.5"/>
<feComposite in2="hardAlpha" operator="arithmetic" k2="-1" k3="1"/>
<feColorMatrix type="matrix" values="0 0 0 0 0 0 0 0 0 0 0 0 0 0 0 0 0 0 0.5 0"/>
<feBlend mode="normal" in2="shape" result="effect2_innerShadow_207_384"/>
</filter>
<filter id="filter5_di_207_384" x="49.0283" y="51.8315" width="38" height="26" filterUnits="userSpaceOnUse" color-interpolation-filters="sRGB">
<feFlood flood-opacity="0" result="BackgroundImageFix"/>
<feColorMatrix in="SourceAlpha" type="matrix" values="0 0 0 0 0 0 0 0 0 0 0 0 0 0 0 0 0 0 127 0" result="hardAlpha"/>
<feOffset/>
<feGaussianBlur stdDeviation="2.5"/>
<feComposite in2="hardAlpha" operator="out"/>
<feColorMatrix type="matrix" values="0 0 0 0 0 0 0 0 0 0 0 0 0 0 0 0 0 0 0.25 0"/>
<feBlend mode="normal" in2="BackgroundImageFix" result="effect1_dropShadow_207_384"/>
<feBlend mode="normal" in="SourceGraphic" in2="effect1_dropShadow_207_384" result="shape"/>
<feColorMatrix in="SourceAlpha" type="matrix" values="0 0 0 0 0 0 0 0 0 0 0 0 0 0 0 0 0 0 127 0" result="hardAlpha"/>
<feOffset dy="-2.75"/>
<feGaussianBlur stdDeviation="2.5"/>
<feComposite in2="hardAlpha" operator="arithmetic" k2="-1" k3="1"/>
<feColorMatrix type="matrix" values="0 0 0 0 0 0 0 0 0 0 0 0 0 0 0 0 0 0 0.5 0"/>
<feBlend mode="normal" in2="shape" result="effect2_innerShadow_207_384"/>
</filter>
</defs>
</svg>
