<svg width="78" height="60" viewBox="0 0 78 60" fill="none" xmlns="http://www.w3.org/2000/svg">
<g filter="url(#filter0_d_207_384)">
<path d="M27.9415 9L30.5801 15.528L35.6457 10.6376L35.401 17.6744L42.0178 15.2672L38.9321 21.5961L45.956 22.0883L40.5628 26.615L46.7793 29.9214L40.0112 31.8632L44.3454 37.4123L37.3726 36.4333L39.0751 43.2655L33.1033 39.5352L31.8797 46.4691L27.9415 40.6323L24.0034 46.4691L22.7797 39.5352L16.808 43.2655L18.5104 36.4333L11.5377 37.4123L15.8718 31.8632L9.10376 29.9214L15.3202 26.615L9.92706 22.0883L16.9509 21.5961L13.8652 15.2672L20.482 17.6744L20.2373 10.6376L25.3029 15.528L27.9415 9Z" fill="#FFD84F"/>
</g>
<g filter="url(#filter1_f_207_384)">
<ellipse cx="28.029" cy="27.9419" rx="12.6277" ry="12.6277" fill="#FFED47"/>
</g>
<g filter="url(#filter2_f_207_384)">
<ellipse cx="28.029" cy="27.9419" rx="12.6277" ry="12.6277" fill="#FFED47"/>
</g>
<g filter="url(#filter3_di_207_384)">
<path d="M60.8794 31.75C60.8794 39.3439 55.3927 45.5 48.6245 45.5C41.8563 45.5 36.3696 39.3439 36.3696 31.75C36.3696 24.1561 41.8563 18 48.6245 18C55.3927 18 60.8794 24.1561 60.8794 31.75Z" fill="white"/>
<path d="M67.7422 39.175C67.7422 44.4907 63.9015 48.8 59.1638 48.8C54.426 48.8 50.5853 44.4907 50.5853 39.175C50.5853 33.8593 54.426 29.55 59.1638 29.55C63.9015 29.55 67.7422 33.8593 67.7422 39.175Z" fill="white"/>
<path d="M45.1932 33.125C45.1932 38.4407 41.3525 42.75 36.6147 42.75C31.877 42.75 28.0363 38.4407 28.0363 33.125C28.0363 27.8093 31.877 23.5 36.6147 23.5C41.3525 23.5 45.1932 27.8093 45.1932 33.125Z" fill="white"/>
<path d="M60.3892 41.375C60.3892 46.6907 50.8424 51 39.0657 51C27.2891 51 17.7422 46.6907 17.7422 41.375C17.7422 36.0593 27.2891 31.75 39.0657 31.75C50.8424 31.75 60.3892 36.0593 60.3892 41.375Z" fill="white"/>
</g>
<g filter="url(#filter4_di_207_384)">
<path d="M33 47.8289C33 50.938 30.1262 53.4585 26.5811 53.4585C23.036 53.4585 20.1622 50.938 20.1622 47.8289C20.1622 44.7197 23.036 42.1992 26.5811 42.1992C30.1262 42.1992 33 44.7197 33 47.8289Z" fill="white"/>
<path d="M18.1351 47.8289C18.1351 50.2835 15.8663 52.2733 13.0676 52.2733C10.2688 52.2733 8 50.2835 8 47.8289C8 45.3743 10.2688 43.3844 13.0676 43.3844C15.8663 43.3844 18.1351 45.3743 18.1351 47.8289Z" fill="white"/>
<path d="M28.2703 44.8659C28.2703 48.9569 24.4889 52.2733 19.8243 52.2733C15.1598 52.2733 11.3784 48.9569 11.3784 44.8659C11.3784 40.7749 15.1598 37.4585 19.8243 37.4585C24.4889 37.4585 28.2703 40.7749 28.2703 44.8659Z" fill="white"/>
</g>
<g filter="url(#filter5_di_207_384)">
<path d="M44.0283 49.2019C44.0283 52.3111 47.247 54.8315 51.2175 54.8315C55.188 54.8315 58.4067 52.3111 58.4067 49.2019C58.4067 46.0928 55.188 43.5723 51.2175 43.5723C47.247 43.5723 44.0283 46.0928 44.0283 49.2019Z" fill="white"/>
<path d="M60.677 49.2019C60.677 51.6565 63.2181 53.6464 66.3526 53.6464C69.4872 53.6464 72.0283 51.6565 72.0283 49.2019C72.0283 46.7473 69.4872 44.7575 66.3526 44.7575C63.2181 44.7575 60.677 46.7473 60.677 49.2019Z" fill="white"/>
<path d="M49.3256 46.2389C49.3256 50.3299 53.5608 53.6464 58.7851 53.6464C64.0094 53.6464 68.2445 50.3299 68.2445 46.239C68.2445 42.148 64.0094 38.8315 58.7851 38.8315C53.5608 38.8315 49.3256 42.148 49.3256 46.2389Z" fill="white"/>
</g>
<defs>
<filter id="filter0_d_207_384" x="4.10352" y="6" width="47.6758" height="47.4691" filterUnits="userSpaceOnUse" color-interpolation-filters="sRGB">
<feFlood flood-opacity="0" result="BackgroundImageFix"/>
<feColorMatrix in="SourceAlpha" type="matrix" values="0 0 0 0 0 0 0 0 0 0 0 0 0 0 0 0 0 0 127 0" result="hardAlpha"/>
<feOffset dy="2"/>
<feGaussianBlur stdDeviation="2.5"/>
<feComposite in2="hardAlpha" operator="out"/>
<feColorMatrix type="matrix" values="0 0 0 0 0 0 0 0 0 0 0 0 0 0 0 0 0 0 0.25 0"/>
<feBlend mode="normal" in2="BackgroundImageFix" result="effect1_dropShadow_207_384"/>
<feBlend mode="normal" in="SourceGraphic" in2="effect1_dropShadow_207_384" result="shape"/>
</filter>
<filter id="filter1_f_207_384" x="0.401367" y="0.314209" width="55.2549" height="55.2554" filterUnits="userSpaceOnUse" color-interpolation-filters="sRGB">
<feFlood flood-opacity="0" result="BackgroundImageFix"/>
<feBlend mode="normal" in="SourceGraphic" in2="BackgroundImageFix" result="shape"/>
<feGaussianBlur stdDeviation="7.5" result="effect1_foregroundBlur_207_384"/>
</filter>
<filter id="filter2_f_207_384" x="10.4014" y="10.3142" width="35.2549" height="35.2554" filterUnits="userSpaceOnUse" color-interpolation-filters="sRGB">
<feFlood flood-opacity="0" result="BackgroundImageFix"/>
<feBlend mode="normal" in="SourceGraphic" in2="BackgroundImageFix" result="shape"/>
<feGaussianBlur stdDeviation="2.5" result="effect1_foregroundBlur_207_384"/>
</filter>
<filter id="filter3_di_207_384" x="12.7422" y="13" width="60" height="45" filterUnits="userSpaceOnUse" color-interpolation-filters="sRGB">
<feFlood flood-opacity="0" result="BackgroundImageFix"/>
<feColorMatrix in="SourceAlpha" type="matrix" values="0 0 0 0 0 0 0 0 0 0 0 0 0 0 0 0 0 0 127 0" result="hardAlpha"/>
<feOffset dy="2"/>
<feGaussianBlur stdDeviation="2.5"/>
<feComposite in2="hardAlpha" operator="out"/>
<feColorMatrix type="matrix" values="0 0 0 0 0 0 0 0 0 0 0 0 0 0 0 0 0 0 0.25 0"/>
<feBlend mode="normal" in2="BackgroundImageFix" result="effect1_dropShadow_207_384"/>
<feBlend mode="normal" in="SourceGraphic" in2="effect1_dropShadow_207_384" result="shape"/>
<feColorMatrix in="SourceAlpha" type="matrix" values="0 0 0 0 0 0 0 0 0 0 0 0 0 0 0 0 0 0 127 0" result="hardAlpha"/>
<feOffset dy="-5"/>
<feGaussianBlur stdDeviation="5"/>
<feComposite in2="hardAlpha" operator="arithmetic" k2="-1" k3="1"/>
<feColorMatrix type="matrix" values="0 0 0 0 0 0 0 0 0 0 0 0 0 0 0 0 0 0 0.5 0"/>
<feBlend mode="normal" in2="shape" result="effect2_innerShadow_207_384"/>
</filter>
<filter id="filter4_di_207_384" x="3" y="32.4585" width="35" height="26" filterUnits="userSpaceOnUse" color-interpolation-filters="sRGB">
<feFlood flood-opacity="0" result="BackgroundImageFix"/>
<feColorMatrix in="SourceAlpha" type="matrix" values="0 0 0 0 0 0 0 0 0 0 0 0 0 0 0 0 0 0 127 0" result="hardAlpha"/>
<feOffset/>
<feGaussianBlur stdDeviation="2.5"/>
<feComposite in2="hardAlpha" operator="out"/>
<feColorMatrix type="matrix" values="0 0 0 0 0 0 0 0 0 0 0 0 0 0 0 0 0 0 0.25 0"/>
<feBlend mode="normal" in2="BackgroundImageFix" result="effect1_dropShadow_207_384"/>
<feBlend mode="normal" in="SourceGraphic" in2="effect1_dropShadow_207_384" result="shape"/>
<feColorMatrix in="SourceAlpha" type="matrix" values="0 0 0 0 0 0 0 0 0 0 0 0 0 0 0 0 0 0 127 0" result="hardAlpha"/>
<feOffset dy="-2.75"/>
<feGaussianBlur stdDeviation="2.5"/>
<feComposite in2="hardAlpha" operator="arithmetic" k2="-1" k3="1"/>
<feColorMatrix type="matrix" values="0 0 0 0 0 0 0 0 0 0 0 0 0 0 0 0 0 0 0.5 0"/>
<feBlend mode="normal" in2="shape" result="effect2_innerShadow_207_384"/>
</filter>
<filter id="filter5_di_207_384" x="39.0283" y="33.8315" width="38" height="26" filterUnits="userSpaceOnUse" color-interpolation-filters="sRGB">
<feFlood flood-opacity="0" result="BackgroundImageFix"/>
<feColorMatrix in="SourceAlpha" type="matrix" values="0 0 0 0 0 0 0 0 0 0 0 0 0 0 0 0 0 0 127 0" result="hardAlpha"/>
<feOffset/>
<feGaussianBlur stdDeviation="2.5"/>
<feComposite in2="hardAlpha" operator="out"/>
<feColorMatrix type="matrix" values="0 0 0 0 0 0 0 0 0 0 0 0 0 0 0 0 0 0 0.25 0"/>
<feBlend mode="normal" in2="BackgroundImageFix" result="effect1_dropShadow_207_384"/>
<feBlend mode="normal" in="SourceGraphic" in2="effect1_dropShadow_207_384" result="shape"/>
<feColorMatrix in="SourceAlpha" type="matrix" values="0 0 0 0 0 0 0 0 0 0 0 0 0 0 0 0 0 0 127 0" result="hardAlpha"/>
<feOffset dy="-2.75"/>
<feGaussianBlur stdDeviation="2.5"/>
<feComposite in2="hardAlpha" operator="arithmetic" k2="-1" k3="1"/>
<feColorMatrix type="matrix" values="0 0 0 0 0 0 0 0 0 0 0 0 0 0 0 0 0 0 0.5 0"/>
<feBlend mode="normal" in2="shape" result="effect2_innerShadow_207_384"/>
</filter>
</defs>
</svg>
