<svg width="100" height="100" viewBox="0 0 100 100" fill="none" xmlns="http://www.w3.org/2000/svg">
<g filter="url(#filter0_d_207_803)">
<path fill-rule="evenodd" clip-rule="evenodd" d="M63.8832 50.9844C61.6769 51.8673 59.2687 52.353 56.747 52.353C46.134 52.353 37.5304 43.7494 37.5304 33.1363C37.5304 30.6147 38.0161 28.2064 38.8991 26.0001C31.3774 28.7108 26 35.9106 26 44.3664C26 55.1453 34.738 63.8833 45.5169 63.8833C53.9727 63.8833 61.1725 58.5059 63.8832 50.9844Z" fill="#FFFBDA"/>
</g>
<g filter="url(#filter1_di_207_803)">
<path d="M70.8794 50.75C70.8794 58.3439 65.3927 64.5 58.6245 64.5C51.8563 64.5 46.3696 58.3439 46.3696 50.75C46.3696 43.1561 51.8563 37 58.6245 37C65.3927 37 70.8794 43.1561 70.8794 50.75Z" fill="white"/>
<path d="M77.7422 58.175C77.7422 63.4907 73.9015 67.8 69.1638 67.8C64.426 67.8 60.5853 63.4907 60.5853 58.175C60.5853 52.8593 64.426 48.55 69.1638 48.55C73.9015 48.55 77.7422 52.8593 77.7422 58.175Z" fill="white"/>
<path d="M55.1932 52.125C55.1932 57.4407 51.3525 61.75 46.6147 61.75C41.877 61.75 38.0363 57.4407 38.0363 52.125C38.0363 46.8093 41.877 42.5 46.6147 42.5C51.3525 42.5 55.1932 46.8093 55.1932 52.125Z" fill="white"/>
<path d="M70.3892 60.375C70.3892 65.6907 60.8424 70 49.0657 70C37.2891 70 27.7422 65.6907 27.7422 60.375C27.7422 55.0593 37.2891 50.75 49.0657 50.75C60.8424 50.75 70.3892 55.0593 70.3892 60.375Z" fill="white"/>
</g>
<g filter="url(#filter2_di_207_803)">
<path d="M43 66.8289C43 69.938 40.1262 72.4585 36.5811 72.4585C33.036 72.4585 30.1622 69.938 30.1622 66.8289C30.1622 63.7197 33.036 61.1992 36.5811 61.1992C40.1262 61.1992 43 63.7197 43 66.8289Z" fill="white"/>
<path d="M28.1351 66.8289C28.1351 69.2835 25.8663 71.2733 23.0676 71.2733C20.2688 71.2733 18 69.2835 18 66.8289C18 64.3743 20.2688 62.3844 23.0676 62.3844C25.8663 62.3844 28.1351 64.3743 28.1351 66.8289Z" fill="white"/>
<path d="M38.2703 63.8659C38.2703 67.9569 34.4889 71.2733 29.8243 71.2733C25.1598 71.2733 21.3784 67.9569 21.3784 63.8659C21.3784 59.7749 25.1598 56.4585 29.8243 56.4585C34.4889 56.4585 38.2703 59.7749 38.2703 63.8659Z" fill="white"/>
</g>
<g filter="url(#filter3_di_207_803)">
<path d="M54.0283 68.2019C54.0283 71.3111 57.247 73.8315 61.2175 73.8315C65.188 73.8315 68.4067 71.3111 68.4067 68.2019C68.4067 65.0928 65.188 62.5723 61.2175 62.5723C57.247 62.5723 54.0283 65.0928 54.0283 68.2019Z" fill="white"/>
<path d="M70.677 68.2019C70.677 70.6565 73.2181 72.6464 76.3526 72.6464C79.4872 72.6464 82.0283 70.6565 82.0283 68.2019C82.0283 65.7473 79.4872 63.7575 76.3526 63.7575C73.2181 63.7575 70.677 65.7473 70.677 68.2019Z" fill="white"/>
<path d="M59.3256 65.2389C59.3256 69.3299 63.5608 72.6464 68.7851 72.6464C74.0094 72.6464 78.2445 69.3299 78.2445 65.239C78.2445 61.148 74.0094 57.8315 68.7851 57.8315C63.5608 57.8315 59.3256 61.148 59.3256 65.2389Z" fill="white"/>
</g>
<defs>
<filter id="filter0_d_207_803" x="21" y="21.0001" width="47.8828" height="47.8832" filterUnits="userSpaceOnUse" color-interpolation-filters="sRGB">
<feFlood flood-opacity="0" result="BackgroundImageFix"/>
<feColorMatrix in="SourceAlpha" type="matrix" values="0 0 0 0 0 0 0 0 0 0 0 0 0 0 0 0 0 0 127 0" result="hardAlpha"/>
<feOffset/>
<feGaussianBlur stdDeviation="2.5"/>
<feComposite in2="hardAlpha" operator="out"/>
<feColorMatrix type="matrix" values="0 0 0 0 1 0 0 0 0 1 0 0 0 0 1 0 0 0 1 0"/>
<feBlend mode="normal" in2="BackgroundImageFix" result="effect1_dropShadow_207_803"/>
<feBlend mode="normal" in="SourceGraphic" in2="effect1_dropShadow_207_803" result="shape"/>
</filter>
<filter id="filter1_di_207_803" x="22.7422" y="32" width="60" height="45" filterUnits="userSpaceOnUse" color-interpolation-filters="sRGB">
<feFlood flood-opacity="0" result="BackgroundImageFix"/>
<feColorMatrix in="SourceAlpha" type="matrix" values="0 0 0 0 0 0 0 0 0 0 0 0 0 0 0 0 0 0 127 0" result="hardAlpha"/>
<feOffset dy="2"/>
<feGaussianBlur stdDeviation="2.5"/>
<feComposite in2="hardAlpha" operator="out"/>
<feColorMatrix type="matrix" values="0 0 0 0 0 0 0 0 0 0 0 0 0 0 0 0 0 0 0.25 0"/>
<feBlend mode="normal" in2="BackgroundImageFix" result="effect1_dropShadow_207_803"/>
<feBlend mode="normal" in="SourceGraphic" in2="effect1_dropShadow_207_803" result="shape"/>
<feColorMatrix in="SourceAlpha" type="matrix" values="0 0 0 0 0 0 0 0 0 0 0 0 0 0 0 0 0 0 127 0" result="hardAlpha"/>
<feOffset dy="-5"/>
<feGaussianBlur stdDeviation="5"/>
<feComposite in2="hardAlpha" operator="arithmetic" k2="-1" k3="1"/>
<feColorMatrix type="matrix" values="0 0 0 0 0 0 0 0 0 0 0 0 0 0 0 0 0 0 0.5 0"/>
<feBlend mode="normal" in2="shape" result="effect2_innerShadow_207_803"/>
</filter>
<filter id="filter2_di_207_803" x="13" y="51.4585" width="35" height="26" filterUnits="userSpaceOnUse" color-interpolation-filters="sRGB">
<feFlood flood-opacity="0" result="BackgroundImageFix"/>
<feColorMatrix in="SourceAlpha" type="matrix" values="0 0 0 0 0 0 0 0 0 0 0 0 0 0 0 0 0 0 127 0" result="hardAlpha"/>
<feOffset/>
<feGaussianBlur stdDeviation="2.5"/>
<feComposite in2="hardAlpha" operator="out"/>
<feColorMatrix type="matrix" values="0 0 0 0 0 0 0 0 0 0 0 0 0 0 0 0 0 0 0.25 0"/>
<feBlend mode="normal" in2="BackgroundImageFix" result="effect1_dropShadow_207_803"/>
<feBlend mode="normal" in="SourceGraphic" in2="effect1_dropShadow_207_803" result="shape"/>
<feColorMatrix in="SourceAlpha" type="matrix" values="0 0 0 0 0 0 0 0 0 0 0 0 0 0 0 0 0 0 127 0" result="hardAlpha"/>
<feOffset dy="-2.75"/>
<feGaussianBlur stdDeviation="2.5"/>
<feComposite in2="hardAlpha" operator="arithmetic" k2="-1" k3="1"/>
<feColorMatrix type="matrix" values="0 0 0 0 0 0 0 0 0 0 0 0 0 0 0 0 0 0 0.5 0"/>
<feBlend mode="normal" in2="shape" result="effect2_innerShadow_207_803"/>
</filter>
<filter id="filter3_di_207_803" x="49.0283" y="52.8315" width="38" height="26" filterUnits="userSpaceOnUse" color-interpolation-filters="sRGB">
<feFlood flood-opacity="0" result="BackgroundImageFix"/>
<feColorMatrix in="SourceAlpha" type="matrix" values="0 0 0 0 0 0 0 0 0 0 0 0 0 0 0 0 0 0 127 0" result="hardAlpha"/>
<feOffset/>
<feGaussianBlur stdDeviation="2.5"/>
<feComposite in2="hardAlpha" operator="out"/>
<feColorMatrix type="matrix" values="0 0 0 0 0 0 0 0 0 0 0 0 0 0 0 0 0 0 0.25 0"/>
<feBlend mode="normal" in2="BackgroundImageFix" result="effect1_dropShadow_207_803"/>
<feBlend mode="normal" in="SourceGraphic" in2="effect1_dropShadow_207_803" result="shape"/>
<feColorMatrix in="SourceAlpha" type="matrix" values="0 0 0 0 0 0 0 0 0 0 0 0 0 0 0 0 0 0 127 0" result="hardAlpha"/>
<feOffset dy="-2.75"/>
<feGaussianBlur stdDeviation="2.5"/>
<feComposite in2="hardAlpha" operator="arithmetic" k2="-1" k3="1"/>
<feColorMatrix type="matrix" values="0 0 0 0 0 0 0 0 0 0 0 0 0 0 0 0 0 0 0.5 0"/>
<feBlend mode="normal" in2="shape" result="effect2_innerShadow_207_803"/>
</filter>
</defs>
</svg>
