<svg width="75" height="45" viewBox="0 0 75 45" fill="none" xmlns="http://www.w3.org/2000/svg">
<g filter="url(#filter0_di_207_348)">
<path d="M57.8794 16.75C57.8794 24.3439 52.3927 30.5 45.6245 30.5C38.8563 30.5 33.3696 24.3439 33.3696 16.75C33.3696 9.15608 38.8563 3 45.6245 3C52.3927 3 57.8794 9.15608 57.8794 16.75Z" fill="white"/>
<path d="M64.7422 24.175C64.7422 29.4907 60.9015 33.8 56.1638 33.8C51.426 33.8 47.5853 29.4907 47.5853 24.175C47.5853 18.8593 51.426 14.55 56.1638 14.55C60.9015 14.55 64.7422 18.8593 64.7422 24.175Z" fill="white"/>
<path d="M42.1932 18.125C42.1932 23.4407 38.3525 27.75 33.6147 27.75C28.877 27.75 25.0363 23.4407 25.0363 18.125C25.0363 12.8093 28.877 8.5 33.6147 8.5C38.3525 8.5 42.1932 12.8093 42.1932 18.125Z" fill="white"/>
<path d="M57.3892 26.375C57.3892 31.6907 47.8424 36 36.0657 36C24.2891 36 14.7422 31.6907 14.7422 26.375C14.7422 21.0593 24.2891 16.75 36.0657 16.75C47.8424 16.75 57.3892 21.0593 57.3892 26.375Z" fill="white"/>
</g>
<g filter="url(#filter1_di_207_348)">
<path d="M30 32.8289C30 35.938 27.1262 38.4585 23.5811 38.4585C20.036 38.4585 17.1622 35.938 17.1622 32.8289C17.1622 29.7197 20.036 27.1992 23.5811 27.1992C27.1262 27.1992 30 29.7197 30 32.8289Z" fill="white"/>
<path d="M15.1351 32.8289C15.1351 35.2835 12.8663 37.2733 10.0676 37.2733C7.26883 37.2733 5 35.2835 5 32.8289C5 30.3743 7.26883 28.3844 10.0676 28.3844C12.8663 28.3844 15.1351 30.3743 15.1351 32.8289Z" fill="white"/>
<path d="M25.2703 29.8659C25.2703 33.9569 21.4889 37.2733 16.8243 37.2733C12.1598 37.2733 8.37838 33.9569 8.37838 29.8659C8.37838 25.7749 12.1598 22.4585 16.8243 22.4585C21.4889 22.4585 25.2703 25.7749 25.2703 29.8659Z" fill="white"/>
</g>
<g filter="url(#filter2_di_207_348)">
<path d="M41.0283 34.2019C41.0283 37.3111 44.247 39.8315 48.2175 39.8315C52.188 39.8315 55.4067 37.3111 55.4067 34.2019C55.4067 31.0928 52.188 28.5723 48.2175 28.5723C44.247 28.5723 41.0283 31.0928 41.0283 34.2019Z" fill="white"/>
<path d="M57.677 34.2019C57.677 36.6565 60.2181 38.6464 63.3526 38.6464C66.4872 38.6464 69.0283 36.6565 69.0283 34.2019C69.0283 31.7473 66.4872 29.7575 63.3526 29.7575C60.2181 29.7575 57.677 31.7473 57.677 34.2019Z" fill="white"/>
<path d="M46.3256 31.2389C46.3256 35.3299 50.5608 38.6464 55.7851 38.6464C61.0094 38.6464 65.2445 35.3299 65.2445 31.239C65.2445 27.148 61.0094 23.8315 55.7851 23.8315C50.5608 23.8315 46.3256 27.148 46.3256 31.2389Z" fill="white"/>
</g>
<defs>
<filter id="filter0_di_207_348" x="9.74219" y="-2" width="60" height="45" filterUnits="userSpaceOnUse" color-interpolation-filters="sRGB">
<feFlood flood-opacity="0" result="BackgroundImageFix"/>
<feColorMatrix in="SourceAlpha" type="matrix" values="0 0 0 0 0 0 0 0 0 0 0 0 0 0 0 0 0 0 127 0" result="hardAlpha"/>
<feOffset dy="2"/>
<feGaussianBlur stdDeviation="2.5"/>
<feComposite in2="hardAlpha" operator="out"/>
<feColorMatrix type="matrix" values="0 0 0 0 0 0 0 0 0 0 0 0 0 0 0 0 0 0 0.25 0"/>
<feBlend mode="normal" in2="BackgroundImageFix" result="effect1_dropShadow_207_348"/>
<feBlend mode="normal" in="SourceGraphic" in2="effect1_dropShadow_207_348" result="shape"/>
<feColorMatrix in="SourceAlpha" type="matrix" values="0 0 0 0 0 0 0 0 0 0 0 0 0 0 0 0 0 0 127 0" result="hardAlpha"/>
<feOffset dy="-5"/>
<feGaussianBlur stdDeviation="5"/>
<feComposite in2="hardAlpha" operator="arithmetic" k2="-1" k3="1"/>
<feColorMatrix type="matrix" values="0 0 0 0 0 0 0 0 0 0 0 0 0 0 0 0 0 0 0.5 0"/>
<feBlend mode="normal" in2="shape" result="effect2_innerShadow_207_348"/>
</filter>
<filter id="filter1_di_207_348" x="0" y="17.4585" width="35" height="26" filterUnits="userSpaceOnUse" color-interpolation-filters="sRGB">
<feFlood flood-opacity="0" result="BackgroundImageFix"/>
<feColorMatrix in="SourceAlpha" type="matrix" values="0 0 0 0 0 0 0 0 0 0 0 0 0 0 0 0 0 0 127 0" result="hardAlpha"/>
<feOffset/>
<feGaussianBlur stdDeviation="2.5"/>
<feComposite in2="hardAlpha" operator="out"/>
<feColorMatrix type="matrix" values="0 0 0 0 0 0 0 0 0 0 0 0 0 0 0 0 0 0 0.25 0"/>
<feBlend mode="normal" in2="BackgroundImageFix" result="effect1_dropShadow_207_348"/>
<feBlend mode="normal" in="SourceGraphic" in2="effect1_dropShadow_207_348" result="shape"/>
<feColorMatrix in="SourceAlpha" type="matrix" values="0 0 0 0 0 0 0 0 0 0 0 0 0 0 0 0 0 0 127 0" result="hardAlpha"/>
<feOffset dy="-2.75"/>
<feGaussianBlur stdDeviation="2.5"/>
<feComposite in2="hardAlpha" operator="arithmetic" k2="-1" k3="1"/>
<feColorMatrix type="matrix" values="0 0 0 0 0 0 0 0 0 0 0 0 0 0 0 0 0 0 0.5 0"/>
<feBlend mode="normal" in2="shape" result="effect2_innerShadow_207_348"/>
</filter>
<filter id="filter2_di_207_348" x="36.0283" y="18.8315" width="38" height="26" filterUnits="userSpaceOnUse" color-interpolation-filters="sRGB">
<feFlood flood-opacity="0" result="BackgroundImageFix"/>
<feColorMatrix in="SourceAlpha" type="matrix" values="0 0 0 0 0 0 0 0 0 0 0 0 0 0 0 0 0 0 127 0" result="hardAlpha"/>
<feOffset/>
<feGaussianBlur stdDeviation="2.5"/>
<feComposite in2="hardAlpha" operator="out"/>
<feColorMatrix type="matrix" values="0 0 0 0 0 0 0 0 0 0 0 0 0 0 0 0 0 0 0.25 0"/>
<feBlend mode="normal" in2="BackgroundImageFix" result="effect1_dropShadow_207_348"/>
<feBlend mode="normal" in="SourceGraphic" in2="effect1_dropShadow_207_348" result="shape"/>
<feColorMatrix in="SourceAlpha" type="matrix" values="0 0 0 0 0 0 0 0 0 0 0 0 0 0 0 0 0 0 127 0" result="hardAlpha"/>
<feOffset dy="-2.75"/>
<feGaussianBlur stdDeviation="2.5"/>
<feComposite in2="hardAlpha" operator="arithmetic" k2="-1" k3="1"/>
<feColorMatrix type="matrix" values="0 0 0 0 0 0 0 0 0 0 0 0 0 0 0 0 0 0 0.5 0"/>
<feBlend mode="normal" in2="shape" result="effect2_innerShadow_207_348"/>
</filter>
</defs>
</svg>
