<svg width="100" height="100" viewBox="0 0 100 100" fill="none" xmlns="http://www.w3.org/2000/svg">
<path d="M65.8794 41.75C65.8794 49.3439 60.3927 55.5 53.6245 55.5C46.8563 55.5 41.3696 49.3439 41.3696 41.75C41.3696 34.1561 46.8563 28 53.6245 28C60.3927 28 65.8794 34.1561 65.8794 41.75Z" fill="white"/>
<path d="M72.7422 49.175C72.7422 54.4907 68.9015 58.8 64.1638 58.8C59.426 58.8 55.5853 54.4907 55.5853 49.175C55.5853 43.8593 59.426 39.55 64.1638 39.55C68.9015 39.55 72.7422 43.8593 72.7422 49.175Z" fill="white"/>
<path d="M50.1932 43.125C50.1932 48.4407 46.3525 52.75 41.6147 52.75C36.877 52.75 33.0363 48.4407 33.0363 43.125C33.0363 37.8093 36.877 33.5 41.6147 33.5C46.3525 33.5 50.1932 37.8093 50.1932 43.125Z" fill="white"/>
<path d="M65.3892 51.375C65.3892 56.6907 55.8424 61 44.0657 61C32.2891 61 22.7422 56.6907 22.7422 51.375C22.7422 46.0593 32.2891 41.75 44.0657 41.75C55.8424 41.75 65.3892 46.0593 65.3892 51.375Z" fill="white"/>
<path d="M38 57.8289C38 60.938 35.1262 63.4585 31.5811 63.4585C28.036 63.4585 25.1622 60.938 25.1622 57.8289C25.1622 54.7197 28.036 52.1992 31.5811 52.1992C35.1262 52.1992 38 54.7197 38 57.8289Z" fill="#F2F2F2"/>
<path d="M23.1351 57.8289C23.1351 60.2835 20.8663 62.2733 18.0676 62.2733C15.2688 62.2733 13 60.2835 13 57.8289C13 55.3743 15.2688 53.3844 18.0676 53.3844C20.8663 53.3844 23.1351 55.3743 23.1351 57.8289Z" fill="#F2F2F2"/>
<path d="M33.2703 54.8659C33.2703 58.9569 29.4889 62.2733 24.8243 62.2733C20.1598 62.2733 16.3784 58.9569 16.3784 54.8659C16.3784 50.7749 20.1598 47.4585 24.8243 47.4585C29.4889 47.4585 33.2703 50.7749 33.2703 54.8659Z" fill="#F2F2F2"/>
<path d="M49.0283 59.2019C49.0283 62.3111 52.247 64.8315 56.2175 64.8315C60.188 64.8315 63.4067 62.3111 63.4067 59.2019C63.4067 56.0928 60.188 53.5723 56.2175 53.5723C52.247 53.5723 49.0283 56.0928 49.0283 59.2019Z" fill="white"/>
<path d="M65.677 59.2019C65.677 61.6565 68.2181 63.6464 71.3526 63.6464C74.4872 63.6464 77.0283 61.6565 77.0283 59.2019C77.0283 56.7473 74.4872 54.7575 71.3526 54.7575C68.2181 54.7575 65.677 56.7473 65.677 59.2019Z" fill="white"/>
<path d="M54.3256 56.2389C54.3256 60.3299 58.5608 63.6464 63.7851 63.6464C69.0094 63.6464 73.2445 60.3299 73.2445 56.239C73.2445 52.148 69.0094 48.8315 63.7851 48.8315C58.5608 48.8315 54.3256 52.148 54.3256 56.2389Z" fill="white"/>
<path d="M74.8794 49.75C74.8794 57.3439 69.3927 63.5 62.6245 63.5C55.8563 63.5 50.3696 57.3439 50.3696 49.75C50.3696 42.1561 55.8563 36 62.6245 36C69.3927 36 74.8794 42.1561 74.8794 49.75Z" fill="#CFCFCF"/>
<path d="M81.7422 57.175C81.7422 62.4907 77.9015 66.8 73.1638 66.8C68.426 66.8 64.5853 62.4907 64.5853 57.175C64.5853 51.8593 68.426 47.55 73.1638 47.55C77.9015 47.55 81.7422 51.8593 81.7422 57.175Z" fill="#CFCFCF"/>
<path d="M59.1932 51.125C59.1932 56.4407 55.3525 60.75 50.6147 60.75C45.877 60.75 42.0363 56.4407 42.0363 51.125C42.0363 45.8093 45.877 41.5 50.6147 41.5C55.3525 41.5 59.1932 45.8093 59.1932 51.125Z" fill="#CFCFCF"/>
<path d="M74.3892 59.375C74.3892 64.6907 64.8424 69 53.0657 69C41.2891 69 31.7422 64.6907 31.7422 59.375C31.7422 54.0593 41.2891 49.75 53.0657 49.75C64.8424 49.75 74.3892 54.0593 74.3892 59.375Z" fill="#CFCFCF"/>
<path d="M47 65.8289C47 68.938 44.1262 71.4585 40.5811 71.4585C37.036 71.4585 34.1622 68.938 34.1622 65.8289C34.1622 62.7197 37.036 60.1992 40.5811 60.1992C44.1262 60.1992 47 62.7197 47 65.8289Z" fill="#CFCFCF"/>
<path d="M32.1351 65.8289C32.1351 68.2835 29.8663 70.2733 27.0676 70.2733C24.2688 70.2733 22 68.2835 22 65.8289C22 63.3743 24.2688 61.3844 27.0676 61.3844C29.8663 61.3844 32.1351 63.3743 32.1351 65.8289Z" fill="#CFCFCF"/>
<path d="M42.2703 62.8659C42.2703 66.9569 38.4889 70.2733 33.8243 70.2733C29.1598 70.2733 25.3784 66.9569 25.3784 62.8659C25.3784 58.7749 29.1598 55.4585 33.8243 55.4585C38.4889 55.4585 42.2703 58.7749 42.2703 62.8659Z" fill="#CFCFCF"/>
<path d="M58.0283 67.2019C58.0283 70.3111 61.247 72.8315 65.2175 72.8315C69.188 72.8315 72.4067 70.3111 72.4067 67.2019C72.4067 64.0928 69.188 61.5723 65.2175 61.5723C61.247 61.5723 58.0283 64.0928 58.0283 67.2019Z" fill="#BFBFBF"/>
<path d="M74.677 67.2019C74.677 69.6565 77.2181 71.6464 80.3526 71.6464C83.4872 71.6464 86.0283 69.6565 86.0283 67.2019C86.0283 64.7473 83.4872 62.7575 80.3526 62.7575C77.2181 62.7575 74.677 64.7473 74.677 67.2019Z" fill="#BFBFBF"/>
<path d="M63.3256 64.2389C63.3256 68.3299 67.5608 71.6464 72.7851 71.6464C78.0094 71.6464 82.2445 68.3299 82.2445 64.239C82.2445 60.148 78.0094 56.8315 72.7851 56.8315C67.5608 56.8315 63.3256 60.148 63.3256 64.2389Z" fill="#BFBFBF"/>
</svg>
