<svg width="84" height="65" viewBox="0 0 84 65" fill="none" xmlns="http://www.w3.org/2000/svg">
<g filter="url(#filter0_di_207_418)">
<path d="M57.8794 16.75C57.8794 24.3439 52.3927 30.5 45.6245 30.5C38.8563 30.5 33.3696 24.3439 33.3696 16.75C33.3696 9.15608 38.8563 3 45.6245 3C52.3927 3 57.8794 9.15608 57.8794 16.75Z" fill="white"/>
<path d="M64.7422 24.175C64.7422 29.4907 60.9015 33.8 56.1638 33.8C51.426 33.8 47.5853 29.4907 47.5853 24.175C47.5853 18.8593 51.426 14.55 56.1638 14.55C60.9015 14.55 64.7422 18.8593 64.7422 24.175Z" fill="white"/>
<path d="M42.1932 18.125C42.1932 23.4407 38.3525 27.75 33.6147 27.75C28.877 27.75 25.0363 23.4407 25.0363 18.125C25.0363 12.8093 28.877 8.5 33.6147 8.5C38.3525 8.5 42.1932 12.8093 42.1932 18.125Z" fill="white"/>
<path d="M57.3892 26.375C57.3892 31.6907 47.8424 36 36.0657 36C24.2891 36 14.7422 31.6907 14.7422 26.375C14.7422 21.0593 24.2891 16.75 36.0657 16.75C47.8424 16.75 57.3892 21.0593 57.3892 26.375Z" fill="white"/>
</g>
<g filter="url(#filter1_di_207_418)">
<path d="M30 32.8289C30 35.938 27.1262 38.4585 23.5811 38.4585C20.036 38.4585 17.1622 35.938 17.1622 32.8289C17.1622 29.7197 20.036 27.1992 23.5811 27.1992C27.1262 27.1992 30 29.7197 30 32.8289Z" fill="white"/>
<path d="M15.1351 32.8289C15.1351 35.2835 12.8663 37.2733 10.0676 37.2733C7.26883 37.2733 5 35.2835 5 32.8289C5 30.3743 7.26883 28.3844 10.0676 28.3844C12.8663 28.3844 15.1351 30.3743 15.1351 32.8289Z" fill="white"/>
<path d="M25.2703 29.8659C25.2703 33.9569 21.4889 37.2733 16.8243 37.2733C12.1598 37.2733 8.37838 33.9569 8.37838 29.8659C8.37838 25.7749 12.1598 22.4585 16.8243 22.4585C21.4889 22.4585 25.2703 25.7749 25.2703 29.8659Z" fill="white"/>
</g>
<g filter="url(#filter2_di_207_418)">
<path d="M41.0283 34.2019C41.0283 37.3111 44.247 39.8315 48.2175 39.8315C52.188 39.8315 55.4067 37.3111 55.4067 34.2019C55.4067 31.0928 52.188 28.5723 48.2175 28.5723C44.247 28.5723 41.0283 31.0928 41.0283 34.2019Z" fill="white"/>
<path d="M57.677 34.2019C57.677 36.6565 60.2181 38.6464 63.3526 38.6464C66.4872 38.6464 69.0283 36.6565 69.0283 34.2019C69.0283 31.7473 66.4872 29.7575 63.3526 29.7575C60.2181 29.7575 57.677 31.7473 57.677 34.2019Z" fill="white"/>
<path d="M46.3256 31.2389C46.3256 35.3299 50.5608 38.6464 55.7851 38.6464C61.0094 38.6464 65.2445 35.3299 65.2445 31.239C65.2445 27.148 61.0094 23.8315 55.7851 23.8315C50.5608 23.8315 46.3256 27.148 46.3256 31.2389Z" fill="white"/>
</g>
<g filter="url(#filter3_di_207_418)">
<path d="M66.8794 24.75C66.8794 32.3439 61.3927 38.5 54.6245 38.5C47.8563 38.5 42.3696 32.3439 42.3696 24.75C42.3696 17.1561 47.8563 11 54.6245 11C61.3927 11 66.8794 17.1561 66.8794 24.75Z" fill="#CFCFCF"/>
<path d="M73.7422 32.175C73.7422 37.4907 69.9015 41.8 65.1638 41.8C60.426 41.8 56.5853 37.4907 56.5853 32.175C56.5853 26.8593 60.426 22.55 65.1638 22.55C69.9015 22.55 73.7422 26.8593 73.7422 32.175Z" fill="#CFCFCF"/>
<path d="M51.1932 26.125C51.1932 31.4407 47.3525 35.75 42.6147 35.75C37.877 35.75 34.0363 31.4407 34.0363 26.125C34.0363 20.8093 37.877 16.5 42.6147 16.5C47.3525 16.5 51.1932 20.8093 51.1932 26.125Z" fill="#CFCFCF"/>
<path d="M66.3892 34.375C66.3892 39.6907 56.8424 44 45.0657 44C33.2891 44 23.7422 39.6907 23.7422 34.375C23.7422 29.0593 33.2891 24.75 45.0657 24.75C56.8424 24.75 66.3892 29.0593 66.3892 34.375Z" fill="#CFCFCF"/>
</g>
<g filter="url(#filter4_di_207_418)">
<path d="M39 40.8289C39 43.938 36.1262 46.4585 32.5811 46.4585C29.036 46.4585 26.1622 43.938 26.1622 40.8289C26.1622 37.7197 29.036 35.1992 32.5811 35.1992C36.1262 35.1992 39 37.7197 39 40.8289Z" fill="#CFCFCF"/>
<path d="M24.1351 40.8289C24.1351 43.2835 21.8663 45.2733 19.0676 45.2733C16.2688 45.2733 14 43.2835 14 40.8289C14 38.3743 16.2688 36.3844 19.0676 36.3844C21.8663 36.3844 24.1351 38.3743 24.1351 40.8289Z" fill="#CFCFCF"/>
<path d="M34.2703 37.8659C34.2703 41.9569 30.4889 45.2733 25.8243 45.2733C21.1598 45.2733 17.3784 41.9569 17.3784 37.8659C17.3784 33.7749 21.1598 30.4585 25.8243 30.4585C30.4889 30.4585 34.2703 33.7749 34.2703 37.8659Z" fill="#CFCFCF"/>
</g>
<g filter="url(#filter5_di_207_418)">
<path d="M50.0283 42.2019C50.0283 45.3111 53.247 47.8315 57.2175 47.8315C61.188 47.8315 64.4067 45.3111 64.4067 42.2019C64.4067 39.0928 61.188 36.5723 57.2175 36.5723C53.247 36.5723 50.0283 39.0928 50.0283 42.2019Z" fill="#CFCFCF"/>
<path d="M66.677 42.2019C66.677 44.6565 69.2181 46.6464 72.3526 46.6464C75.4872 46.6464 78.0283 44.6565 78.0283 42.2019C78.0283 39.7473 75.4872 37.7575 72.3526 37.7575C69.2181 37.7575 66.677 39.7473 66.677 42.2019Z" fill="#CFCFCF"/>
<path d="M55.3256 39.2389C55.3256 43.3299 59.5608 46.6464 64.7851 46.6464C70.0094 46.6464 74.2445 43.3299 74.2445 39.239C74.2445 35.148 70.0094 31.8315 64.7851 31.8315C59.5608 31.8315 55.3256 35.148 55.3256 39.2389Z" fill="#CFCFCF"/>
</g>
<g filter="url(#filter6_i_207_418)">
<path d="M17.6938 44.2221L17.3471 48.0511L16.0795 47.7115L17.6938 44.2221Z" fill="#BAEEFF"/>
<ellipse cx="16.3858" cy="49.1005" rx="0.757661" ry="2.52554" transform="rotate(15 16.3858 49.1005)" fill="#BAEEFF"/>
<path d="M24.9057 44.1965L24.559 48.0255L23.2914 47.6859L24.9057 44.1965Z" fill="#BAEEFF"/>
<ellipse cx="23.5977" cy="49.0749" rx="0.757661" ry="2.52554" transform="rotate(15 23.5977 49.0749)" fill="#BAEEFF"/>
</g>
<g filter="url(#filter7_i_207_418)">
<path d="M31.6938 44.2221L31.3471 48.0511L30.0795 47.7115L31.6938 44.2221Z" fill="#BAEEFF"/>
<ellipse cx="30.3858" cy="49.1005" rx="0.757661" ry="2.52554" transform="rotate(15 30.3858 49.1005)" fill="#BAEEFF"/>
<path d="M38.9057 44.1965L38.559 48.0255L37.2914 47.6859L38.9057 44.1965Z" fill="#BAEEFF"/>
<ellipse cx="37.5977" cy="49.0749" rx="0.757661" ry="2.52554" transform="rotate(15 37.5977 49.0749)" fill="#BAEEFF"/>
</g>
<g filter="url(#filter8_i_207_418)">
<path d="M48.6938 47.2221L48.3471 51.0511L47.0795 50.7115L48.6938 47.2221Z" fill="#BAEEFF"/>
<ellipse cx="47.3858" cy="52.1005" rx="0.757661" ry="2.52554" transform="rotate(15 47.3858 52.1005)" fill="#BAEEFF"/>
<path d="M55.9057 47.1965L55.559 51.0255L54.2914 50.6859L55.9057 47.1965Z" fill="#BAEEFF"/>
<ellipse cx="54.5977" cy="52.0749" rx="0.757661" ry="2.52554" transform="rotate(15 54.5977 52.0749)" fill="#BAEEFF"/>
</g>
<g filter="url(#filter9_i_207_418)">
<path d="M62.6938 47.2221L62.3471 51.0511L61.0795 50.7115L62.6938 47.2221Z" fill="#BAEEFF"/>
<ellipse cx="61.3858" cy="52.1005" rx="0.757661" ry="2.52554" transform="rotate(15 61.3858 52.1005)" fill="#BAEEFF"/>
<path d="M69.9057 47.1965L69.559 51.0255L68.2914 50.6859L69.9057 47.1965Z" fill="#BAEEFF"/>
<ellipse cx="68.5977" cy="52.0749" rx="0.757661" ry="2.52554" transform="rotate(15 68.5977 52.0749)" fill="#BAEEFF"/>
</g>
<g filter="url(#filter10_i_207_418)">
<path d="M26.6938 57.2221L26.3471 61.0511L25.0795 60.7115L26.6938 57.2221Z" fill="#BAEEFF"/>
<ellipse cx="25.3858" cy="62.1005" rx="0.757661" ry="2.52554" transform="rotate(15 25.3858 62.1005)" fill="#BAEEFF"/>
<path d="M33.9057 57.1965L33.559 61.0255L32.2914 60.6859L33.9057 57.1965Z" fill="#BAEEFF"/>
<ellipse cx="32.5977" cy="62.0749" rx="0.757661" ry="2.52554" transform="rotate(15 32.5977 62.0749)" fill="#BAEEFF"/>
</g>
<g filter="url(#filter11_i_207_418)">
<path d="M40.6938 57.2221L40.3471 61.0511L39.0795 60.7115L40.6938 57.2221Z" fill="#BAEEFF"/>
<ellipse cx="39.3858" cy="62.1005" rx="0.757661" ry="2.52554" transform="rotate(15 39.3858 62.1005)" fill="#BAEEFF"/>
<path d="M47.9057 57.1965L47.559 61.0255L46.2914 60.6859L47.9057 57.1965Z" fill="#BAEEFF"/>
<ellipse cx="46.5977" cy="62.0749" rx="0.757661" ry="2.52554" transform="rotate(15 46.5977 62.0749)" fill="#BAEEFF"/>
</g>
<defs>
<filter id="filter0_di_207_418" x="9.74219" y="-2" width="60" height="45" filterUnits="userSpaceOnUse" color-interpolation-filters="sRGB">
<feFlood flood-opacity="0" result="BackgroundImageFix"/>
<feColorMatrix in="SourceAlpha" type="matrix" values="0 0 0 0 0 0 0 0 0 0 0 0 0 0 0 0 0 0 127 0" result="hardAlpha"/>
<feOffset dy="2"/>
<feGaussianBlur stdDeviation="2.5"/>
<feComposite in2="hardAlpha" operator="out"/>
<feColorMatrix type="matrix" values="0 0 0 0 0 0 0 0 0 0 0 0 0 0 0 0 0 0 0.25 0"/>
<feBlend mode="normal" in2="BackgroundImageFix" result="effect1_dropShadow_207_418"/>
<feBlend mode="normal" in="SourceGraphic" in2="effect1_dropShadow_207_418" result="shape"/>
<feColorMatrix in="SourceAlpha" type="matrix" values="0 0 0 0 0 0 0 0 0 0 0 0 0 0 0 0 0 0 127 0" result="hardAlpha"/>
<feOffset dy="-5"/>
<feGaussianBlur stdDeviation="5"/>
<feComposite in2="hardAlpha" operator="arithmetic" k2="-1" k3="1"/>
<feColorMatrix type="matrix" values="0 0 0 0 0 0 0 0 0 0 0 0 0 0 0 0 0 0 0.5 0"/>
<feBlend mode="normal" in2="shape" result="effect2_innerShadow_207_418"/>
</filter>
<filter id="filter1_di_207_418" x="0" y="17.4585" width="35" height="26" filterUnits="userSpaceOnUse" color-interpolation-filters="sRGB">
<feFlood flood-opacity="0" result="BackgroundImageFix"/>
<feColorMatrix in="SourceAlpha" type="matrix" values="0 0 0 0 0 0 0 0 0 0 0 0 0 0 0 0 0 0 127 0" result="hardAlpha"/>
<feOffset/>
<feGaussianBlur stdDeviation="2.5"/>
<feComposite in2="hardAlpha" operator="out"/>
<feColorMatrix type="matrix" values="0 0 0 0 0 0 0 0 0 0 0 0 0 0 0 0 0 0 0.25 0"/>
<feBlend mode="normal" in2="BackgroundImageFix" result="effect1_dropShadow_207_418"/>
<feBlend mode="normal" in="SourceGraphic" in2="effect1_dropShadow_207_418" result="shape"/>
<feColorMatrix in="SourceAlpha" type="matrix" values="0 0 0 0 0 0 0 0 0 0 0 0 0 0 0 0 0 0 127 0" result="hardAlpha"/>
<feOffset dy="-2.75"/>
<feGaussianBlur stdDeviation="2.5"/>
<feComposite in2="hardAlpha" operator="arithmetic" k2="-1" k3="1"/>
<feColorMatrix type="matrix" values="0 0 0 0 0 0 0 0 0 0 0 0 0 0 0 0 0 0 0.5 0"/>
<feBlend mode="normal" in2="shape" result="effect2_innerShadow_207_418"/>
</filter>
<filter id="filter2_di_207_418" x="36.0283" y="18.8315" width="38" height="26" filterUnits="userSpaceOnUse" color-interpolation-filters="sRGB">
<feFlood flood-opacity="0" result="BackgroundImageFix"/>
<feColorMatrix in="SourceAlpha" type="matrix" values="0 0 0 0 0 0 0 0 0 0 0 0 0 0 0 0 0 0 127 0" result="hardAlpha"/>
<feOffset/>
<feGaussianBlur stdDeviation="2.5"/>
<feComposite in2="hardAlpha" operator="out"/>
<feColorMatrix type="matrix" values="0 0 0 0 0 0 0 0 0 0 0 0 0 0 0 0 0 0 0.25 0"/>
<feBlend mode="normal" in2="BackgroundImageFix" result="effect1_dropShadow_207_418"/>
<feBlend mode="normal" in="SourceGraphic" in2="effect1_dropShadow_207_418" result="shape"/>
<feColorMatrix in="SourceAlpha" type="matrix" values="0 0 0 0 0 0 0 0 0 0 0 0 0 0 0 0 0 0 127 0" result="hardAlpha"/>
<feOffset dy="-2.75"/>
<feGaussianBlur stdDeviation="2.5"/>
<feComposite in2="hardAlpha" operator="arithmetic" k2="-1" k3="1"/>
<feColorMatrix type="matrix" values="0 0 0 0 0 0 0 0 0 0 0 0 0 0 0 0 0 0 0.5 0"/>
<feBlend mode="normal" in2="shape" result="effect2_innerShadow_207_418"/>
</filter>
<filter id="filter3_di_207_418" x="18.7422" y="6" width="60" height="45" filterUnits="userSpaceOnUse" color-interpolation-filters="sRGB">
<feFlood flood-opacity="0" result="BackgroundImageFix"/>
<feColorMatrix in="SourceAlpha" type="matrix" values="0 0 0 0 0 0 0 0 0 0 0 0 0 0 0 0 0 0 127 0" result="hardAlpha"/>
<feOffset dy="2"/>
<feGaussianBlur stdDeviation="2.5"/>
<feComposite in2="hardAlpha" operator="out"/>
<feColorMatrix type="matrix" values="0 0 0 0 0 0 0 0 0 0 0 0 0 0 0 0 0 0 0.25 0"/>
<feBlend mode="normal" in2="BackgroundImageFix" result="effect1_dropShadow_207_418"/>
<feBlend mode="normal" in="SourceGraphic" in2="effect1_dropShadow_207_418" result="shape"/>
<feColorMatrix in="SourceAlpha" type="matrix" values="0 0 0 0 0 0 0 0 0 0 0 0 0 0 0 0 0 0 127 0" result="hardAlpha"/>
<feOffset dy="-5"/>
<feGaussianBlur stdDeviation="5"/>
<feComposite in2="hardAlpha" operator="arithmetic" k2="-1" k3="1"/>
<feColorMatrix type="matrix" values="0 0 0 0 0 0 0 0 0 0 0 0 0 0 0 0 0 0 0.5 0"/>
<feBlend mode="normal" in2="shape" result="effect2_innerShadow_207_418"/>
</filter>
<filter id="filter4_di_207_418" x="9" y="25.4585" width="35" height="26" filterUnits="userSpaceOnUse" color-interpolation-filters="sRGB">
<feFlood flood-opacity="0" result="BackgroundImageFix"/>
<feColorMatrix in="SourceAlpha" type="matrix" values="0 0 0 0 0 0 0 0 0 0 0 0 0 0 0 0 0 0 127 0" result="hardAlpha"/>
<feOffset/>
<feGaussianBlur stdDeviation="2.5"/>
<feComposite in2="hardAlpha" operator="out"/>
<feColorMatrix type="matrix" values="0 0 0 0 0 0 0 0 0 0 0 0 0 0 0 0 0 0 0.25 0"/>
<feBlend mode="normal" in2="BackgroundImageFix" result="effect1_dropShadow_207_418"/>
<feBlend mode="normal" in="SourceGraphic" in2="effect1_dropShadow_207_418" result="shape"/>
<feColorMatrix in="SourceAlpha" type="matrix" values="0 0 0 0 0 0 0 0 0 0 0 0 0 0 0 0 0 0 127 0" result="hardAlpha"/>
<feOffset dy="-2.75"/>
<feGaussianBlur stdDeviation="2.5"/>
<feComposite in2="hardAlpha" operator="arithmetic" k2="-1" k3="1"/>
<feColorMatrix type="matrix" values="0 0 0 0 0 0 0 0 0 0 0 0 0 0 0 0 0 0 0.5 0"/>
<feBlend mode="normal" in2="shape" result="effect2_innerShadow_207_418"/>
</filter>
<filter id="filter5_di_207_418" x="45.0283" y="26.8315" width="38" height="26" filterUnits="userSpaceOnUse" color-interpolation-filters="sRGB">
<feFlood flood-opacity="0" result="BackgroundImageFix"/>
<feColorMatrix in="SourceAlpha" type="matrix" values="0 0 0 0 0 0 0 0 0 0 0 0 0 0 0 0 0 0 127 0" result="hardAlpha"/>
<feOffset/>
<feGaussianBlur stdDeviation="2.5"/>
<feComposite in2="hardAlpha" operator="out"/>
<feColorMatrix type="matrix" values="0 0 0 0 0 0 0 0 0 0 0 0 0 0 0 0 0 0 0.25 0"/>
<feBlend mode="normal" in2="BackgroundImageFix" result="effect1_dropShadow_207_418"/>
<feBlend mode="normal" in="SourceGraphic" in2="effect1_dropShadow_207_418" result="shape"/>
<feColorMatrix in="SourceAlpha" type="matrix" values="0 0 0 0 0 0 0 0 0 0 0 0 0 0 0 0 0 0 127 0" result="hardAlpha"/>
<feOffset dy="-2.75"/>
<feGaussianBlur stdDeviation="2.5"/>
<feComposite in2="hardAlpha" operator="arithmetic" k2="-1" k3="1"/>
<feColorMatrix type="matrix" values="0 0 0 0 0 0 0 0 0 0 0 0 0 0 0 0 0 0 0.5 0"/>
<feBlend mode="normal" in2="shape" result="effect2_innerShadow_207_418"/>
</filter>
<filter id="filter6_i_207_418" x="15.4043" y="43.8964" width="9.50098" height="7.65156" filterUnits="userSpaceOnUse" color-interpolation-filters="sRGB">
<feFlood flood-opacity="0" result="BackgroundImageFix"/>
<feBlend mode="normal" in="SourceGraphic" in2="BackgroundImageFix" result="shape"/>
<feColorMatrix in="SourceAlpha" type="matrix" values="0 0 0 0 0 0 0 0 0 0 0 0 0 0 0 0 0 0 127 0" result="hardAlpha"/>
<feOffset dy="-0.3"/>
<feGaussianBlur stdDeviation="0.15"/>
<feComposite in2="hardAlpha" operator="arithmetic" k2="-1" k3="1"/>
<feColorMatrix type="matrix" values="0 0 0 0 0 0 0 0 0 0 0 0 0 0 0 0 0 0 0.25 0"/>
<feBlend mode="normal" in2="shape" result="effect1_innerShadow_207_418"/>
</filter>
<filter id="filter7_i_207_418" x="29.4043" y="43.8964" width="9.50098" height="7.65156" filterUnits="userSpaceOnUse" color-interpolation-filters="sRGB">
<feFlood flood-opacity="0" result="BackgroundImageFix"/>
<feBlend mode="normal" in="SourceGraphic" in2="BackgroundImageFix" result="shape"/>
<feColorMatrix in="SourceAlpha" type="matrix" values="0 0 0 0 0 0 0 0 0 0 0 0 0 0 0 0 0 0 127 0" result="hardAlpha"/>
<feOffset dy="-0.3"/>
<feGaussianBlur stdDeviation="0.15"/>
<feComposite in2="hardAlpha" operator="arithmetic" k2="-1" k3="1"/>
<feColorMatrix type="matrix" values="0 0 0 0 0 0 0 0 0 0 0 0 0 0 0 0 0 0 0.25 0"/>
<feBlend mode="normal" in2="shape" result="effect1_innerShadow_207_418"/>
</filter>
<filter id="filter8_i_207_418" x="46.4043" y="46.8964" width="9.50098" height="7.65156" filterUnits="userSpaceOnUse" color-interpolation-filters="sRGB">
<feFlood flood-opacity="0" result="BackgroundImageFix"/>
<feBlend mode="normal" in="SourceGraphic" in2="BackgroundImageFix" result="shape"/>
<feColorMatrix in="SourceAlpha" type="matrix" values="0 0 0 0 0 0 0 0 0 0 0 0 0 0 0 0 0 0 127 0" result="hardAlpha"/>
<feOffset dy="-0.3"/>
<feGaussianBlur stdDeviation="0.15"/>
<feComposite in2="hardAlpha" operator="arithmetic" k2="-1" k3="1"/>
<feColorMatrix type="matrix" values="0 0 0 0 0 0 0 0 0 0 0 0 0 0 0 0 0 0 0.25 0"/>
<feBlend mode="normal" in2="shape" result="effect1_innerShadow_207_418"/>
</filter>
<filter id="filter9_i_207_418" x="60.4043" y="46.8964" width="9.50098" height="7.65156" filterUnits="userSpaceOnUse" color-interpolation-filters="sRGB">
<feFlood flood-opacity="0" result="BackgroundImageFix"/>
<feBlend mode="normal" in="SourceGraphic" in2="BackgroundImageFix" result="shape"/>
<feColorMatrix in="SourceAlpha" type="matrix" values="0 0 0 0 0 0 0 0 0 0 0 0 0 0 0 0 0 0 127 0" result="hardAlpha"/>
<feOffset dy="-0.3"/>
<feGaussianBlur stdDeviation="0.15"/>
<feComposite in2="hardAlpha" operator="arithmetic" k2="-1" k3="1"/>
<feColorMatrix type="matrix" values="0 0 0 0 0 0 0 0 0 0 0 0 0 0 0 0 0 0 0.25 0"/>
<feBlend mode="normal" in2="shape" result="effect1_innerShadow_207_418"/>
</filter>
<filter id="filter10_i_207_418" x="24.4043" y="56.8964" width="9.50098" height="7.65156" filterUnits="userSpaceOnUse" color-interpolation-filters="sRGB">
<feFlood flood-opacity="0" result="BackgroundImageFix"/>
<feBlend mode="normal" in="SourceGraphic" in2="BackgroundImageFix" result="shape"/>
<feColorMatrix in="SourceAlpha" type="matrix" values="0 0 0 0 0 0 0 0 0 0 0 0 0 0 0 0 0 0 127 0" result="hardAlpha"/>
<feOffset dy="-0.3"/>
<feGaussianBlur stdDeviation="0.15"/>
<feComposite in2="hardAlpha" operator="arithmetic" k2="-1" k3="1"/>
<feColorMatrix type="matrix" values="0 0 0 0 0 0 0 0 0 0 0 0 0 0 0 0 0 0 0.25 0"/>
<feBlend mode="normal" in2="shape" result="effect1_innerShadow_207_418"/>
</filter>
<filter id="filter11_i_207_418" x="38.4043" y="56.8964" width="9.50098" height="7.65156" filterUnits="userSpaceOnUse" color-interpolation-filters="sRGB">
<feFlood flood-opacity="0" result="BackgroundImageFix"/>
<feBlend mode="normal" in="SourceGraphic" in2="BackgroundImageFix" result="shape"/>
<feColorMatrix in="SourceAlpha" type="matrix" values="0 0 0 0 0 0 0 0 0 0 0 0 0 0 0 0 0 0 127 0" result="hardAlpha"/>
<feOffset dy="-0.3"/>
<feGaussianBlur stdDeviation="0.15"/>
<feComposite in2="hardAlpha" operator="arithmetic" k2="-1" k3="1"/>
<feColorMatrix type="matrix" values="0 0 0 0 0 0 0 0 0 0 0 0 0 0 0 0 0 0 0.25 0"/>
<feBlend mode="normal" in2="shape" result="effect1_innerShadow_207_418"/>
</filter>
</defs>
</svg>
