<svg width="100" height="100" viewBox="0 0 100 100" fill="none" xmlns="http://www.w3.org/2000/svg">
<path d="M65.8794 32.75C65.8794 40.3439 60.3927 46.5 53.6245 46.5C46.8563 46.5 41.3696 40.3439 41.3696 32.75C41.3696 25.1561 46.8563 19 53.6245 19C60.3927 19 65.8794 25.1561 65.8794 32.75Z" fill="white"/>
<path d="M72.7422 40.175C72.7422 45.4907 68.9015 49.8 64.1638 49.8C59.426 49.8 55.5853 45.4907 55.5853 40.175C55.5853 34.8593 59.426 30.55 64.1638 30.55C68.9015 30.55 72.7422 34.8593 72.7422 40.175Z" fill="white"/>
<path d="M50.1932 34.125C50.1932 39.4407 46.3525 43.75 41.6147 43.75C36.877 43.75 33.0363 39.4407 33.0363 34.125C33.0363 28.8093 36.877 24.5 41.6147 24.5C46.3525 24.5 50.1932 28.8093 50.1932 34.125Z" fill="white"/>
<path d="M65.3892 42.375C65.3892 47.6907 55.8424 52 44.0657 52C32.2891 52 22.7422 47.6907 22.7422 42.375C22.7422 37.0593 32.2891 32.75 44.0657 32.75C55.8424 32.75 65.3892 37.0593 65.3892 42.375Z" fill="white"/>
<path d="M38 48.8289C38 51.938 35.1262 54.4585 31.5811 54.4585C28.036 54.4585 25.1622 51.938 25.1622 48.8289C25.1622 45.7197 28.036 43.1992 31.5811 43.1992C35.1262 43.1992 38 45.7197 38 48.8289Z" fill="#F2F2F2"/>
<path d="M23.1351 48.8289C23.1351 51.2835 20.8663 53.2733 18.0676 53.2733C15.2688 53.2733 13 51.2835 13 48.8289C13 46.3743 15.2688 44.3844 18.0676 44.3844C20.8663 44.3844 23.1351 46.3743 23.1351 48.8289Z" fill="#F2F2F2"/>
<path d="M33.2703 45.8659C33.2703 49.9569 29.4889 53.2733 24.8243 53.2733C20.1598 53.2733 16.3784 49.9569 16.3784 45.8659C16.3784 41.7749 20.1598 38.4585 24.8243 38.4585C29.4889 38.4585 33.2703 41.7749 33.2703 45.8659Z" fill="#F2F2F2"/>
<path d="M49.0283 50.2019C49.0283 53.3111 52.247 55.8315 56.2175 55.8315C60.188 55.8315 63.4067 53.3111 63.4067 50.2019C63.4067 47.0928 60.188 44.5723 56.2175 44.5723C52.247 44.5723 49.0283 47.0928 49.0283 50.2019Z" fill="white"/>
<path d="M65.677 50.2019C65.677 52.6565 68.2181 54.6464 71.3526 54.6464C74.4872 54.6464 77.0283 52.6565 77.0283 50.2019C77.0283 47.7473 74.4872 45.7575 71.3526 45.7575C68.2181 45.7575 65.677 47.7473 65.677 50.2019Z" fill="white"/>
<path d="M54.3256 47.2389C54.3256 51.3299 58.5608 54.6464 63.7851 54.6464C69.0094 54.6464 73.2445 51.3299 73.2445 47.239C73.2445 43.148 69.0094 39.8315 63.7851 39.8315C58.5608 39.8315 54.3256 43.148 54.3256 47.2389Z" fill="white"/>
<path d="M74.8794 40.75C74.8794 48.3439 69.3927 54.5 62.6245 54.5C55.8563 54.5 50.3696 48.3439 50.3696 40.75C50.3696 33.1561 55.8563 27 62.6245 27C69.3927 27 74.8794 33.1561 74.8794 40.75Z" fill="#CFCFCF"/>
<path d="M81.7422 48.175C81.7422 53.4907 77.9015 57.8 73.1638 57.8C68.426 57.8 64.5853 53.4907 64.5853 48.175C64.5853 42.8593 68.426 38.55 73.1638 38.55C77.9015 38.55 81.7422 42.8593 81.7422 48.175Z" fill="#CFCFCF"/>
<path d="M59.1932 42.125C59.1932 47.4407 55.3525 51.75 50.6147 51.75C45.877 51.75 42.0363 47.4407 42.0363 42.125C42.0363 36.8093 45.877 32.5 50.6147 32.5C55.3525 32.5 59.1932 36.8093 59.1932 42.125Z" fill="#CFCFCF"/>
<path d="M74.3892 50.375C74.3892 55.6907 64.8424 60 53.0657 60C41.2891 60 31.7422 55.6907 31.7422 50.375C31.7422 45.0593 41.2891 40.75 53.0657 40.75C64.8424 40.75 74.3892 45.0593 74.3892 50.375Z" fill="#CFCFCF"/>
<path d="M47 56.8289C47 59.938 44.1262 62.4585 40.5811 62.4585C37.036 62.4585 34.1622 59.938 34.1622 56.8289C34.1622 53.7197 37.036 51.1992 40.5811 51.1992C44.1262 51.1992 47 53.7197 47 56.8289Z" fill="#CFCFCF"/>
<path d="M32.1351 56.8289C32.1351 59.2835 29.8663 61.2733 27.0676 61.2733C24.2688 61.2733 22 59.2835 22 56.8289C22 54.3743 24.2688 52.3844 27.0676 52.3844C29.8663 52.3844 32.1351 54.3743 32.1351 56.8289Z" fill="#CFCFCF"/>
<path d="M42.2703 53.8659C42.2703 57.9569 38.4889 61.2733 33.8243 61.2733C29.1598 61.2733 25.3784 57.9569 25.3784 53.8659C25.3784 49.7749 29.1598 46.4585 33.8243 46.4585C38.4889 46.4585 42.2703 49.7749 42.2703 53.8659Z" fill="#CFCFCF"/>
<path d="M58.0283 58.2019C58.0283 61.3111 61.247 63.8315 65.2175 63.8315C69.188 63.8315 72.4067 61.3111 72.4067 58.2019C72.4067 55.0928 69.188 52.5723 65.2175 52.5723C61.247 52.5723 58.0283 55.0928 58.0283 58.2019Z" fill="#BFBFBF"/>
<path d="M74.677 58.2019C74.677 60.6565 77.2181 62.6464 80.3526 62.6464C83.4872 62.6464 86.0283 60.6565 86.0283 58.2019C86.0283 55.7473 83.4872 53.7575 80.3526 53.7575C77.2181 53.7575 74.677 55.7473 74.677 58.2019Z" fill="#BFBFBF"/>
<path d="M63.3256 55.2389C63.3256 59.3299 67.5608 62.6464 72.7851 62.6464C78.0094 62.6464 82.2445 59.3299 82.2445 55.239C82.2445 51.148 78.0094 47.8315 72.7851 47.8315C67.5608 47.8315 63.3256 51.148 63.3256 55.2389Z" fill="#BFBFBF"/>
<path d="M25.6938 60.222L25.3471 64.0511L24.0795 63.7114L25.6938 60.222Z" fill="#BAEEFF"/>
<ellipse cx="24.3858" cy="65.1006" rx="0.757661" ry="2.52554" transform="rotate(15 24.3858 65.1006)" fill="#BAEEFF"/>
<path d="M32.9057 60.1964L32.559 64.0254L31.2914 63.6858L32.9057 60.1964Z" fill="#BAEEFF"/>
<ellipse cx="31.5977" cy="65.075" rx="0.757661" ry="2.52554" transform="rotate(15 31.5977 65.075)" fill="#BAEEFF"/>
<path d="M39.6938 60.222L39.3471 64.0511L38.0795 63.7114L39.6938 60.222Z" fill="#BAEEFF"/>
<ellipse cx="38.3858" cy="65.1006" rx="0.757661" ry="2.52554" transform="rotate(15 38.3858 65.1006)" fill="#BAEEFF"/>
<path d="M46.9057 60.1964L46.559 64.0254L45.2914 63.6858L46.9057 60.1964Z" fill="#BAEEFF"/>
<ellipse cx="45.5977" cy="65.075" rx="0.757661" ry="2.52554" transform="rotate(15 45.5977 65.075)" fill="#BAEEFF"/>
<path d="M56.6938 63.222L56.3471 67.0511L55.0795 66.7114L56.6938 63.222Z" fill="#BAEEFF"/>
<ellipse cx="55.3858" cy="68.1006" rx="0.757661" ry="2.52554" transform="rotate(15 55.3858 68.1006)" fill="#BAEEFF"/>
<path d="M63.9057 63.1964L63.559 67.0254L62.2914 66.6858L63.9057 63.1964Z" fill="#BAEEFF"/>
<ellipse cx="62.5977" cy="68.075" rx="0.757661" ry="2.52554" transform="rotate(15 62.5977 68.075)" fill="#BAEEFF"/>
<path d="M70.6938 63.222L70.3471 67.0511L69.0795 66.7114L70.6938 63.222Z" fill="#BAEEFF"/>
<ellipse cx="69.3858" cy="68.1006" rx="0.757661" ry="2.52554" transform="rotate(15 69.3858 68.1006)" fill="#BAEEFF"/>
<path d="M77.9057 63.1964L77.559 67.0254L76.2914 66.6858L77.9057 63.1964Z" fill="#BAEEFF"/>
<ellipse cx="76.5977" cy="68.075" rx="0.757661" ry="2.52554" transform="rotate(15 76.5977 68.075)" fill="#BAEEFF"/>
<path d="M34.6938 73.222L34.3471 77.0511L33.0795 76.7114L34.6938 73.222Z" fill="#BAEEFF"/>
<ellipse cx="33.3858" cy="78.1006" rx="0.757661" ry="2.52554" transform="rotate(15 33.3858 78.1006)" fill="#BAEEFF"/>
<path d="M41.9057 73.1964L41.559 77.0254L40.2914 76.6858L41.9057 73.1964Z" fill="#BAEEFF"/>
<ellipse cx="40.5977" cy="78.075" rx="0.757661" ry="2.52554" transform="rotate(15 40.5977 78.075)" fill="#BAEEFF"/>
<path d="M48.6938 73.222L48.3471 77.0511L47.0795 76.7114L48.6938 73.222Z" fill="#BAEEFF"/>
<ellipse cx="47.3858" cy="78.1006" rx="0.757661" ry="2.52554" transform="rotate(15 47.3858 78.1006)" fill="#BAEEFF"/>
<path d="M55.9057 73.1964L55.559 77.0254L54.2914 76.6858L55.9057 73.1964Z" fill="#BAEEFF"/>
<ellipse cx="54.5977" cy="78.075" rx="0.757661" ry="2.52554" transform="rotate(15 54.5977 78.075)" fill="#BAEEFF"/>
</svg>
