<svg width="75" height="66" viewBox="0 0 75 66" fill="none" xmlns="http://www.w3.org/2000/svg">
<g filter="url(#filter0_d_207_680)">
<path fill-rule="evenodd" clip-rule="evenodd" d="M49.8832 29.9843C47.6769 30.8672 45.2687 31.3529 42.747 31.3529C32.134 31.3529 23.5304 22.7493 23.5304 12.1363C23.5304 9.61457 24.0161 7.20634 24.8991 5C17.3774 7.71068 12 14.9105 12 23.3663C12 34.1452 20.738 42.8832 31.5169 42.8832C39.9727 42.8832 47.1724 37.5058 49.8832 29.9843Z" fill="#FFFBDA"/>
</g>
<g filter="url(#filter1_di_207_680)">
<path d="M57.8794 26.75C57.8794 34.3439 52.3927 40.5 45.6245 40.5C38.8563 40.5 33.3696 34.3439 33.3696 26.75C33.3696 19.1561 38.8563 13 45.6245 13C52.3927 13 57.8794 19.1561 57.8794 26.75Z" fill="#CFCFCF"/>
<path d="M64.7422 34.175C64.7422 39.4907 60.9015 43.8 56.1638 43.8C51.426 43.8 47.5853 39.4907 47.5853 34.175C47.5853 28.8593 51.426 24.55 56.1638 24.55C60.9015 24.55 64.7422 28.8593 64.7422 34.175Z" fill="#CFCFCF"/>
<path d="M42.1932 28.125C42.1932 33.4407 38.3525 37.75 33.6147 37.75C28.877 37.75 25.0363 33.4407 25.0363 28.125C25.0363 22.8093 28.877 18.5 33.6147 18.5C38.3525 18.5 42.1932 22.8093 42.1932 28.125Z" fill="#CFCFCF"/>
<path d="M57.3892 36.375C57.3892 41.6907 47.8424 46 36.0657 46C24.2891 46 14.7422 41.6907 14.7422 36.375C14.7422 31.0593 24.2891 26.75 36.0657 26.75C47.8424 26.75 57.3892 31.0593 57.3892 36.375Z" fill="#CFCFCF"/>
</g>
<g filter="url(#filter2_di_207_680)">
<path d="M30 42.8289C30 45.938 27.1262 48.4585 23.5811 48.4585C20.036 48.4585 17.1622 45.938 17.1622 42.8289C17.1622 39.7197 20.036 37.1992 23.5811 37.1992C27.1262 37.1992 30 39.7197 30 42.8289Z" fill="#CFCFCF"/>
<path d="M15.1351 42.8289C15.1351 45.2835 12.8663 47.2733 10.0676 47.2733C7.26883 47.2733 5 45.2835 5 42.8289C5 40.3743 7.26883 38.3844 10.0676 38.3844C12.8663 38.3844 15.1351 40.3743 15.1351 42.8289Z" fill="#CFCFCF"/>
<path d="M25.2703 39.8659C25.2703 43.9569 21.4889 47.2733 16.8243 47.2733C12.1598 47.2733 8.37838 43.9569 8.37838 39.8659C8.37838 35.7749 12.1598 32.4585 16.8243 32.4585C21.4889 32.4585 25.2703 35.7749 25.2703 39.8659Z" fill="#CFCFCF"/>
</g>
<g filter="url(#filter3_di_207_680)">
<path d="M41.0283 44.2019C41.0283 47.3111 44.247 49.8315 48.2175 49.8315C52.188 49.8315 55.4067 47.3111 55.4067 44.2019C55.4067 41.0928 52.188 38.5723 48.2175 38.5723C44.247 38.5723 41.0283 41.0928 41.0283 44.2019Z" fill="#CFCFCF"/>
<path d="M57.677 44.2019C57.677 46.6565 60.2181 48.6464 63.3526 48.6464C66.4872 48.6464 69.0283 46.6565 69.0283 44.2019C69.0283 41.7473 66.4872 39.7575 63.3526 39.7575C60.2181 39.7575 57.677 41.7473 57.677 44.2019Z" fill="#CFCFCF"/>
<path d="M46.3256 41.2389C46.3256 45.3299 50.5608 48.6464 55.7851 48.6464C61.0094 48.6464 65.2445 45.3299 65.2445 41.239C65.2445 37.148 61.0094 33.8315 55.7851 33.8315C50.5608 33.8315 46.3256 37.148 46.3256 41.2389Z" fill="#CFCFCF"/>
</g>
<g filter="url(#filter4_i_207_680)">
<path d="M11.6938 45.222L11.3471 49.0511L10.0795 48.7114L11.6938 45.222Z" fill="#BAEEFF"/>
<ellipse cx="10.3858" cy="50.1006" rx="0.757661" ry="2.52554" transform="rotate(15 10.3858 50.1006)" fill="#BAEEFF"/>
<path d="M18.9057 45.1964L18.559 49.0254L17.2914 48.6858L18.9057 45.1964Z" fill="#BAEEFF"/>
<ellipse cx="17.5977" cy="50.075" rx="0.757661" ry="2.52554" transform="rotate(15 17.5977 50.075)" fill="#BAEEFF"/>
</g>
<g filter="url(#filter5_i_207_680)">
<path d="M25.6938 45.222L25.3471 49.0511L24.0795 48.7114L25.6938 45.222Z" fill="#BAEEFF"/>
<ellipse cx="24.3858" cy="50.1006" rx="0.757661" ry="2.52554" transform="rotate(15 24.3858 50.1006)" fill="#BAEEFF"/>
<path d="M32.9057 45.1964L32.559 49.0254L31.2914 48.6858L32.9057 45.1964Z" fill="#BAEEFF"/>
<ellipse cx="31.5977" cy="50.075" rx="0.757661" ry="2.52554" transform="rotate(15 31.5977 50.075)" fill="#BAEEFF"/>
</g>
<g filter="url(#filter6_i_207_680)">
<path d="M42.6938 48.222L42.3471 52.0511L41.0795 51.7114L42.6938 48.222Z" fill="#BAEEFF"/>
<ellipse cx="41.3858" cy="53.1006" rx="0.757661" ry="2.52554" transform="rotate(15 41.3858 53.1006)" fill="#BAEEFF"/>
<path d="M49.9057 48.1964L49.559 52.0254L48.2914 51.6858L49.9057 48.1964Z" fill="#BAEEFF"/>
<ellipse cx="48.5977" cy="53.075" rx="0.757661" ry="2.52554" transform="rotate(15 48.5977 53.075)" fill="#BAEEFF"/>
</g>
<g filter="url(#filter7_i_207_680)">
<path d="M56.6938 48.222L56.3471 52.0511L55.0795 51.7114L56.6938 48.222Z" fill="#BAEEFF"/>
<ellipse cx="55.3858" cy="53.1006" rx="0.757661" ry="2.52554" transform="rotate(15 55.3858 53.1006)" fill="#BAEEFF"/>
<path d="M63.9057 48.1964L63.559 52.0254L62.2914 51.6858L63.9057 48.1964Z" fill="#BAEEFF"/>
<ellipse cx="62.5977" cy="53.075" rx="0.757661" ry="2.52554" transform="rotate(15 62.5977 53.075)" fill="#BAEEFF"/>
</g>
<g filter="url(#filter8_i_207_680)">
<path d="M20.6938 58.222L20.3471 62.0511L19.0795 61.7114L20.6938 58.222Z" fill="#BAEEFF"/>
<ellipse cx="19.3858" cy="63.1006" rx="0.757661" ry="2.52554" transform="rotate(15 19.3858 63.1006)" fill="#BAEEFF"/>
<path d="M27.9057 58.1964L27.559 62.0254L26.2914 61.6858L27.9057 58.1964Z" fill="#BAEEFF"/>
<ellipse cx="26.5977" cy="63.075" rx="0.757661" ry="2.52554" transform="rotate(15 26.5977 63.075)" fill="#BAEEFF"/>
</g>
<g filter="url(#filter9_i_207_680)">
<path d="M34.6938 58.222L34.3471 62.0511L33.0795 61.7114L34.6938 58.222Z" fill="#BAEEFF"/>
<ellipse cx="33.3858" cy="63.1006" rx="0.757661" ry="2.52554" transform="rotate(15 33.3858 63.1006)" fill="#BAEEFF"/>
<path d="M41.9057 58.1964L41.559 62.0254L40.2914 61.6858L41.9057 58.1964Z" fill="#BAEEFF"/>
<ellipse cx="40.5977" cy="63.075" rx="0.757661" ry="2.52554" transform="rotate(15 40.5977 63.075)" fill="#BAEEFF"/>
</g>
<defs>
<filter id="filter0_d_207_680" x="7" y="0" width="47.8828" height="47.8832" filterUnits="userSpaceOnUse" color-interpolation-filters="sRGB">
<feFlood flood-opacity="0" result="BackgroundImageFix"/>
<feColorMatrix in="SourceAlpha" type="matrix" values="0 0 0 0 0 0 0 0 0 0 0 0 0 0 0 0 0 0 127 0" result="hardAlpha"/>
<feOffset/>
<feGaussianBlur stdDeviation="2.5"/>
<feComposite in2="hardAlpha" operator="out"/>
<feColorMatrix type="matrix" values="0 0 0 0 1 0 0 0 0 1 0 0 0 0 1 0 0 0 1 0"/>
<feBlend mode="normal" in2="BackgroundImageFix" result="effect1_dropShadow_207_680"/>
<feBlend mode="normal" in="SourceGraphic" in2="effect1_dropShadow_207_680" result="shape"/>
</filter>
<filter id="filter1_di_207_680" x="9.74219" y="8" width="60" height="45" filterUnits="userSpaceOnUse" color-interpolation-filters="sRGB">
<feFlood flood-opacity="0" result="BackgroundImageFix"/>
<feColorMatrix in="SourceAlpha" type="matrix" values="0 0 0 0 0 0 0 0 0 0 0 0 0 0 0 0 0 0 127 0" result="hardAlpha"/>
<feOffset dy="2"/>
<feGaussianBlur stdDeviation="2.5"/>
<feComposite in2="hardAlpha" operator="out"/>
<feColorMatrix type="matrix" values="0 0 0 0 0 0 0 0 0 0 0 0 0 0 0 0 0 0 0.25 0"/>
<feBlend mode="normal" in2="BackgroundImageFix" result="effect1_dropShadow_207_680"/>
<feBlend mode="normal" in="SourceGraphic" in2="effect1_dropShadow_207_680" result="shape"/>
<feColorMatrix in="SourceAlpha" type="matrix" values="0 0 0 0 0 0 0 0 0 0 0 0 0 0 0 0 0 0 127 0" result="hardAlpha"/>
<feOffset dy="-5"/>
<feGaussianBlur stdDeviation="5"/>
<feComposite in2="hardAlpha" operator="arithmetic" k2="-1" k3="1"/>
<feColorMatrix type="matrix" values="0 0 0 0 0 0 0 0 0 0 0 0 0 0 0 0 0 0 0.5 0"/>
<feBlend mode="normal" in2="shape" result="effect2_innerShadow_207_680"/>
</filter>
<filter id="filter2_di_207_680" x="0" y="27.4585" width="35" height="26" filterUnits="userSpaceOnUse" color-interpolation-filters="sRGB">
<feFlood flood-opacity="0" result="BackgroundImageFix"/>
<feColorMatrix in="SourceAlpha" type="matrix" values="0 0 0 0 0 0 0 0 0 0 0 0 0 0 0 0 0 0 127 0" result="hardAlpha"/>
<feOffset/>
<feGaussianBlur stdDeviation="2.5"/>
<feComposite in2="hardAlpha" operator="out"/>
<feColorMatrix type="matrix" values="0 0 0 0 0 0 0 0 0 0 0 0 0 0 0 0 0 0 0.25 0"/>
<feBlend mode="normal" in2="BackgroundImageFix" result="effect1_dropShadow_207_680"/>
<feBlend mode="normal" in="SourceGraphic" in2="effect1_dropShadow_207_680" result="shape"/>
<feColorMatrix in="SourceAlpha" type="matrix" values="0 0 0 0 0 0 0 0 0 0 0 0 0 0 0 0 0 0 127 0" result="hardAlpha"/>
<feOffset dy="-2.75"/>
<feGaussianBlur stdDeviation="2.5"/>
<feComposite in2="hardAlpha" operator="arithmetic" k2="-1" k3="1"/>
<feColorMatrix type="matrix" values="0 0 0 0 0 0 0 0 0 0 0 0 0 0 0 0 0 0 0.5 0"/>
<feBlend mode="normal" in2="shape" result="effect2_innerShadow_207_680"/>
</filter>
<filter id="filter3_di_207_680" x="36.0283" y="28.8315" width="38" height="26" filterUnits="userSpaceOnUse" color-interpolation-filters="sRGB">
<feFlood flood-opacity="0" result="BackgroundImageFix"/>
<feColorMatrix in="SourceAlpha" type="matrix" values="0 0 0 0 0 0 0 0 0 0 0 0 0 0 0 0 0 0 127 0" result="hardAlpha"/>
<feOffset/>
<feGaussianBlur stdDeviation="2.5"/>
<feComposite in2="hardAlpha" operator="out"/>
<feColorMatrix type="matrix" values="0 0 0 0 0 0 0 0 0 0 0 0 0 0 0 0 0 0 0.25 0"/>
<feBlend mode="normal" in2="BackgroundImageFix" result="effect1_dropShadow_207_680"/>
<feBlend mode="normal" in="SourceGraphic" in2="effect1_dropShadow_207_680" result="shape"/>
<feColorMatrix in="SourceAlpha" type="matrix" values="0 0 0 0 0 0 0 0 0 0 0 0 0 0 0 0 0 0 127 0" result="hardAlpha"/>
<feOffset dy="-2.75"/>
<feGaussianBlur stdDeviation="2.5"/>
<feComposite in2="hardAlpha" operator="arithmetic" k2="-1" k3="1"/>
<feColorMatrix type="matrix" values="0 0 0 0 0 0 0 0 0 0 0 0 0 0 0 0 0 0 0.5 0"/>
<feBlend mode="normal" in2="shape" result="effect2_innerShadow_207_680"/>
</filter>
<filter id="filter4_i_207_680" x="9.4043" y="44.8964" width="9.50098" height="7.65168" filterUnits="userSpaceOnUse" color-interpolation-filters="sRGB">
<feFlood flood-opacity="0" result="BackgroundImageFix"/>
<feBlend mode="normal" in="SourceGraphic" in2="BackgroundImageFix" result="shape"/>
<feColorMatrix in="SourceAlpha" type="matrix" values="0 0 0 0 0 0 0 0 0 0 0 0 0 0 0 0 0 0 127 0" result="hardAlpha"/>
<feOffset dy="-0.3"/>
<feGaussianBlur stdDeviation="0.15"/>
<feComposite in2="hardAlpha" operator="arithmetic" k2="-1" k3="1"/>
<feColorMatrix type="matrix" values="0 0 0 0 0 0 0 0 0 0 0 0 0 0 0 0 0 0 0.25 0"/>
<feBlend mode="normal" in2="shape" result="effect1_innerShadow_207_680"/>
</filter>
<filter id="filter5_i_207_680" x="23.4043" y="44.8964" width="9.50098" height="7.65168" filterUnits="userSpaceOnUse" color-interpolation-filters="sRGB">
<feFlood flood-opacity="0" result="BackgroundImageFix"/>
<feBlend mode="normal" in="SourceGraphic" in2="BackgroundImageFix" result="shape"/>
<feColorMatrix in="SourceAlpha" type="matrix" values="0 0 0 0 0 0 0 0 0 0 0 0 0 0 0 0 0 0 127 0" result="hardAlpha"/>
<feOffset dy="-0.3"/>
<feGaussianBlur stdDeviation="0.15"/>
<feComposite in2="hardAlpha" operator="arithmetic" k2="-1" k3="1"/>
<feColorMatrix type="matrix" values="0 0 0 0 0 0 0 0 0 0 0 0 0 0 0 0 0 0 0.25 0"/>
<feBlend mode="normal" in2="shape" result="effect1_innerShadow_207_680"/>
</filter>
<filter id="filter6_i_207_680" x="40.4043" y="47.8964" width="9.50098" height="7.65168" filterUnits="userSpaceOnUse" color-interpolation-filters="sRGB">
<feFlood flood-opacity="0" result="BackgroundImageFix"/>
<feBlend mode="normal" in="SourceGraphic" in2="BackgroundImageFix" result="shape"/>
<feColorMatrix in="SourceAlpha" type="matrix" values="0 0 0 0 0 0 0 0 0 0 0 0 0 0 0 0 0 0 127 0" result="hardAlpha"/>
<feOffset dy="-0.3"/>
<feGaussianBlur stdDeviation="0.15"/>
<feComposite in2="hardAlpha" operator="arithmetic" k2="-1" k3="1"/>
<feColorMatrix type="matrix" values="0 0 0 0 0 0 0 0 0 0 0 0 0 0 0 0 0 0 0.25 0"/>
<feBlend mode="normal" in2="shape" result="effect1_innerShadow_207_680"/>
</filter>
<filter id="filter7_i_207_680" x="54.4043" y="47.8964" width="9.50098" height="7.65168" filterUnits="userSpaceOnUse" color-interpolation-filters="sRGB">
<feFlood flood-opacity="0" result="BackgroundImageFix"/>
<feBlend mode="normal" in="SourceGraphic" in2="BackgroundImageFix" result="shape"/>
<feColorMatrix in="SourceAlpha" type="matrix" values="0 0 0 0 0 0 0 0 0 0 0 0 0 0 0 0 0 0 127 0" result="hardAlpha"/>
<feOffset dy="-0.3"/>
<feGaussianBlur stdDeviation="0.15"/>
<feComposite in2="hardAlpha" operator="arithmetic" k2="-1" k3="1"/>
<feColorMatrix type="matrix" values="0 0 0 0 0 0 0 0 0 0 0 0 0 0 0 0 0 0 0.25 0"/>
<feBlend mode="normal" in2="shape" result="effect1_innerShadow_207_680"/>
</filter>
<filter id="filter8_i_207_680" x="18.4043" y="57.8964" width="9.50098" height="7.65168" filterUnits="userSpaceOnUse" color-interpolation-filters="sRGB">
<feFlood flood-opacity="0" result="BackgroundImageFix"/>
<feBlend mode="normal" in="SourceGraphic" in2="BackgroundImageFix" result="shape"/>
<feColorMatrix in="SourceAlpha" type="matrix" values="0 0 0 0 0 0 0 0 0 0 0 0 0 0 0 0 0 0 127 0" result="hardAlpha"/>
<feOffset dy="-0.3"/>
<feGaussianBlur stdDeviation="0.15"/>
<feComposite in2="hardAlpha" operator="arithmetic" k2="-1" k3="1"/>
<feColorMatrix type="matrix" values="0 0 0 0 0 0 0 0 0 0 0 0 0 0 0 0 0 0 0.25 0"/>
<feBlend mode="normal" in2="shape" result="effect1_innerShadow_207_680"/>
</filter>
<filter id="filter9_i_207_680" x="32.4043" y="57.8964" width="9.50098" height="7.65168" filterUnits="userSpaceOnUse" color-interpolation-filters="sRGB">
<feFlood flood-opacity="0" result="BackgroundImageFix"/>
<feBlend mode="normal" in="SourceGraphic" in2="BackgroundImageFix" result="shape"/>
<feColorMatrix in="SourceAlpha" type="matrix" values="0 0 0 0 0 0 0 0 0 0 0 0 0 0 0 0 0 0 127 0" result="hardAlpha"/>
<feOffset dy="-0.3"/>
<feGaussianBlur stdDeviation="0.15"/>
<feComposite in2="hardAlpha" operator="arithmetic" k2="-1" k3="1"/>
<feColorMatrix type="matrix" values="0 0 0 0 0 0 0 0 0 0 0 0 0 0 0 0 0 0 0.25 0"/>
<feBlend mode="normal" in2="shape" result="effect1_innerShadow_207_680"/>
</filter>
</defs>
</svg>
