<svg width="100" height="100" viewBox="0 0 100 100" fill="none" xmlns="http://www.w3.org/2000/svg">
<path fill-rule="evenodd" clip-rule="evenodd" d="M62.8832 44.9843C60.6769 45.8672 58.2687 46.3529 55.747 46.3529C45.134 46.3529 36.5304 37.7493 36.5304 27.1362C36.5304 24.6146 37.0161 22.2063 37.8991 20C30.3774 22.7107 25 29.9105 25 38.3663C25 49.1452 33.738 57.8832 44.5169 57.8832C52.9727 57.8832 60.1724 52.5058 62.8832 44.9843Z" fill="#FFFBDA"/>
<path d="M24.6938 60.222L24.3471 64.0511L23.0795 63.7114L24.6938 60.222Z" fill="#BAEEFF"/>
<ellipse cx="23.3858" cy="65.1006" rx="0.757661" ry="2.52554" transform="rotate(15 23.3858 65.1006)" fill="#BAEEFF"/>
<path d="M31.9057 60.1964L31.559 64.0254L30.2914 63.6858L31.9057 60.1964Z" fill="#BAEEFF"/>
<ellipse cx="30.5977" cy="65.075" rx="0.757661" ry="2.52554" transform="rotate(15 30.5977 65.075)" fill="#BAEEFF"/>
<path d="M38.6938 60.222L38.3471 64.0511L37.0795 63.7114L38.6938 60.222Z" fill="#BAEEFF"/>
<ellipse cx="37.3858" cy="65.1006" rx="0.757661" ry="2.52554" transform="rotate(15 37.3858 65.1006)" fill="#BAEEFF"/>
<path d="M45.9057 60.1964L45.559 64.0254L44.2914 63.6858L45.9057 60.1964Z" fill="#BAEEFF"/>
<ellipse cx="44.5977" cy="65.075" rx="0.757661" ry="2.52554" transform="rotate(15 44.5977 65.075)" fill="#BAEEFF"/>
<path d="M55.6938 63.222L55.3471 67.0511L54.0795 66.7114L55.6938 63.222Z" fill="#BAEEFF"/>
<ellipse cx="54.3858" cy="68.1006" rx="0.757661" ry="2.52554" transform="rotate(15 54.3858 68.1006)" fill="#BAEEFF"/>
<path d="M62.9057 63.1964L62.559 67.0254L61.2914 66.6858L62.9057 63.1964Z" fill="#BAEEFF"/>
<ellipse cx="61.5977" cy="68.075" rx="0.757661" ry="2.52554" transform="rotate(15 61.5977 68.075)" fill="#BAEEFF"/>
<path d="M69.6938 63.222L69.3471 67.0511L68.0795 66.7114L69.6938 63.222Z" fill="#BAEEFF"/>
<ellipse cx="68.3858" cy="68.1006" rx="0.757661" ry="2.52554" transform="rotate(15 68.3858 68.1006)" fill="#BAEEFF"/>
<path d="M76.9057 63.1964L76.559 67.0254L75.2914 66.6858L76.9057 63.1964Z" fill="#BAEEFF"/>
<ellipse cx="75.5977" cy="68.075" rx="0.757661" ry="2.52554" transform="rotate(15 75.5977 68.075)" fill="#BAEEFF"/>
<path d="M33.6938 73.222L33.3471 77.0511L32.0795 76.7114L33.6938 73.222Z" fill="#BAEEFF"/>
<ellipse cx="32.3858" cy="78.1006" rx="0.757661" ry="2.52554" transform="rotate(15 32.3858 78.1006)" fill="#BAEEFF"/>
<path d="M40.9057 73.1964L40.559 77.0254L39.2914 76.6858L40.9057 73.1964Z" fill="#BAEEFF"/>
<ellipse cx="39.5977" cy="78.075" rx="0.757661" ry="2.52554" transform="rotate(15 39.5977 78.075)" fill="#BAEEFF"/>
<path d="M47.6938 73.222L47.3471 77.0511L46.0795 76.7114L47.6938 73.222Z" fill="#BAEEFF"/>
<ellipse cx="46.3858" cy="78.1006" rx="0.757661" ry="2.52554" transform="rotate(15 46.3858 78.1006)" fill="#BAEEFF"/>
<path d="M54.9057 73.1964L54.559 77.0254L53.2914 76.6858L54.9057 73.1964Z" fill="#BAEEFF"/>
<ellipse cx="53.5977" cy="78.075" rx="0.757661" ry="2.52554" transform="rotate(15 53.5977 78.075)" fill="#BAEEFF"/>
<path d="M70.8794 41.75C70.8794 49.3439 65.3927 55.5 58.6245 55.5C51.8563 55.5 46.3696 49.3439 46.3696 41.75C46.3696 34.1561 51.8563 28 58.6245 28C65.3927 28 70.8794 34.1561 70.8794 41.75Z" fill="#CFCFCF"/>
<path d="M77.7422 49.175C77.7422 54.4907 73.9015 58.8 69.1638 58.8C64.426 58.8 60.5853 54.4907 60.5853 49.175C60.5853 43.8593 64.426 39.55 69.1638 39.55C73.9015 39.55 77.7422 43.8593 77.7422 49.175Z" fill="#CFCFCF"/>
<path d="M55.1932 43.125C55.1932 48.4407 51.3525 52.75 46.6147 52.75C41.877 52.75 38.0363 48.4407 38.0363 43.125C38.0363 37.8093 41.877 33.5 46.6147 33.5C51.3525 33.5 55.1932 37.8093 55.1932 43.125Z" fill="#CFCFCF"/>
<path d="M70.3892 51.375C70.3892 56.6907 60.8424 61 49.0657 61C37.2891 61 27.7422 56.6907 27.7422 51.375C27.7422 46.0593 37.2891 41.75 49.0657 41.75C60.8424 41.75 70.3892 46.0593 70.3892 51.375Z" fill="#CFCFCF"/>
<path d="M43 57.8289C43 60.938 40.1262 63.4585 36.5811 63.4585C33.036 63.4585 30.1622 60.938 30.1622 57.8289C30.1622 54.7197 33.036 52.1992 36.5811 52.1992C40.1262 52.1992 43 54.7197 43 57.8289Z" fill="#CFCFCF"/>
<path d="M28.1351 57.8289C28.1351 60.2835 25.8663 62.2733 23.0676 62.2733C20.2688 62.2733 18 60.2835 18 57.8289C18 55.3743 20.2688 53.3844 23.0676 53.3844C25.8663 53.3844 28.1351 55.3743 28.1351 57.8289Z" fill="#CFCFCF"/>
<path d="M38.2703 54.8659C38.2703 58.9569 34.4889 62.2733 29.8243 62.2733C25.1598 62.2733 21.3784 58.9569 21.3784 54.8659C21.3784 50.7749 25.1598 47.4585 29.8243 47.4585C34.4889 47.4585 38.2703 50.7749 38.2703 54.8659Z" fill="#CFCFCF"/>
<path d="M54.0283 59.2019C54.0283 62.3111 57.247 64.8315 61.2175 64.8315C65.188 64.8315 68.4067 62.3111 68.4067 59.2019C68.4067 56.0928 65.188 53.5723 61.2175 53.5723C57.247 53.5723 54.0283 56.0928 54.0283 59.2019Z" fill="#BFBFBF"/>
<path d="M70.677 59.2019C70.677 61.6565 73.2181 63.6464 76.3526 63.6464C79.4872 63.6464 82.0283 61.6565 82.0283 59.2019C82.0283 56.7473 79.4872 54.7575 76.3526 54.7575C73.2181 54.7575 70.677 56.7473 70.677 59.2019Z" fill="#BFBFBF"/>
<path d="M59.3256 56.2389C59.3256 60.3299 63.5608 63.6464 68.7851 63.6464C74.0094 63.6464 78.2445 60.3299 78.2445 56.239C78.2445 52.148 74.0094 48.8315 68.7851 48.8315C63.5608 48.8315 59.3256 52.148 59.3256 56.2389Z" fill="#BFBFBF"/>
</svg>
