<svg width="75" height="64" viewBox="0 0 75 64" fill="none" xmlns="http://www.w3.org/2000/svg">
<g filter="url(#filter0_di_207_629)">
<path d="M57.8794 16.75C57.8794 24.3439 52.3927 30.5 45.6245 30.5C38.8563 30.5 33.3696 24.3439 33.3696 16.75C33.3696 9.15608 38.8563 3 45.6245 3C52.3927 3 57.8794 9.15608 57.8794 16.75Z" fill="#CFCFCF"/>
<path d="M64.7422 24.175C64.7422 29.4907 60.9015 33.8 56.1638 33.8C51.426 33.8 47.5853 29.4907 47.5853 24.175C47.5853 18.8593 51.426 14.55 56.1638 14.55C60.9015 14.55 64.7422 18.8593 64.7422 24.175Z" fill="#CFCFCF"/>
<path d="M42.1932 18.125C42.1932 23.4407 38.3525 27.75 33.6147 27.75C28.877 27.75 25.0363 23.4407 25.0363 18.125C25.0363 12.8093 28.877 8.5 33.6147 8.5C38.3525 8.5 42.1932 12.8093 42.1932 18.125Z" fill="#CFCFCF"/>
<path d="M57.3892 26.375C57.3892 31.6907 47.8424 36 36.0657 36C24.2891 36 14.7422 31.6907 14.7422 26.375C14.7422 21.0593 24.2891 16.75 36.0657 16.75C47.8424 16.75 57.3892 21.0593 57.3892 26.375Z" fill="#CFCFCF"/>
</g>
<g filter="url(#filter1_di_207_629)">
<path d="M30 32.8289C30 35.938 27.1262 38.4585 23.5811 38.4585C20.036 38.4585 17.1622 35.938 17.1622 32.8289C17.1622 29.7197 20.036 27.1992 23.5811 27.1992C27.1262 27.1992 30 29.7197 30 32.8289Z" fill="#CFCFCF"/>
<path d="M15.1351 32.8289C15.1351 35.2835 12.8663 37.2733 10.0676 37.2733C7.26883 37.2733 5 35.2835 5 32.8289C5 30.3743 7.26883 28.3844 10.0676 28.3844C12.8663 28.3844 15.1351 30.3743 15.1351 32.8289Z" fill="#CFCFCF"/>
<path d="M25.2703 29.8659C25.2703 33.9569 21.4889 37.2733 16.8243 37.2733C12.1598 37.2733 8.37838 33.9569 8.37838 29.8659C8.37838 25.7749 12.1598 22.4585 16.8243 22.4585C21.4889 22.4585 25.2703 25.7749 25.2703 29.8659Z" fill="#CFCFCF"/>
</g>
<g filter="url(#filter2_di_207_629)">
<path d="M41.0283 34.2019C41.0283 37.3111 44.247 39.8315 48.2175 39.8315C52.188 39.8315 55.4067 37.3111 55.4067 34.2019C55.4067 31.0928 52.188 28.5723 48.2175 28.5723C44.247 28.5723 41.0283 31.0928 41.0283 34.2019Z" fill="#CFCFCF"/>
<path d="M57.677 34.2019C57.677 36.6565 60.2181 38.6464 63.3526 38.6464C66.4872 38.6464 69.0283 36.6565 69.0283 34.2019C69.0283 31.7473 66.4872 29.7575 63.3526 29.7575C60.2181 29.7575 57.677 31.7473 57.677 34.2019Z" fill="#CFCFCF"/>
<path d="M46.3256 31.2389C46.3256 35.3299 50.5608 38.6464 55.7851 38.6464C61.0094 38.6464 65.2445 35.3299 65.2445 31.239C65.2445 27.148 61.0094 23.8315 55.7851 23.8315C50.5608 23.8315 46.3256 27.148 46.3256 31.2389Z" fill="#CFCFCF"/>
</g>
<g filter="url(#filter3_d_207_629)">
<path d="M17.6468 42.3712L16.717 42.8887L16.2371 42.6219L16.8589 42.2768C17.007 42.1973 16.699 41.6919 16.5509 41.7717L15.6211 42.2891L14.2195 41.5034L15.6293 40.7199L16.5591 41.2373C16.7072 41.3168 17.009 40.8113 16.8671 40.7322L16.2453 40.3871L16.7252 40.1203L17.655 40.6378C17.8032 40.7172 18.1049 40.2117 17.963 40.1327L17.3412 39.7876L17.6195 39.6343C17.7914 39.5376 17.4299 38.9415 17.2595 39.0381L16.9812 39.1914V38.4986C16.9812 38.3397 16.3711 38.3397 16.3711 38.4986V39.5264L15.8912 39.7932V39.1003C15.8912 38.9415 15.2811 38.9415 15.2811 39.1003V40.1229L13.8713 40.9065V39.3454L14.8011 38.8279C14.9492 38.7485 14.6413 38.243 14.4931 38.3228L13.8713 38.6679V38.1343L14.8011 37.6169C14.9492 37.5374 14.6413 37.0319 14.4931 37.1118L13.8713 37.4569V37.1447C13.8713 36.9518 13.1486 36.9518 13.1486 37.1447V37.4569L12.5147 37.1118C12.3666 37.0323 12.0648 37.5378 12.2067 37.6169L13.1365 38.1343V38.6623L12.5147 38.3172C12.3666 38.2378 12.0648 38.7432 12.2067 38.8223L13.1365 39.3398V40.8997L11.733 40.1233V39.0959C11.733 38.937 11.1229 38.937 11.1229 39.0959V39.7827L10.6429 39.5159V38.4881C10.6429 38.3292 10.0328 38.3292 10.0328 38.4881V39.1809L9.75457 39.0277C9.5826 38.931 9.22146 39.5328 9.3946 39.6238L9.67288 39.7771L9.0491 40.1233C8.90097 40.2027 9.20895 40.7082 9.35708 40.6284L10.2869 40.1109L10.7668 40.3777L10.1329 40.7303C9.98477 40.8098 10.2928 41.3153 10.4409 41.2355L11.3707 40.718L12.7805 41.5015L11.3707 42.2779L10.4409 41.7668C10.2928 41.6874 9.99103 42.1928 10.1329 42.2719L10.7547 42.617L10.2748 42.8838L9.34497 42.3663C9.19684 42.2869 8.89511 42.7924 9.03698 42.8714L9.65881 43.2166L9.38053 43.3698C9.20856 43.4665 9.57009 44.0626 9.7405 43.966L10.0188 43.8127V44.5056C10.0188 44.6644 10.6289 44.6644 10.6289 44.5056V43.4777L11.1088 43.2109V43.9038C11.1088 44.0626 11.7189 44.0626 11.7189 43.9038V42.8763L13.1287 42.0928V43.6602L12.1989 44.1777C12.0508 44.2571 12.3587 44.7626 12.5069 44.6828L13.1287 44.3377V44.8657L12.1989 45.3831C12.0508 45.4626 12.3587 45.9681 12.5069 45.8882L13.1287 45.5431V45.8553C13.1287 46.0482 13.8514 46.0482 13.8514 45.8553V45.5431L14.4732 45.8882C14.6213 45.9677 14.9231 45.4622 14.7812 45.3831L13.8514 44.8657V44.3377L14.4732 44.6828C14.6213 44.7622 14.9231 44.2567 14.7812 44.1777L13.8514 43.6602V42.0992L15.2611 42.8827V43.9101C15.2611 44.069 15.8712 44.069 15.8712 43.9101V43.2173L16.3512 43.4841V44.5119C16.3512 44.6708 16.9613 44.6708 16.9613 44.5119V43.8191L17.2396 43.9723C17.4115 44.069 17.7727 43.4672 17.5995 43.3762L17.3213 43.2229L17.9431 42.8778C18.0971 42.7972 17.7969 42.2914 17.6472 42.3708L17.6468 42.3712Z" fill="#D0F7FF"/>
</g>
<g filter="url(#filter4_d_207_629)">
<path d="M50.7253 58.1776L50.0021 58.5801L49.6288 58.3726L50.1125 58.1042C50.2277 58.0424 49.9881 57.6492 49.8729 57.7113L49.1497 58.1138L48.0596 57.5026L49.1561 56.8932L49.8793 57.2957C49.9945 57.3575 50.2292 56.9643 50.1189 56.9028L49.6352 56.6344L50.0085 56.4269L50.7317 56.8294C50.8469 56.8912 51.0816 56.498 50.9712 56.4365L50.4876 56.1681L50.704 56.0489C50.8378 55.9737 50.5566 55.51 50.4241 55.5852L50.2076 55.7044V55.1655C50.2076 55.042 49.7331 55.042 49.7331 55.1655V55.965L49.3598 56.1725V55.6336C49.3598 55.51 48.8853 55.51 48.8853 55.6336V56.429L47.7888 57.0384V55.8242L48.512 55.4217C48.6272 55.3599 48.3876 54.9668 48.2724 55.0289L47.7888 55.2973V54.8823L48.512 54.4798C48.6272 54.418 48.3876 54.0248 48.2724 54.0869L47.7888 54.3553V54.1126C47.7888 53.9625 47.2267 53.9625 47.2267 54.1126V54.3553L46.7336 54.0869C46.6184 54.0251 46.3838 54.4183 46.4941 54.4798L47.2173 54.8823V55.2929L46.7336 55.0245C46.6184 54.9627 46.3838 55.3559 46.4941 55.4174L47.2173 55.8198V57.0331L46.1257 56.4292V55.6301C46.1257 55.5065 45.6511 55.5065 45.6511 55.6301V56.1643L45.2778 55.9568V55.1574C45.2778 55.0338 44.8033 55.0338 44.8033 55.1574V55.6963L44.5869 55.5771C44.4531 55.5019 44.1722 55.9699 44.3069 56.0407L44.5234 56.1599L44.0382 56.4292C43.923 56.491 44.1625 56.8842 44.2777 56.8221L45.0009 56.4196L45.3742 56.6271L44.8811 56.9014C44.7659 56.9632 45.0055 57.3563 45.1207 57.2942L45.8439 56.8918L46.9404 57.5012L45.8439 58.105L45.1207 57.7075C45.0055 57.6457 44.7708 58.0389 44.8811 58.1004L45.3648 58.3688L44.9915 58.5763L44.2683 58.1738C44.1531 58.112 43.9184 58.5052 44.0288 58.5667L44.5124 58.8351L44.296 58.9543C44.1622 59.0295 44.4434 59.4932 44.5759 59.418L44.7924 59.2988V59.8377C44.7924 59.9612 45.2669 59.9612 45.2669 59.8377V59.0382L45.6402 58.8307V59.3696C45.6402 59.4932 46.1147 59.4932 46.1147 59.3696V58.5705L47.2112 57.9611V59.1802L46.488 59.5826C46.3728 59.6444 46.6124 60.0376 46.7276 59.9755L47.2112 59.7071V60.1177L46.488 60.5202C46.3728 60.582 46.6124 60.9752 46.7276 60.9131L47.2112 60.6447V60.8874C47.2112 61.0375 47.7733 61.0375 47.7733 60.8874V60.6447L48.2569 60.9131C48.3721 60.9749 48.6068 60.5817 48.4965 60.5202L47.7733 60.1177V59.7071L48.2569 59.9755C48.3721 60.0373 48.6068 59.6441 48.4965 59.5826L47.7733 59.1802V57.966L48.8698 58.5754V59.3746C48.8698 59.4981 49.3443 59.4981 49.3443 59.3746V58.8357L49.7176 59.0432V59.8426C49.7176 59.9662 50.1921 59.9662 50.1921 59.8426V59.3037L50.4086 59.4229C50.5423 59.4981 50.8232 59.0301 50.6885 58.9592L50.4721 58.8401L50.9557 58.5716C51.0755 58.509 50.842 58.1155 50.7256 58.1773L50.7253 58.1776Z" fill="#D0F7FF"/>
</g>
<g filter="url(#filter5_d_207_629)">
<path d="M65.6468 44.3712L64.717 44.8887L64.2371 44.6219L64.8589 44.2768C65.007 44.1973 64.699 43.6919 64.5509 43.7717L63.6211 44.2891L62.2195 43.5034L63.6293 42.7199L64.5591 43.2373C64.7072 43.3168 65.009 42.8113 64.8671 42.7322L64.2453 42.3871L64.7252 42.1203L65.655 42.6378C65.8032 42.7172 66.1049 42.2117 65.963 42.1327L65.3412 41.7876L65.6195 41.6343C65.7914 41.5376 65.4299 40.9415 65.2595 41.0381L64.9812 41.1914V40.4986C64.9812 40.3397 64.3711 40.3397 64.3711 40.4986V41.5264L63.8912 41.7932V41.1003C63.8912 40.9415 63.2811 40.9415 63.2811 41.1003V42.1229L61.8713 42.9065V41.3454L62.8011 40.8279C62.9492 40.7485 62.6413 40.243 62.4931 40.3228L61.8713 40.6679V40.1343L62.8011 39.6169C62.9492 39.5374 62.6413 39.0319 62.4931 39.1118L61.8713 39.4569V39.1447C61.8713 38.9518 61.1486 38.9518 61.1486 39.1447V39.4569L60.5147 39.1118C60.3666 39.0323 60.0648 39.5378 60.2067 39.6169L61.1365 40.1343V40.6623L60.5147 40.3172C60.3666 40.2378 60.0648 40.7432 60.2067 40.8223L61.1365 41.3398V42.8997L59.733 42.1233V41.0959C59.733 40.937 59.1229 40.937 59.1229 41.0959V41.7827L58.6429 41.5159V40.4881C58.6429 40.3292 58.0328 40.3292 58.0328 40.4881V41.1809L57.7546 41.0277C57.5826 40.931 57.2215 41.5328 57.3946 41.6238L57.6729 41.7771L57.0491 42.1233C56.901 42.2027 57.209 42.7082 57.3571 42.6284L58.2869 42.1109L58.7668 42.3777L58.1329 42.7303C57.9848 42.8098 58.2928 43.3153 58.4409 43.2355L59.3707 42.718L60.7805 43.5015L59.3707 44.2779L58.4409 43.7668C58.2928 43.6874 57.991 44.1928 58.1329 44.2719L58.7547 44.617L58.2748 44.8838L57.345 44.3663C57.1968 44.2869 56.8951 44.7924 57.037 44.8714L57.6588 45.2166L57.3805 45.3698C57.2086 45.4665 57.5701 46.0626 57.7405 45.966L58.0188 45.8127V46.5056C58.0188 46.6644 58.6289 46.6644 58.6289 46.5056V45.4777L59.1088 45.2109V45.9038C59.1088 46.0626 59.7189 46.0626 59.7189 45.9038V44.8763L61.1287 44.0928V45.6602L60.1989 46.1777C60.0508 46.2571 60.3587 46.7626 60.5069 46.6828L61.1287 46.3377V46.8657L60.1989 47.3831C60.0508 47.4626 60.3587 47.9681 60.5069 47.8882L61.1287 47.5431V47.8553C61.1287 48.0482 61.8514 48.0482 61.8514 47.8553V47.5431L62.4732 47.8882C62.6213 47.9677 62.9231 47.4622 62.7812 47.3831L61.8514 46.8657V46.3377L62.4732 46.6828C62.6213 46.7622 62.9231 46.2567 62.7812 46.1777L61.8514 45.6602V44.0992L63.2611 44.8827V45.9101C63.2611 46.069 63.8712 46.069 63.8712 45.9101V45.2173L64.3512 45.4841V46.5119C64.3512 46.6708 64.9613 46.6708 64.9613 46.5119V45.8191L65.2396 45.9723C65.4115 46.069 65.7727 45.4672 65.5995 45.3762L65.3213 45.2229L65.9431 44.8778C66.0971 44.7972 65.7969 44.2914 65.6472 44.3708L65.6468 44.3712Z" fill="#D0F7FF"/>
</g>
<g filter="url(#filter6_d_207_629)">
<path d="M38.7646 41.5808L38.1447 41.9258L37.8247 41.7479L38.2393 41.5179C38.338 41.4649 38.1327 41.1279 38.0339 41.1811L37.4141 41.5261L36.4797 41.0022L37.4195 40.4799L38.0394 40.8249C38.1382 40.8778 38.3393 40.5409 38.2447 40.4881L37.8302 40.2581L38.1501 40.0802L38.77 40.4252C38.8688 40.4782 39.0699 40.1412 38.9753 40.0885L38.5608 39.8584L38.7463 39.7562C38.861 39.6918 38.6199 39.2943 38.5063 39.3588L38.3208 39.4609V38.999C38.3208 38.8931 37.9141 38.8931 37.9141 38.999V39.6843L37.5941 39.8621V39.4002C37.5941 39.2943 37.1874 39.2943 37.1874 39.4002V40.082L36.2475 40.6043V39.5636L36.8674 39.2186C36.9662 39.1657 36.7608 38.8287 36.6621 38.8819L36.2475 39.112V38.7562L36.8674 38.4112C36.9662 38.3583 36.7608 38.0213 36.6621 38.0745L36.2475 38.3046V38.0965C36.2475 37.9678 35.7658 37.9678 35.7658 38.0965V38.3046L35.3431 38.0745C35.2444 38.0215 35.0432 38.3585 35.1378 38.4112L35.7577 38.7562V39.1082L35.3431 38.8781C35.2444 38.8252 35.0432 39.1622 35.1378 39.2149L35.7577 39.5599V40.5998L34.822 40.0822V39.3972C34.822 39.2913 34.4153 39.2913 34.4153 39.3972V39.8551L34.0953 39.6773V38.992C34.0953 38.8861 33.6886 38.8861 33.6886 38.992V39.4539L33.503 39.3518C33.3884 39.2873 33.1476 39.6885 33.2631 39.7492L33.4486 39.8514L33.0327 40.0822C32.934 40.1352 33.1393 40.4722 33.2381 40.4189L33.8579 40.074L34.1779 40.2518L33.7553 40.4869C33.6565 40.5399 33.8618 40.8768 33.9606 40.8236L34.5805 40.4787L35.5203 41.001L34.5805 41.5186L33.9606 41.1779C33.8618 41.1249 33.6607 41.4619 33.7553 41.5146L34.1698 41.7447L33.8499 41.9225L33.23 41.5776C33.1312 41.5246 32.9301 41.8616 33.0247 41.9143L33.4392 42.1444L33.2537 42.2465C33.139 42.311 33.3801 42.7084 33.4937 42.644L33.6792 42.5418V43.0037C33.6792 43.1096 34.0859 43.1096 34.0859 43.0037V42.3185L34.4059 42.1406V42.6025C34.4059 42.7084 34.8126 42.7084 34.8126 42.6025V41.9175L35.7525 41.3952V42.4401L35.1326 42.7851C35.0338 42.8381 35.2392 43.1751 35.3379 43.1219L35.7525 42.8918V43.2438L35.1326 43.5888C35.0338 43.6417 35.2392 43.9787 35.3379 43.9255L35.7525 43.6954V43.9035C35.7525 44.0322 36.2342 44.0322 36.2342 43.9035V43.6954L36.6488 43.9255C36.7475 43.9785 36.9487 43.6415 36.8541 43.5888L36.2342 43.2438V42.8918L36.6488 43.1219C36.7475 43.1748 36.9487 42.8378 36.8541 42.7851L36.2342 42.4401V41.3994L37.1741 41.9218V42.6068C37.1741 42.7127 37.5808 42.7127 37.5808 42.6068V42.1449L37.9008 42.3227V43.008C37.9008 43.1139 38.3075 43.1139 38.3075 43.008V42.5461L38.493 42.6482C38.6077 42.7127 38.8485 42.3115 38.733 42.2508L38.5475 42.1486L38.9621 41.9185C39.0647 41.8648 38.8646 41.5276 38.7648 41.5806L38.7646 41.5808Z" fill="#D0F7FF"/>
</g>
<defs>
<filter id="filter0_di_207_629" x="9.74219" y="-2" width="60" height="45" filterUnits="userSpaceOnUse" color-interpolation-filters="sRGB">
<feFlood flood-opacity="0" result="BackgroundImageFix"/>
<feColorMatrix in="SourceAlpha" type="matrix" values="0 0 0 0 0 0 0 0 0 0 0 0 0 0 0 0 0 0 127 0" result="hardAlpha"/>
<feOffset dy="2"/>
<feGaussianBlur stdDeviation="2.5"/>
<feComposite in2="hardAlpha" operator="out"/>
<feColorMatrix type="matrix" values="0 0 0 0 0 0 0 0 0 0 0 0 0 0 0 0 0 0 0.25 0"/>
<feBlend mode="normal" in2="BackgroundImageFix" result="effect1_dropShadow_207_629"/>
<feBlend mode="normal" in="SourceGraphic" in2="effect1_dropShadow_207_629" result="shape"/>
<feColorMatrix in="SourceAlpha" type="matrix" values="0 0 0 0 0 0 0 0 0 0 0 0 0 0 0 0 0 0 127 0" result="hardAlpha"/>
<feOffset dy="-5"/>
<feGaussianBlur stdDeviation="5"/>
<feComposite in2="hardAlpha" operator="arithmetic" k2="-1" k3="1"/>
<feColorMatrix type="matrix" values="0 0 0 0 0 0 0 0 0 0 0 0 0 0 0 0 0 0 0.5 0"/>
<feBlend mode="normal" in2="shape" result="effect2_innerShadow_207_629"/>
</filter>
<filter id="filter1_di_207_629" x="0" y="17.4585" width="35" height="26" filterUnits="userSpaceOnUse" color-interpolation-filters="sRGB">
<feFlood flood-opacity="0" result="BackgroundImageFix"/>
<feColorMatrix in="SourceAlpha" type="matrix" values="0 0 0 0 0 0 0 0 0 0 0 0 0 0 0 0 0 0 127 0" result="hardAlpha"/>
<feOffset/>
<feGaussianBlur stdDeviation="2.5"/>
<feComposite in2="hardAlpha" operator="out"/>
<feColorMatrix type="matrix" values="0 0 0 0 0 0 0 0 0 0 0 0 0 0 0 0 0 0 0.25 0"/>
<feBlend mode="normal" in2="BackgroundImageFix" result="effect1_dropShadow_207_629"/>
<feBlend mode="normal" in="SourceGraphic" in2="effect1_dropShadow_207_629" result="shape"/>
<feColorMatrix in="SourceAlpha" type="matrix" values="0 0 0 0 0 0 0 0 0 0 0 0 0 0 0 0 0 0 127 0" result="hardAlpha"/>
<feOffset dy="-2.75"/>
<feGaussianBlur stdDeviation="2.5"/>
<feComposite in2="hardAlpha" operator="arithmetic" k2="-1" k3="1"/>
<feColorMatrix type="matrix" values="0 0 0 0 0 0 0 0 0 0 0 0 0 0 0 0 0 0 0.5 0"/>
<feBlend mode="normal" in2="shape" result="effect2_innerShadow_207_629"/>
</filter>
<filter id="filter2_di_207_629" x="36.0283" y="18.8315" width="38" height="26" filterUnits="userSpaceOnUse" color-interpolation-filters="sRGB">
<feFlood flood-opacity="0" result="BackgroundImageFix"/>
<feColorMatrix in="SourceAlpha" type="matrix" values="0 0 0 0 0 0 0 0 0 0 0 0 0 0 0 0 0 0 127 0" result="hardAlpha"/>
<feOffset/>
<feGaussianBlur stdDeviation="2.5"/>
<feComposite in2="hardAlpha" operator="out"/>
<feColorMatrix type="matrix" values="0 0 0 0 0 0 0 0 0 0 0 0 0 0 0 0 0 0 0.25 0"/>
<feBlend mode="normal" in2="BackgroundImageFix" result="effect1_dropShadow_207_629"/>
<feBlend mode="normal" in="SourceGraphic" in2="effect1_dropShadow_207_629" result="shape"/>
<feColorMatrix in="SourceAlpha" type="matrix" values="0 0 0 0 0 0 0 0 0 0 0 0 0 0 0 0 0 0 127 0" result="hardAlpha"/>
<feOffset dy="-2.75"/>
<feGaussianBlur stdDeviation="2.5"/>
<feComposite in2="hardAlpha" operator="arithmetic" k2="-1" k3="1"/>
<feColorMatrix type="matrix" values="0 0 0 0 0 0 0 0 0 0 0 0 0 0 0 0 0 0 0.5 0"/>
<feBlend mode="normal" in2="shape" result="effect2_innerShadow_207_629"/>
</filter>
<filter id="filter3_d_207_629" x="7" y="35.5" width="13" height="13" filterUnits="userSpaceOnUse" color-interpolation-filters="sRGB">
<feFlood flood-opacity="0" result="BackgroundImageFix"/>
<feColorMatrix in="SourceAlpha" type="matrix" values="0 0 0 0 0 0 0 0 0 0 0 0 0 0 0 0 0 0 127 0" result="hardAlpha"/>
<feOffset dy="0.5"/>
<feGaussianBlur stdDeviation="1"/>
<feComposite in2="hardAlpha" operator="out"/>
<feColorMatrix type="matrix" values="0 0 0 0 0 0 0 0 0 0 0 0 0 0 0 0 0 0 0.25 0"/>
<feBlend mode="normal" in2="BackgroundImageFix" result="effect1_dropShadow_207_629"/>
<feBlend mode="normal" in="SourceGraphic" in2="effect1_dropShadow_207_629" result="shape"/>
</filter>
<filter id="filter4_d_207_629" x="42" y="52.5" width="11" height="11" filterUnits="userSpaceOnUse" color-interpolation-filters="sRGB">
<feFlood flood-opacity="0" result="BackgroundImageFix"/>
<feColorMatrix in="SourceAlpha" type="matrix" values="0 0 0 0 0 0 0 0 0 0 0 0 0 0 0 0 0 0 127 0" result="hardAlpha"/>
<feOffset dy="0.5"/>
<feGaussianBlur stdDeviation="1"/>
<feComposite in2="hardAlpha" operator="out"/>
<feColorMatrix type="matrix" values="0 0 0 0 0 0 0 0 0 0 0 0 0 0 0 0 0 0 0.25 0"/>
<feBlend mode="normal" in2="BackgroundImageFix" result="effect1_dropShadow_207_629"/>
<feBlend mode="normal" in="SourceGraphic" in2="effect1_dropShadow_207_629" result="shape"/>
</filter>
<filter id="filter5_d_207_629" x="55" y="37.5" width="13" height="13" filterUnits="userSpaceOnUse" color-interpolation-filters="sRGB">
<feFlood flood-opacity="0" result="BackgroundImageFix"/>
<feColorMatrix in="SourceAlpha" type="matrix" values="0 0 0 0 0 0 0 0 0 0 0 0 0 0 0 0 0 0 127 0" result="hardAlpha"/>
<feOffset dy="0.5"/>
<feGaussianBlur stdDeviation="1"/>
<feComposite in2="hardAlpha" operator="out"/>
<feColorMatrix type="matrix" values="0 0 0 0 0 0 0 0 0 0 0 0 0 0 0 0 0 0 0.25 0"/>
<feBlend mode="normal" in2="BackgroundImageFix" result="effect1_dropShadow_207_629"/>
<feBlend mode="normal" in="SourceGraphic" in2="effect1_dropShadow_207_629" result="shape"/>
</filter>
<filter id="filter6_d_207_629" x="31" y="36.5" width="10" height="10" filterUnits="userSpaceOnUse" color-interpolation-filters="sRGB">
<feFlood flood-opacity="0" result="BackgroundImageFix"/>
<feColorMatrix in="SourceAlpha" type="matrix" values="0 0 0 0 0 0 0 0 0 0 0 0 0 0 0 0 0 0 127 0" result="hardAlpha"/>
<feOffset dy="0.5"/>
<feGaussianBlur stdDeviation="1"/>
<feComposite in2="hardAlpha" operator="out"/>
<feColorMatrix type="matrix" values="0 0 0 0 0 0 0 0 0 0 0 0 0 0 0 0 0 0 0.25 0"/>
<feBlend mode="normal" in2="BackgroundImageFix" result="effect1_dropShadow_207_629"/>
<feBlend mode="normal" in="SourceGraphic" in2="effect1_dropShadow_207_629" result="shape"/>
</filter>
</defs>
</svg>
