<svg width="100" height="100" viewBox="0 0 100 100" fill="none" xmlns="http://www.w3.org/2000/svg">
<g filter="url(#filter0_di_207_658)">
<path d="M70.8794 34.75C70.8794 42.3439 65.3927 48.5 58.6245 48.5C51.8563 48.5 46.3696 42.3439 46.3696 34.75C46.3696 27.1561 51.8563 21 58.6245 21C65.3927 21 70.8794 27.1561 70.8794 34.75Z" fill="#CFCFCF"/>
<path d="M77.7422 42.175C77.7422 47.4907 73.9015 51.8 69.1638 51.8C64.426 51.8 60.5853 47.4907 60.5853 42.175C60.5853 36.8593 64.426 32.55 69.1638 32.55C73.9015 32.55 77.7422 36.8593 77.7422 42.175Z" fill="#CFCFCF"/>
<path d="M55.1932 36.125C55.1932 41.4407 51.3525 45.75 46.6147 45.75C41.877 45.75 38.0363 41.4407 38.0363 36.125C38.0363 30.8093 41.877 26.5 46.6147 26.5C51.3525 26.5 55.1932 30.8093 55.1932 36.125Z" fill="#CFCFCF"/>
<path d="M70.3892 44.375C70.3892 49.6907 60.8424 54 49.0657 54C37.2891 54 27.7422 49.6907 27.7422 44.375C27.7422 39.0593 37.2891 34.75 49.0657 34.75C60.8424 34.75 70.3892 39.0593 70.3892 44.375Z" fill="#CFCFCF"/>
</g>
<g filter="url(#filter1_di_207_658)">
<path d="M43 50.8289C43 53.938 40.1262 56.4585 36.5811 56.4585C33.036 56.4585 30.1622 53.938 30.1622 50.8289C30.1622 47.7197 33.036 45.1992 36.5811 45.1992C40.1262 45.1992 43 47.7197 43 50.8289Z" fill="#CFCFCF"/>
<path d="M28.1351 50.8289C28.1351 53.2835 25.8663 55.2733 23.0676 55.2733C20.2688 55.2733 18 53.2835 18 50.8289C18 48.3743 20.2688 46.3844 23.0676 46.3844C25.8663 46.3844 28.1351 48.3743 28.1351 50.8289Z" fill="#CFCFCF"/>
<path d="M38.2703 47.8659C38.2703 51.9569 34.4889 55.2733 29.8243 55.2733C25.1598 55.2733 21.3784 51.9569 21.3784 47.8659C21.3784 43.7749 25.1598 40.4585 29.8243 40.4585C34.4889 40.4585 38.2703 43.7749 38.2703 47.8659Z" fill="#CFCFCF"/>
</g>
<g filter="url(#filter2_di_207_658)">
<path d="M54.0283 52.2019C54.0283 55.3111 57.247 57.8315 61.2175 57.8315C65.188 57.8315 68.4067 55.3111 68.4067 52.2019C68.4067 49.0928 65.188 46.5723 61.2175 46.5723C57.247 46.5723 54.0283 49.0928 54.0283 52.2019Z" fill="#CFCFCF"/>
<path d="M70.677 52.2019C70.677 54.6565 73.2181 56.6464 76.3526 56.6464C79.4872 56.6464 82.0283 54.6565 82.0283 52.2019C82.0283 49.7473 79.4872 47.7575 76.3526 47.7575C73.2181 47.7575 70.677 49.7473 70.677 52.2019Z" fill="#CFCFCF"/>
<path d="M59.3256 49.2389C59.3256 53.3299 63.5608 56.6464 68.7851 56.6464C74.0094 56.6464 78.2445 53.3299 78.2445 49.239C78.2445 45.148 74.0094 41.8315 68.7851 41.8315C63.5608 41.8315 59.3256 45.148 59.3256 49.2389Z" fill="#CFCFCF"/>
</g>
<g filter="url(#filter3_d_207_658)">
<path d="M30.6468 60.3712L29.717 60.8887L29.2371 60.6219L29.8589 60.2768C30.007 60.1973 29.699 59.6919 29.5509 59.7717L28.6211 60.2891L27.2195 59.5034L28.6293 58.7199L29.5591 59.2373C29.7072 59.3168 30.009 58.8113 29.8671 58.7322L29.2453 58.3871L29.7252 58.1203L30.655 58.6378C30.8032 58.7172 31.1049 58.2117 30.963 58.1327L30.3412 57.7876L30.6195 57.6343C30.7914 57.5376 30.4299 56.9415 30.2595 57.0381L29.9812 57.1914V56.4986C29.9812 56.3397 29.3711 56.3397 29.3711 56.4986V57.5264L28.8912 57.7932V57.1003C28.8912 56.9415 28.2811 56.9415 28.2811 57.1003V58.1229L26.8713 58.9065V57.3454L27.8011 56.8279C27.9492 56.7485 27.6413 56.243 27.4931 56.3228L26.8713 56.6679V56.1343L27.8011 55.6169C27.9492 55.5374 27.6413 55.0319 27.4931 55.1118L26.8713 55.4569V55.1447C26.8713 54.9518 26.1486 54.9518 26.1486 55.1447V55.4569L25.5147 55.1118C25.3666 55.0323 25.0648 55.5378 25.2067 55.6169L26.1365 56.1343V56.6623L25.5147 56.3172C25.3666 56.2378 25.0648 56.7432 25.2067 56.8223L26.1365 57.3398V58.8997L24.733 58.1233V57.0959C24.733 56.937 24.1229 56.937 24.1229 57.0959V57.7827L23.6429 57.5159V56.4881C23.6429 56.3292 23.0328 56.3292 23.0328 56.4881V57.1809L22.7546 57.0277C22.5826 56.931 22.2215 57.5328 22.3946 57.6238L22.6729 57.7771L22.0491 58.1233C21.901 58.2027 22.209 58.7082 22.3571 58.6284L23.2869 58.1109L23.7668 58.3777L23.1329 58.7303C22.9848 58.8098 23.2928 59.3153 23.4409 59.2355L24.3707 58.718L25.7805 59.5015L24.3707 60.2779L23.4409 59.7668C23.2928 59.6874 22.991 60.1928 23.1329 60.2719L23.7547 60.617L23.2748 60.8838L22.345 60.3663C22.1968 60.2869 21.8951 60.7924 22.037 60.8714L22.6588 61.2166L22.3805 61.3698C22.2086 61.4665 22.5701 62.0626 22.7405 61.966L23.0188 61.8127V62.5056C23.0188 62.6644 23.6289 62.6644 23.6289 62.5056V61.4777L24.1088 61.2109V61.9038C24.1088 62.0626 24.7189 62.0626 24.7189 61.9038V60.8763L26.1287 60.0928V61.6602L25.1989 62.1777C25.0508 62.2571 25.3587 62.7626 25.5069 62.6828L26.1287 62.3377V62.8657L25.1989 63.3831C25.0508 63.4626 25.3587 63.9681 25.5069 63.8882L26.1287 63.5431V63.8553C26.1287 64.0482 26.8514 64.0482 26.8514 63.8553V63.5431L27.4732 63.8882C27.6213 63.9677 27.9231 63.4622 27.7812 63.3831L26.8514 62.8657V62.3377L27.4732 62.6828C27.6213 62.7622 27.9231 62.2567 27.7812 62.1777L26.8514 61.6602V60.0992L28.2611 60.8827V61.9101C28.2611 62.069 28.8712 62.069 28.8712 61.9101V61.2173L29.3512 61.4841V62.5119C29.3512 62.6708 29.9613 62.6708 29.9613 62.5119V61.8191L30.2396 61.9723C30.4115 62.069 30.7727 61.4672 30.5995 61.3762L30.3213 61.2229L30.9431 60.8778C31.0971 60.7972 30.7969 60.2914 30.6472 60.3708L30.6468 60.3712Z" fill="#D0F7FF"/>
</g>
<g filter="url(#filter4_d_207_658)">
<path d="M63.7253 76.1776L63.0021 76.5801L62.6288 76.3726L63.1125 76.1042C63.2277 76.0424 62.9881 75.6492 62.8729 75.7113L62.1497 76.1138L61.0596 75.5026L62.1561 74.8932L62.8793 75.2957C62.9945 75.3575 63.2292 74.9643 63.1189 74.9028L62.6352 74.6344L63.0085 74.4269L63.7317 74.8294C63.8469 74.8912 64.0816 74.498 63.9712 74.4365L63.4876 74.1681L63.704 74.0489C63.8378 73.9737 63.5566 73.51 63.4241 73.5852L63.2076 73.7044V73.1655C63.2076 73.042 62.7331 73.042 62.7331 73.1655V73.965L62.3598 74.1725V73.6336C62.3598 73.51 61.8853 73.51 61.8853 73.6336V74.429L60.7888 75.0384V73.8242L61.512 73.4217C61.6272 73.3599 61.3876 72.9668 61.2724 73.0289L60.7888 73.2973V72.8823L61.512 72.4798C61.6272 72.418 61.3876 72.0248 61.2724 72.0869L60.7888 72.3553V72.1126C60.7888 71.9625 60.2267 71.9625 60.2267 72.1126V72.3553L59.7336 72.0869C59.6184 72.0251 59.3838 72.4183 59.4941 72.4798L60.2173 72.8823V73.2929L59.7336 73.0245C59.6184 72.9627 59.3838 73.3559 59.4941 73.4174L60.2173 73.8198V75.0331L59.1257 74.4292V73.6301C59.1257 73.5065 58.6511 73.5065 58.6511 73.6301V74.1643L58.2778 73.9568V73.1574C58.2778 73.0338 57.8033 73.0338 57.8033 73.1574V73.6963L57.5869 73.5771C57.4531 73.5019 57.1722 73.9699 57.3069 74.0407L57.5234 74.1599L57.0382 74.4292C56.923 74.491 57.1625 74.8842 57.2777 74.8221L58.0009 74.4196L58.3742 74.6271L57.8811 74.9014C57.7659 74.9632 58.0055 75.3563 58.1207 75.2942L58.8439 74.8918L59.9404 75.5012L58.8439 76.105L58.1207 75.7075C58.0055 75.6457 57.7708 76.0389 57.8811 76.1004L58.3648 76.3688L57.9915 76.5763L57.2683 76.1738C57.1531 76.112 56.9184 76.5052 57.0288 76.5667L57.5124 76.8351L57.296 76.9543C57.1622 77.0295 57.4434 77.4932 57.5759 77.418L57.7924 77.2988V77.8377C57.7924 77.9612 58.2669 77.9612 58.2669 77.8377V77.0382L58.6402 76.8307V77.3696C58.6402 77.4932 59.1147 77.4932 59.1147 77.3696V76.5705L60.2112 75.9611V77.1802L59.488 77.5826C59.3728 77.6444 59.6124 78.0376 59.7276 77.9755L60.2112 77.7071V78.1177L59.488 78.5202C59.3728 78.582 59.6124 78.9752 59.7276 78.9131L60.2112 78.6447V78.8874C60.2112 79.0375 60.7733 79.0375 60.7733 78.8874V78.6447L61.2569 78.9131C61.3721 78.9749 61.6068 78.5817 61.4965 78.5202L60.7733 78.1177V77.7071L61.2569 77.9755C61.3721 78.0373 61.6068 77.6441 61.4965 77.5826L60.7733 77.1802V75.966L61.8698 76.5754V77.3746C61.8698 77.4981 62.3443 77.4981 62.3443 77.3746V76.8357L62.7176 77.0432V77.8426C62.7176 77.9662 63.1921 77.9662 63.1921 77.8426V77.3037L63.4086 77.4229C63.5423 77.4981 63.8232 77.0301 63.6885 76.9592L63.4721 76.8401L63.9557 76.5716C64.0755 76.509 63.842 76.1155 63.7256 76.1773L63.7253 76.1776Z" fill="#D0F7FF"/>
</g>
<g filter="url(#filter5_d_207_658)">
<path d="M78.6468 62.3712L77.717 62.8887L77.2371 62.6219L77.8589 62.2768C78.007 62.1973 77.699 61.6919 77.5509 61.7717L76.6211 62.2891L75.2195 61.5034L76.6293 60.7199L77.5591 61.2373C77.7072 61.3168 78.009 60.8113 77.8671 60.7322L77.2453 60.3871L77.7252 60.1203L78.655 60.6378C78.8032 60.7172 79.1049 60.2117 78.963 60.1327L78.3412 59.7876L78.6195 59.6343C78.7914 59.5376 78.4299 58.9415 78.2595 59.0381L77.9812 59.1914V58.4986C77.9812 58.3397 77.3711 58.3397 77.3711 58.4986V59.5264L76.8912 59.7932V59.1003C76.8912 58.9415 76.2811 58.9415 76.2811 59.1003V60.1229L74.8713 60.9065V59.3454L75.8011 58.8279C75.9492 58.7485 75.6413 58.243 75.4931 58.3228L74.8713 58.6679V58.1343L75.8011 57.6169C75.9492 57.5374 75.6413 57.0319 75.4931 57.1118L74.8713 57.4569V57.1447C74.8713 56.9518 74.1486 56.9518 74.1486 57.1447V57.4569L73.5147 57.1118C73.3666 57.0323 73.0648 57.5378 73.2067 57.6169L74.1365 58.1343V58.6623L73.5147 58.3172C73.3666 58.2378 73.0648 58.7432 73.2067 58.8223L74.1365 59.3398V60.8997L72.733 60.1233V59.0959C72.733 58.937 72.1229 58.937 72.1229 59.0959V59.7827L71.6429 59.5159V58.4881C71.6429 58.3292 71.0328 58.3292 71.0328 58.4881V59.1809L70.7546 59.0277C70.5826 58.931 70.2215 59.5328 70.3946 59.6238L70.6729 59.7771L70.0491 60.1233C69.901 60.2027 70.209 60.7082 70.3571 60.6284L71.2869 60.1109L71.7668 60.3777L71.1329 60.7303C70.9848 60.8098 71.2928 61.3153 71.4409 61.2355L72.3707 60.718L73.7805 61.5015L72.3707 62.2779L71.4409 61.7668C71.2928 61.6874 70.991 62.1928 71.1329 62.2719L71.7547 62.617L71.2748 62.8838L70.345 62.3663C70.1968 62.2869 69.8951 62.7924 70.037 62.8714L70.6588 63.2166L70.3805 63.3698C70.2086 63.4665 70.5701 64.0626 70.7405 63.966L71.0188 63.8127V64.5056C71.0188 64.6644 71.6289 64.6644 71.6289 64.5056V63.4777L72.1088 63.2109V63.9038C72.1088 64.0626 72.7189 64.0626 72.7189 63.9038V62.8763L74.1287 62.0928V63.6602L73.1989 64.1777C73.0508 64.2571 73.3587 64.7626 73.5069 64.6828L74.1287 64.3377V64.8657L73.1989 65.3831C73.0508 65.4626 73.3587 65.9681 73.5069 65.8882L74.1287 65.5431V65.8553C74.1287 66.0482 74.8514 66.0482 74.8514 65.8553V65.5431L75.4732 65.8882C75.6213 65.9677 75.9231 65.4622 75.7812 65.3831L74.8514 64.8657V64.3377L75.4732 64.6828C75.6213 64.7622 75.9231 64.2567 75.7812 64.1777L74.8514 63.6602V62.0992L76.2611 62.8827V63.9101C76.2611 64.069 76.8712 64.069 76.8712 63.9101V63.2173L77.3512 63.4841V64.5119C77.3512 64.6708 77.9613 64.6708 77.9613 64.5119V63.8191L78.2396 63.9723C78.4115 64.069 78.7727 63.4672 78.5995 63.3762L78.3213 63.2229L78.9431 62.8778C79.0971 62.7972 78.7969 62.2914 78.6472 62.3708L78.6468 62.3712Z" fill="#D0F7FF"/>
</g>
<g filter="url(#filter6_d_207_658)">
<path d="M51.7646 59.5808L51.1447 59.9258L50.8247 59.7479L51.2393 59.5179C51.338 59.4649 51.1327 59.1279 51.0339 59.1811L50.4141 59.5261L49.4797 59.0022L50.4195 58.4799L51.0394 58.8249C51.1382 58.8778 51.3393 58.5409 51.2447 58.4881L50.8302 58.2581L51.1501 58.0802L51.77 58.4252C51.8688 58.4782 52.0699 58.1412 51.9753 58.0885L51.5608 57.8584L51.7463 57.7562C51.861 57.6918 51.6199 57.2943 51.5063 57.3588L51.3208 57.4609V56.999C51.3208 56.8931 50.9141 56.8931 50.9141 56.999V57.6843L50.5941 57.8621V57.4002C50.5941 57.2943 50.1874 57.2943 50.1874 57.4002V58.082L49.2475 58.6043V57.5636L49.8674 57.2186C49.9662 57.1657 49.7608 56.8287 49.6621 56.8819L49.2475 57.112V56.7562L49.8674 56.4112C49.9662 56.3583 49.7608 56.0213 49.6621 56.0745L49.2475 56.3046V56.0965C49.2475 55.9678 48.7658 55.9678 48.7658 56.0965V56.3046L48.3431 56.0745C48.2444 56.0215 48.0432 56.3585 48.1378 56.4112L48.7577 56.7562V57.1082L48.3431 56.8781C48.2444 56.8252 48.0432 57.1622 48.1378 57.2149L48.7577 57.5599V58.5998L47.822 58.0822V57.3972C47.822 57.2913 47.4153 57.2913 47.4153 57.3972V57.8551L47.0953 57.6773V56.992C47.0953 56.8861 46.6886 56.8861 46.6886 56.992V57.4539L46.503 57.3518C46.3884 57.2873 46.1476 57.6885 46.2631 57.7492L46.4486 57.8514L46.0327 58.0822C45.934 58.1352 46.1393 58.4722 46.2381 58.4189L46.8579 58.074L47.1779 58.2518L46.7553 58.4869C46.6565 58.5399 46.8618 58.8768 46.9606 58.8236L47.5805 58.4787L48.5203 59.001L47.5805 59.5186L46.9606 59.1779C46.8618 59.1249 46.6607 59.4619 46.7553 59.5146L47.1698 59.7447L46.8499 59.9225L46.23 59.5776C46.1312 59.5246 45.9301 59.8616 46.0247 59.9143L46.4392 60.1444L46.2537 60.2465C46.139 60.311 46.3801 60.7084 46.4937 60.644L46.6792 60.5418V61.0037C46.6792 61.1096 47.0859 61.1096 47.0859 61.0037V60.3185L47.4059 60.1406V60.6025C47.4059 60.7084 47.8126 60.7084 47.8126 60.6025V59.9175L48.7525 59.3952V60.4401L48.1326 60.7851C48.0338 60.8381 48.2392 61.1751 48.3379 61.1219L48.7525 60.8918V61.2438L48.1326 61.5888C48.0338 61.6417 48.2392 61.9787 48.3379 61.9255L48.7525 61.6954V61.9035C48.7525 62.0322 49.2342 62.0322 49.2342 61.9035V61.6954L49.6488 61.9255C49.7475 61.9785 49.9487 61.6415 49.8541 61.5888L49.2342 61.2438V60.8918L49.6488 61.1219C49.7475 61.1748 49.9487 60.8378 49.8541 60.7851L49.2342 60.4401V59.3994L50.1741 59.9218V60.6068C50.1741 60.7127 50.5808 60.7127 50.5808 60.6068V60.1449L50.9008 60.3227V61.008C50.9008 61.1139 51.3075 61.1139 51.3075 61.008V60.5461L51.493 60.6482C51.6077 60.7127 51.8485 60.3115 51.733 60.2508L51.5475 60.1486L51.9621 59.9185C52.0647 59.8648 51.8646 59.5276 51.7648 59.5806L51.7646 59.5808Z" fill="#D0F7FF"/>
</g>
<defs>
<filter id="filter0_di_207_658" x="22.7422" y="16" width="60" height="45" filterUnits="userSpaceOnUse" color-interpolation-filters="sRGB">
<feFlood flood-opacity="0" result="BackgroundImageFix"/>
<feColorMatrix in="SourceAlpha" type="matrix" values="0 0 0 0 0 0 0 0 0 0 0 0 0 0 0 0 0 0 127 0" result="hardAlpha"/>
<feOffset dy="2"/>
<feGaussianBlur stdDeviation="2.5"/>
<feComposite in2="hardAlpha" operator="out"/>
<feColorMatrix type="matrix" values="0 0 0 0 0 0 0 0 0 0 0 0 0 0 0 0 0 0 0.25 0"/>
<feBlend mode="normal" in2="BackgroundImageFix" result="effect1_dropShadow_207_658"/>
<feBlend mode="normal" in="SourceGraphic" in2="effect1_dropShadow_207_658" result="shape"/>
<feColorMatrix in="SourceAlpha" type="matrix" values="0 0 0 0 0 0 0 0 0 0 0 0 0 0 0 0 0 0 127 0" result="hardAlpha"/>
<feOffset dy="-5"/>
<feGaussianBlur stdDeviation="5"/>
<feComposite in2="hardAlpha" operator="arithmetic" k2="-1" k3="1"/>
<feColorMatrix type="matrix" values="0 0 0 0 0 0 0 0 0 0 0 0 0 0 0 0 0 0 0.5 0"/>
<feBlend mode="normal" in2="shape" result="effect2_innerShadow_207_658"/>
</filter>
<filter id="filter1_di_207_658" x="13" y="35.4585" width="35" height="26" filterUnits="userSpaceOnUse" color-interpolation-filters="sRGB">
<feFlood flood-opacity="0" result="BackgroundImageFix"/>
<feColorMatrix in="SourceAlpha" type="matrix" values="0 0 0 0 0 0 0 0 0 0 0 0 0 0 0 0 0 0 127 0" result="hardAlpha"/>
<feOffset/>
<feGaussianBlur stdDeviation="2.5"/>
<feComposite in2="hardAlpha" operator="out"/>
<feColorMatrix type="matrix" values="0 0 0 0 0 0 0 0 0 0 0 0 0 0 0 0 0 0 0.25 0"/>
<feBlend mode="normal" in2="BackgroundImageFix" result="effect1_dropShadow_207_658"/>
<feBlend mode="normal" in="SourceGraphic" in2="effect1_dropShadow_207_658" result="shape"/>
<feColorMatrix in="SourceAlpha" type="matrix" values="0 0 0 0 0 0 0 0 0 0 0 0 0 0 0 0 0 0 127 0" result="hardAlpha"/>
<feOffset dy="-2.75"/>
<feGaussianBlur stdDeviation="2.5"/>
<feComposite in2="hardAlpha" operator="arithmetic" k2="-1" k3="1"/>
<feColorMatrix type="matrix" values="0 0 0 0 0 0 0 0 0 0 0 0 0 0 0 0 0 0 0.5 0"/>
<feBlend mode="normal" in2="shape" result="effect2_innerShadow_207_658"/>
</filter>
<filter id="filter2_di_207_658" x="49.0283" y="36.8315" width="38" height="26" filterUnits="userSpaceOnUse" color-interpolation-filters="sRGB">
<feFlood flood-opacity="0" result="BackgroundImageFix"/>
<feColorMatrix in="SourceAlpha" type="matrix" values="0 0 0 0 0 0 0 0 0 0 0 0 0 0 0 0 0 0 127 0" result="hardAlpha"/>
<feOffset/>
<feGaussianBlur stdDeviation="2.5"/>
<feComposite in2="hardAlpha" operator="out"/>
<feColorMatrix type="matrix" values="0 0 0 0 0 0 0 0 0 0 0 0 0 0 0 0 0 0 0.25 0"/>
<feBlend mode="normal" in2="BackgroundImageFix" result="effect1_dropShadow_207_658"/>
<feBlend mode="normal" in="SourceGraphic" in2="effect1_dropShadow_207_658" result="shape"/>
<feColorMatrix in="SourceAlpha" type="matrix" values="0 0 0 0 0 0 0 0 0 0 0 0 0 0 0 0 0 0 127 0" result="hardAlpha"/>
<feOffset dy="-2.75"/>
<feGaussianBlur stdDeviation="2.5"/>
<feComposite in2="hardAlpha" operator="arithmetic" k2="-1" k3="1"/>
<feColorMatrix type="matrix" values="0 0 0 0 0 0 0 0 0 0 0 0 0 0 0 0 0 0 0.5 0"/>
<feBlend mode="normal" in2="shape" result="effect2_innerShadow_207_658"/>
</filter>
<filter id="filter3_d_207_658" x="20" y="53.5" width="13" height="13" filterUnits="userSpaceOnUse" color-interpolation-filters="sRGB">
<feFlood flood-opacity="0" result="BackgroundImageFix"/>
<feColorMatrix in="SourceAlpha" type="matrix" values="0 0 0 0 0 0 0 0 0 0 0 0 0 0 0 0 0 0 127 0" result="hardAlpha"/>
<feOffset dy="0.5"/>
<feGaussianBlur stdDeviation="1"/>
<feComposite in2="hardAlpha" operator="out"/>
<feColorMatrix type="matrix" values="0 0 0 0 0 0 0 0 0 0 0 0 0 0 0 0 0 0 0.25 0"/>
<feBlend mode="normal" in2="BackgroundImageFix" result="effect1_dropShadow_207_658"/>
<feBlend mode="normal" in="SourceGraphic" in2="effect1_dropShadow_207_658" result="shape"/>
</filter>
<filter id="filter4_d_207_658" x="55" y="70.5" width="11" height="11" filterUnits="userSpaceOnUse" color-interpolation-filters="sRGB">
<feFlood flood-opacity="0" result="BackgroundImageFix"/>
<feColorMatrix in="SourceAlpha" type="matrix" values="0 0 0 0 0 0 0 0 0 0 0 0 0 0 0 0 0 0 127 0" result="hardAlpha"/>
<feOffset dy="0.5"/>
<feGaussianBlur stdDeviation="1"/>
<feComposite in2="hardAlpha" operator="out"/>
<feColorMatrix type="matrix" values="0 0 0 0 0 0 0 0 0 0 0 0 0 0 0 0 0 0 0.25 0"/>
<feBlend mode="normal" in2="BackgroundImageFix" result="effect1_dropShadow_207_658"/>
<feBlend mode="normal" in="SourceGraphic" in2="effect1_dropShadow_207_658" result="shape"/>
</filter>
<filter id="filter5_d_207_658" x="68" y="55.5" width="13" height="13" filterUnits="userSpaceOnUse" color-interpolation-filters="sRGB">
<feFlood flood-opacity="0" result="BackgroundImageFix"/>
<feColorMatrix in="SourceAlpha" type="matrix" values="0 0 0 0 0 0 0 0 0 0 0 0 0 0 0 0 0 0 127 0" result="hardAlpha"/>
<feOffset dy="0.5"/>
<feGaussianBlur stdDeviation="1"/>
<feComposite in2="hardAlpha" operator="out"/>
<feColorMatrix type="matrix" values="0 0 0 0 0 0 0 0 0 0 0 0 0 0 0 0 0 0 0.25 0"/>
<feBlend mode="normal" in2="BackgroundImageFix" result="effect1_dropShadow_207_658"/>
<feBlend mode="normal" in="SourceGraphic" in2="effect1_dropShadow_207_658" result="shape"/>
</filter>
<filter id="filter6_d_207_658" x="44" y="54.5" width="10" height="10" filterUnits="userSpaceOnUse" color-interpolation-filters="sRGB">
<feFlood flood-opacity="0" result="BackgroundImageFix"/>
<feColorMatrix in="SourceAlpha" type="matrix" values="0 0 0 0 0 0 0 0 0 0 0 0 0 0 0 0 0 0 127 0" result="hardAlpha"/>
<feOffset dy="0.5"/>
<feGaussianBlur stdDeviation="1"/>
<feComposite in2="hardAlpha" operator="out"/>
<feColorMatrix type="matrix" values="0 0 0 0 0 0 0 0 0 0 0 0 0 0 0 0 0 0 0.25 0"/>
<feBlend mode="normal" in2="BackgroundImageFix" result="effect1_dropShadow_207_658"/>
<feBlend mode="normal" in="SourceGraphic" in2="effect1_dropShadow_207_658" result="shape"/>
</filter>
</defs>
</svg>
