<svg width="74" height="47" viewBox="0 0 74 47" fill="none" xmlns="http://www.w3.org/2000/svg">
<path fill-rule="evenodd" clip-rule="evenodd" d="M64.1312 29.7493C64.5254 28.6442 64.7422 27.438 64.7422 26.175C64.7422 21.4657 61.7279 17.5464 57.7459 16.7134C56.8688 10.0852 51.776 5 45.6245 5C41.5079 5 37.8653 7.27744 35.6431 10.7706C34.9928 10.5937 34.3135 10.5 33.6147 10.5C28.877 10.5 25.0363 14.8093 25.0363 20.125L25.0363 20.1359C21.3271 21.1497 18.3574 22.6595 16.5785 24.4616C12.516 24.5634 9.172 27.1812 8.50106 30.6008C6.46901 31.1796 5 32.8538 5 34.8289C5 37.2835 7.26883 39.2733 10.0676 39.2733C11.1529 39.2733 12.1584 38.9741 12.983 38.4646C14.1354 38.9816 15.441 39.2733 16.8243 39.2733C17.6604 39.2733 18.468 39.1668 19.2307 38.9683C20.3744 39.8934 21.9025 40.4585 23.5811 40.4585C26.026 40.4585 28.1517 39.2596 29.2355 37.4956C31.3798 37.8227 33.6769 38 36.0657 38C37.8677 38 39.6175 37.8991 41.2889 37.7091C42.1304 40.0864 44.9137 41.8315 48.2175 41.8315C50.0975 41.8315 51.8089 41.2665 53.09 40.3414C53.9441 40.5398 54.8487 40.6464 55.7851 40.6464C57.3344 40.6464 58.7967 40.3547 60.0874 39.8376C61.0109 40.3471 62.1371 40.6464 63.3526 40.6464C66.4872 40.6464 69.0283 38.6565 69.0283 36.2019C69.0283 34.2268 67.383 32.5526 65.1071 31.9739C64.9332 31.1823 64.5988 30.4337 64.1312 29.7493Z" fill="#CFCFCF" fill-opacity="0.5"/>
<path fill-rule="evenodd" clip-rule="evenodd" d="M44.3288 18.5538C44.6243 17.7253 44.7868 16.8211 44.7868 15.8742C44.7868 12.3438 42.5271 9.40563 39.542 8.78114C38.8844 3.81224 35.0665 0 30.4549 0C27.3688 0 24.6381 1.70732 22.9722 4.32606C22.4846 4.19345 21.9754 4.12318 21.4516 4.12318C17.8998 4.12318 15.0206 7.35369 15.0206 11.3387L15.0206 11.3469C12.2399 12.1069 10.0136 13.2388 8.68003 14.5897C5.63451 14.6661 3.12762 16.6286 2.62464 19.1921C1.10127 19.626 0 20.8811 0 22.3618C0 24.2019 1.70087 25.6936 3.799 25.6936C4.6126 25.6936 5.36646 25.4693 5.98458 25.0873C6.84849 25.475 7.82729 25.6936 8.86432 25.6936C9.49108 25.6936 10.0966 25.6137 10.6683 25.465C11.5257 26.1585 12.6713 26.5821 13.9296 26.5821C15.7625 26.5821 17.3561 25.6834 18.1686 24.361C19.7761 24.6061 21.4982 24.7391 23.289 24.7391C24.6399 24.7391 25.9517 24.6634 27.2046 24.521C27.8355 26.3032 29.922 27.6114 32.3988 27.6114C33.8082 27.6114 35.0912 27.1878 36.0515 26.4943C36.6918 26.6431 37.37 26.7229 38.072 26.7229C39.2334 26.7229 40.3297 26.5043 41.2973 26.1167C41.9896 26.4986 42.8339 26.7229 43.7451 26.7229C46.095 26.7229 48 25.2312 48 23.3911C48 21.9104 46.7666 20.6553 45.0604 20.2215C44.93 19.6281 44.6793 19.0669 44.3288 18.5538Z" fill="white" fill-opacity="0.75"/>
<path fill-rule="evenodd" clip-rule="evenodd" d="M43.4707 40.4882C43.2719 39.9306 43.1625 39.322 43.1625 38.6847C43.1625 36.3084 44.6834 34.3308 46.6927 33.9104C47.1352 30.566 49.705 28 52.809 28C54.8862 28 56.7242 29.1492 57.8455 30.9118C58.1737 30.8225 58.5164 30.7752 58.869 30.7752C61.2596 30.7752 63.1976 32.9496 63.1976 35.6319L63.1976 35.6374C65.0691 36.1489 66.5676 36.9107 67.4652 37.82C69.5151 37.8713 71.2025 39.1923 71.541 40.9178C72.5664 41.2098 73.3076 42.0546 73.3076 43.0512C73.3076 44.2898 72.1628 45.2938 70.7506 45.2938C70.203 45.2938 69.6955 45.1428 69.2795 44.8857C68.698 45.1466 68.0392 45.2938 67.3412 45.2938C66.9193 45.2938 66.5118 45.2401 66.127 45.1399C65.5499 45.6067 64.7788 45.8918 63.9318 45.8918C62.6982 45.8918 61.6256 45.287 61.0787 44.3969C59.9967 44.5619 58.8376 44.6514 57.6323 44.6514C56.723 44.6514 55.84 44.6005 54.9967 44.5046C54.5721 45.7042 53.1676 46.5848 51.5006 46.5848C50.5519 46.5848 49.6884 46.2997 49.042 45.8329C48.611 45.933 48.1546 45.9868 47.6821 45.9868C46.9003 45.9868 46.1624 45.8396 45.5112 45.5787C45.0452 45.8358 44.4769 45.9868 43.8636 45.9868C42.2819 45.9868 40.9997 44.9827 40.9997 43.7442C40.9997 42.7475 41.8299 41.9028 42.9783 41.6107C43.066 41.2113 43.2348 40.8336 43.4707 40.4882Z" fill="white" fill-opacity="0.75"/>
</svg>
