<svg width="100" height="100" viewBox="0 0 100 100" fill="none" xmlns="http://www.w3.org/2000/svg">
<path fill-rule="evenodd" clip-rule="evenodd" d="M77.1312 56.7493C77.5254 55.6442 77.7422 54.438 77.7422 53.175C77.7422 48.4657 74.7279 44.5464 70.7459 43.7134C69.8688 37.0852 64.776 32 58.6245 32C54.5079 32 50.8653 34.2774 48.6431 37.7706C47.9928 37.5937 47.3135 37.5 46.6147 37.5C41.877 37.5 38.0363 41.8093 38.0363 47.125L38.0363 47.1359C34.327 48.1497 31.3574 49.6595 29.5785 51.4616C25.516 51.5634 22.172 54.1812 21.5011 57.6008C19.469 58.1796 18 59.8538 18 61.8289C18 64.2835 20.2688 66.2733 23.0676 66.2733C24.1529 66.2733 25.1584 65.9741 25.983 65.4646C27.1354 65.9816 28.441 66.2733 29.8243 66.2733C30.6604 66.2733 31.468 66.1668 32.2307 65.9683C33.3744 66.8934 34.9025 67.4585 36.5811 67.4585C39.026 67.4585 41.1517 66.2596 42.2355 64.4956C44.3798 64.8227 46.6769 65 49.0657 65C50.8677 65 52.6175 64.8991 54.2889 64.7091C55.1304 67.0864 57.9137 68.8315 61.2175 68.8315C63.0975 68.8315 64.8089 68.2665 66.09 67.3414C66.9441 67.5398 67.8487 67.6464 68.7851 67.6464C70.3344 67.6464 71.7967 67.3547 73.0874 66.8376C74.0109 67.3471 75.1371 67.6464 76.3526 67.6464C79.4872 67.6464 82.0283 65.6565 82.0283 63.2019C82.0283 61.2268 80.383 59.5526 78.1071 58.9739C77.9332 58.1823 77.5988 57.4337 77.1312 56.7493Z" fill="#CFCFCF" fill-opacity="0.5"/>
<path fill-rule="evenodd" clip-rule="evenodd" d="M57.3288 45.5538C57.6243 44.7253 57.7868 43.8211 57.7868 42.8742C57.7868 39.3438 55.5271 36.4056 52.542 35.7811C51.8844 30.8122 48.0665 27 43.4549 27C40.3688 27 37.6381 28.7073 35.9722 31.3261C35.4846 31.1935 34.9754 31.1232 34.4516 31.1232C30.8998 31.1232 28.0206 34.3537 28.0206 38.3387L28.0206 38.3469C25.2399 39.1069 23.0136 40.2388 21.68 41.5897C18.6345 41.6661 16.1276 43.6286 15.6246 46.1921C14.1013 46.626 13 47.8811 13 49.3618C13 51.2019 14.7009 52.6936 16.799 52.6936C17.6126 52.6936 18.3665 52.4693 18.9846 52.0873C19.8485 52.475 20.8273 52.6936 21.8643 52.6936C22.4911 52.6936 23.0966 52.6137 23.6683 52.465C24.5257 53.1585 25.6713 53.5821 26.9296 53.5821C28.7625 53.5821 30.3561 52.6834 31.1686 51.361C32.7761 51.6061 34.4982 51.7391 36.289 51.7391C37.6399 51.7391 38.9517 51.6634 40.2046 51.521C40.8355 53.3032 42.922 54.6114 45.3988 54.6114C46.8082 54.6114 48.0912 54.1878 49.0515 53.4943C49.6918 53.6431 50.37 53.7229 51.072 53.7229C52.2334 53.7229 53.3297 53.5043 54.2973 53.1167C54.9896 53.4986 55.8339 53.7229 56.7451 53.7229C59.095 53.7229 61 52.2312 61 50.3911C61 48.9104 59.7666 47.6553 58.0604 47.2215C57.93 46.6281 57.6793 46.0669 57.3288 45.5538Z" fill="white" fill-opacity="0.75"/>
<path fill-rule="evenodd" clip-rule="evenodd" d="M56.4707 67.4882C56.2719 66.9306 56.1624 66.322 56.1624 65.6847C56.1624 63.3084 57.6834 61.3308 59.6927 60.9104C60.1352 57.566 62.705 55 65.809 55C67.8862 55 69.7242 56.1492 70.8455 57.9118C71.1737 57.8225 71.5164 57.7752 71.869 57.7752C74.2596 57.7752 76.1976 59.9496 76.1976 62.6319L76.1976 62.6374C78.0691 63.1489 79.5676 63.9107 80.4652 64.82C82.5151 64.8713 84.2025 66.1923 84.541 67.9178C85.5664 68.2098 86.3076 69.0546 86.3076 70.0512C86.3076 71.2898 85.1628 72.2938 83.7506 72.2938C83.203 72.2938 82.6955 72.1428 82.2795 71.8857C81.698 72.1466 81.0392 72.2938 80.3412 72.2938C79.9193 72.2938 79.5118 72.2401 79.127 72.1399C78.5499 72.6067 77.7788 72.8918 76.9318 72.8918C75.6982 72.8918 74.6256 72.287 74.0787 71.3969C72.9967 71.5619 71.8376 71.6514 70.6323 71.6514C69.723 71.6514 68.84 71.6005 67.9967 71.5046C67.5721 72.7042 66.1676 73.5848 64.5006 73.5848C63.5519 73.5848 62.6884 73.2997 62.042 72.8329C61.611 72.933 61.1546 72.9868 60.6821 72.9868C59.9003 72.9868 59.1624 72.8396 58.5112 72.5787C58.0452 72.8358 57.4769 72.9868 56.8636 72.9868C55.2819 72.9868 53.9997 71.9827 53.9997 70.7442C53.9997 69.7475 54.8299 68.9028 55.9783 68.6107C56.066 68.2113 56.2348 67.8336 56.4707 67.4882Z" fill="white" fill-opacity="0.75"/>
</svg>
