<svg width="62" height="54" viewBox="0 0 62 54" fill="none" xmlns="http://www.w3.org/2000/svg">
<path d="M55.3915 36.7539C56.7922 32.826 57.2262 28.6202 56.657 24.4903C56.0877 20.3604 54.5319 16.4272 52.1203 13.0214C49.7087 9.61562 46.5119 6.83692 42.7988 4.91899C39.0857 3.00106 34.9649 2 30.7829 2C26.6009 2 22.48 3.00106 18.7669 4.91899C15.0538 6.83692 11.8571 9.61562 9.4455 13.0214C7.03393 16.4272 5.47809 20.3604 4.90883 24.4903C4.33957 28.6202 4.77355 32.826 6.17426 36.7539M2 36.7524H59.5658ZM8.33371 44.3769H31.5165ZM38.0008 44.3769H42.4023ZM48.8851 44.3769H53.2867ZM16.9169 52H46.0792Z" fill="#EB724C"/>
<path d="M55.3915 36.7539C56.7922 32.826 57.2262 28.6202 56.657 24.4903C56.0877 20.3604 54.5319 16.4272 52.1203 13.0214C49.7087 9.61562 46.5119 6.83692 42.7988 4.91899C39.0857 3.00106 34.9649 2 30.7829 2C26.6009 2 22.48 3.00106 18.7669 4.91899C15.0538 6.83692 11.8571 9.61562 9.4455 13.0214C7.03393 16.4272 5.47809 20.3604 4.90883 24.4903C4.33957 28.6202 4.77355 32.826 6.17426 36.7539M2 36.7524H59.5658M8.33371 44.3769H31.5165M38.0008 44.3769H42.4023M48.8851 44.3769H53.2867M16.9169 52H46.0792" stroke="#EB724C" stroke-width="4" stroke-linecap="round" stroke-linejoin="round"/>
</svg>
