<svg width="100" height="100" viewBox="0 0 100 100" fill="none" xmlns="http://www.w3.org/2000/svg">
<path d="M71.1575 54.6464L66.4303 57.4063L63.9903 55.9834L67.1516 54.1428C67.9047 53.7191 66.3389 51.0232 65.5859 51.4489L60.8587 54.2088L53.7332 50.018L60.9004 45.8392L65.6276 48.5991C66.3807 49.0228 67.9146 46.3268 67.1934 45.9052L64.032 44.0646L66.4721 42.6417L71.1992 45.4015C71.9523 45.8252 73.4863 43.1293 72.765 42.7076L69.6036 40.867L71.0184 40.0497C71.8927 39.5341 70.0547 36.3545 69.1883 36.8701L67.7736 37.6875V33.9923C67.7736 33.145 64.6718 33.145 64.6718 33.9923V39.4741L62.2317 40.897V37.2019C62.2317 36.3545 59.13 36.3545 59.13 37.2019V42.6557L51.9628 46.8344V38.5089L56.6899 35.749C57.443 35.3253 55.8772 32.6294 55.1242 33.0551L51.9628 34.8956V32.0498L56.6899 29.29C57.443 28.8663 55.8772 26.1704 55.1242 26.596L51.9628 28.4366V26.7719C51.9628 25.7427 48.2888 25.7427 48.2888 26.7719V28.4366L45.0658 26.596C44.3128 26.1724 42.7788 28.8683 43.5001 29.29L48.2272 32.0498V34.8657L45.0658 33.0251C44.3128 32.6014 42.7788 35.2973 43.5001 35.719L48.2272 38.4789V46.7985L41.0918 42.6577V37.1779C41.0918 36.3305 37.99 36.3305 37.99 37.1779V40.8411L35.55 39.4182V33.9364C35.55 33.089 32.4482 33.089 32.4482 33.9364V37.6315L31.0335 36.8142C30.1592 36.2986 28.3232 39.5081 29.2034 39.9937L30.6182 40.8111L27.4469 42.6577C26.6938 43.0813 28.2596 45.7773 29.0127 45.3516L33.7398 42.5917L36.1799 44.0146L32.9569 45.8952C32.2038 46.3188 33.7696 49.0148 34.5227 48.5891L39.2498 45.8292L46.417 50.008L39.2498 54.1488L34.5227 51.4229C33.7696 50.9992 32.2356 53.6952 32.9569 54.1168L36.1183 55.9574L33.6782 57.3803L28.9511 54.6204C28.198 54.1968 26.664 56.8927 27.3853 57.3144L30.5466 59.1549L29.1319 59.9723C28.2576 60.4879 30.0956 63.6675 30.9619 63.1519L32.3767 62.3345V66.0296C32.3767 66.877 35.4784 66.877 35.4784 66.0296V60.5479L37.9185 59.125V62.8201C37.9185 63.6675 41.0203 63.6675 41.0203 62.8201V57.3403L48.1875 53.1616V61.5211L43.4603 64.281C42.7072 64.7047 44.273 67.4006 45.0261 66.9749L48.1875 65.1343V67.9502L43.4603 70.71C42.7072 71.1337 44.273 73.8296 45.0261 73.404L48.1875 71.5634V73.2281C48.1875 74.2573 51.8615 74.2573 51.8615 73.2281V71.5634L55.0228 73.404C55.7759 73.8276 57.3099 71.1317 56.5886 70.71L51.8615 67.9502V65.1343L55.0228 66.9749C55.7759 67.3986 57.3099 64.7027 56.5886 64.281L51.8615 61.5211V53.1955L59.0287 57.3743V62.8541C59.0287 63.7014 62.1304 63.7014 62.1304 62.8541V59.1589L64.5705 60.5818V66.0636C64.5705 66.911 67.6722 66.911 67.6722 66.0636V62.3685L69.087 63.1858C69.9613 63.7014 71.7973 60.4919 70.917 60.0063L69.5023 59.1889L72.6636 57.3483C73.4465 56.9187 71.9205 54.2207 71.1595 54.6444L71.1575 54.6464Z" fill="#B0F1FF"/>
</svg>
