<svg width="100" height="100" viewBox="0 0 100 100" fill="none" xmlns="http://www.w3.org/2000/svg">
<path d="M71.7919 54.84L66.8678 57.7149L64.326 56.2327L67.6191 54.3154C68.4036 53.8741 66.7726 51.0658 65.9881 51.5093L61.064 54.3841L53.6416 50.0187L61.1075 45.6658L66.0316 48.5407C66.816 48.982 68.4139 46.1738 67.6626 45.7345L64.3695 43.8173L66.9112 42.3351L71.8353 45.2099C72.6198 45.6513 74.2177 42.843 73.4664 42.4038L70.1733 40.4865L71.647 39.6351C72.5577 39.098 70.6431 35.786 69.7407 36.323L68.267 37.1745V33.3254C68.267 32.4427 65.036 32.4427 65.036 33.3254V39.0355L62.4943 40.5177V36.6686C62.4943 35.786 59.2633 35.786 59.2633 36.6686V42.3496L51.7974 46.7025V38.0301L56.7215 35.1552C57.506 34.7139 55.875 31.9056 55.0905 32.349L51.7974 34.2663V31.3019L56.7215 28.427C57.506 27.9857 55.875 25.1775 55.0905 25.6209L51.7974 27.5381V25.8041C51.7974 24.732 47.9703 24.732 47.9703 25.8041V27.5381L44.6131 25.6209C43.8286 25.1795 42.2307 27.9878 42.9821 28.427L47.9062 31.3019V34.2351L44.6131 32.3178C43.8286 31.8765 42.2307 34.6847 42.9821 35.124L47.9062 37.9988V46.6651L40.4735 42.3517V36.6436C40.4735 35.761 37.2425 35.761 37.2425 36.6436V40.4594L34.7007 38.9772V33.2671C34.7007 32.3844 31.4697 32.3844 31.4697 33.2671V37.1162L29.996 36.2648C29.0853 35.7277 27.1728 39.0709 28.0897 39.5768L29.5634 40.4282L26.26 42.3517C25.4756 42.7931 27.1066 45.6013 27.891 45.1579L32.8151 42.283L35.3569 43.7652L31.9996 45.7241C31.2152 46.1655 32.8462 48.9737 33.6306 48.5303L38.5547 45.6554L46.0206 50.0083L38.5547 54.3217L33.6306 51.4822C32.8462 51.0409 31.2483 53.8491 31.9996 54.2884L35.2927 56.2056L32.751 57.6878L27.8269 54.813C27.0424 54.3716 25.4445 57.1799 26.1959 57.6191L29.4889 59.5364L28.0152 60.3878C27.1045 60.9249 29.0191 64.2369 29.9215 63.6999L31.3952 62.8484V66.6975C31.3952 67.5802 34.6262 67.5802 34.6262 66.6975V60.9874L37.168 59.5052V63.3543C37.168 64.2369 40.3989 64.2369 40.3989 63.3543V57.6462L47.8648 53.2933V62.0012L42.9407 64.876C42.1562 65.3174 43.7872 68.1256 44.5717 67.6822L47.8648 65.7649V68.6981L42.9407 71.5729C42.1562 72.0143 43.7872 74.8225 44.5717 74.3791L47.8648 72.4618V74.1959C47.8648 75.268 51.6919 75.268 51.6919 74.1959V72.4618L54.985 74.3791C55.7694 74.8204 57.3673 72.0122 56.616 71.5729L51.6919 68.6981V65.7649L54.985 67.6822C55.7694 68.1235 57.3673 65.3153 56.616 64.876L51.6919 62.0012V53.3287L59.1577 57.6816V63.3897C59.1577 64.2723 62.3887 64.2723 62.3887 63.3897V59.5406L64.9304 61.0227V66.7329C64.9304 67.6156 68.1614 67.6156 68.1614 66.7329V62.8838L69.6351 63.7352C70.5458 64.2723 72.4584 60.9291 71.5414 60.4232L70.0677 59.5718L73.3608 57.6545C74.1763 57.2069 72.5867 54.3966 71.7939 54.8379L71.7919 54.84Z" fill="#B0F1FF"/>
</svg>
