<svg width="25" height="26" viewBox="0 0 25 26" fill="none" xmlns="http://www.w3.org/2000/svg">
<path d="M23.1236 15.3343L20.7446 16.7153L19.5166 16.0033L21.1076 15.0823C21.4866 14.8703 20.6986 13.5213 20.3196 13.7343L17.9406 15.1153L14.3546 13.0183L17.9616 10.9272L20.3406 12.3083C20.7196 12.5203 21.4916 11.1712 21.1286 10.9602L19.5376 10.0393L20.7656 9.32725L23.1446 10.7083C23.5236 10.9203 24.2956 9.57125 23.9326 9.36025L22.3416 8.43925L23.0536 8.03025C23.4936 7.77225 22.5686 6.18125 22.1326 6.43925L21.4206 6.84825V4.99925C21.4206 4.57525 19.8596 4.57525 19.8596 4.99925V7.74225L18.6316 8.45425V6.60525C18.6316 6.18125 17.0706 6.18125 17.0706 6.60525V9.33425L13.4636 11.4253V7.25925L15.8426 5.87825C16.2216 5.66625 15.4336 4.31725 15.0546 4.53025L13.4636 5.45125V4.02725L15.8426 2.64625C16.2216 2.43425 15.4336 1.08525 15.0546 1.29825L13.4636 2.21925V1.38625C13.4636 0.87125 11.6146 0.87125 11.6146 1.38625V2.21925L9.99262 1.29825C9.61362 1.08625 8.84162 2.43525 9.20462 2.64625L11.5836 4.02725V5.43625L9.99262 4.51525C9.61362 4.30325 8.84162 5.65225 9.20462 5.86325L11.5836 7.24425V11.4073L7.99262 9.33525V6.59325C7.99262 6.16925 6.43162 6.16925 6.43162 6.59325V8.42625L5.20362 7.71425V4.97125C5.20362 4.54725 3.64262 4.54725 3.64262 4.97125V6.82025L2.93062 6.41125C2.49062 6.15325 1.56662 7.75925 2.00962 8.00225L2.72162 8.41125L1.12562 9.33525C0.746623 9.54725 1.53462 10.8963 1.91362 10.6833L4.29262 9.30225L5.52062 10.0142L3.89862 10.9552C3.51962 11.1672 4.30762 12.5163 4.68662 12.3033L7.06562 10.9222L10.6726 13.0133L7.06562 15.0852L4.68662 13.7213C4.30762 13.5093 3.53562 14.8583 3.89862 15.0693L5.48962 15.9903L4.26162 16.7023L1.88262 15.3212C1.50362 15.1092 0.731623 16.4583 1.09462 16.6693L2.68562 17.5903L1.97362 17.9992C1.53362 18.2572 2.45862 19.8483 2.89462 19.5903L3.60662 19.1812V21.0302C3.60662 21.4542 5.16762 21.4542 5.16762 21.0302V18.2872L6.39562 17.5752V19.4242C6.39562 19.8482 7.95662 19.8482 7.95662 19.4242V16.6823L11.5636 14.5913V18.7743L9.18462 20.1552C8.80562 20.3672 9.59362 21.7163 9.97262 21.5033L11.5636 20.5822V21.9912L9.18462 23.3722C8.80562 23.5842 9.59362 24.9332 9.97262 24.7202L11.5636 23.7992V24.6322C11.5636 25.1472 13.4126 25.1472 13.4126 24.6322V23.7992L15.0036 24.7202C15.3826 24.9322 16.1546 23.5832 15.7916 23.3722L13.4126 21.9912V20.5822L15.0036 21.5033C15.3826 21.7153 16.1546 20.3662 15.7916 20.1552L13.4126 18.7743V14.6083L17.0196 16.6993V19.4412C17.0196 19.8652 18.5806 19.8652 18.5806 19.4412V17.5922L19.8086 18.3042V21.0472C19.8086 21.4712 21.3696 21.4712 21.3696 21.0472V19.1982L22.0816 19.6073C22.5216 19.8653 23.4456 18.2592 23.0026 18.0162L22.2906 17.6073L23.8816 16.6863C24.2756 16.4713 23.5076 15.1213 23.1246 15.3333L23.1236 15.3343Z" fill="#B0F1FF"/>
</svg>
