<svg width="100" height="100" viewBox="0 0 100 100" fill="none" xmlns="http://www.w3.org/2000/svg">
<path d="M82.7728 57.76L75.3866 62.0723L71.574 59.849L76.5136 56.9731C77.6903 56.3111 75.2438 52.0988 74.0671 52.7639L66.681 57.0762L55.5474 50.5281L66.7462 43.9988L74.1323 48.3111C75.309 48.9731 77.7059 44.7607 76.5788 44.1018L71.6392 41.2259L75.4518 39.0026L82.838 43.3149C84.0147 43.9769 86.4115 39.7645 85.2845 39.1057L80.3449 36.2297L82.5554 34.9526C83.9215 34.147 81.0497 29.1789 79.696 29.9846L77.4854 31.2617V25.488C77.4854 24.1641 72.6389 24.1641 72.6389 25.488V34.0533L68.8263 36.2766V30.5029C68.8263 29.1789 63.9799 29.1789 63.9799 30.5029V39.0245L52.7811 45.5538V32.5451L60.1673 28.2328C61.3439 27.5708 58.8974 23.3584 57.7207 24.0235L52.7811 26.8994V22.4529L60.1673 18.1406C61.3439 17.4786 58.8974 13.2662 57.7207 13.9313L52.7811 16.8072V14.2061C52.7811 12.598 47.0405 12.598 47.0405 14.2061V16.8072L42.0046 13.9313C40.8279 13.2693 38.4311 17.4817 39.5581 18.1406L46.9442 22.4529V26.8526L42.0046 23.9767C40.8279 23.3147 38.4311 27.5271 39.5581 28.1859L46.9442 32.4983V45.4976L35.7951 39.0276V30.4654C35.7951 29.1415 30.9487 29.1415 30.9487 30.4654V36.1892L27.1361 33.9659V25.4006C27.1361 24.0766 22.2896 24.0766 22.2896 25.4006V31.1743L20.079 29.8971C18.7129 29.0915 15.8442 34.1064 17.2196 34.8652L19.4301 36.1423L14.475 39.0276C13.2983 39.6896 15.7448 43.902 16.9215 43.2368L24.3077 38.9245L28.1203 41.1478L23.0844 44.0862C21.9077 44.7482 24.3542 48.9606 25.5309 48.2954L32.9171 43.9831L44.1158 50.5125L32.9171 56.9825L25.5309 52.7233C24.3542 52.0613 21.9574 56.2737 23.0844 56.9325L28.024 59.8085L24.2114 62.0317L16.8253 57.7194C15.6486 57.0574 13.2517 61.2698 14.3787 61.9287L19.3184 64.8046L17.1078 66.0817C15.7417 66.8874 18.6136 71.8554 19.9672 71.0498L22.1778 69.7726V75.5463C22.1778 76.8703 27.0243 76.8703 27.0243 75.5463V66.981L30.8369 64.7578V70.5314C30.8369 71.8554 35.6834 71.8554 35.6834 70.5314V61.9693L46.8821 55.4399V68.5017L39.496 72.814C38.3193 73.476 40.7658 77.6884 41.9425 77.0233L46.8821 74.1474V78.5471L39.496 82.8594C38.3193 83.5214 40.7658 87.7338 41.9425 87.0687L46.8821 84.1928V86.7939C46.8821 88.402 52.6228 88.402 52.6228 86.7939V84.1928L57.5624 87.0687C58.7391 87.7307 61.1359 83.5183 60.0089 82.8594L52.6228 78.5471V74.1474L57.5624 77.0233C58.7391 77.6853 61.1359 73.4729 60.0089 72.814L52.6228 68.5017V55.493L63.8215 62.0224V70.5845C63.8215 71.9085 68.668 71.9085 68.668 70.5845V64.8108L72.4806 67.0341V75.5994C72.4806 76.9234 77.3271 76.9234 77.3271 75.5994V69.8257L79.5377 71.1029C80.9037 71.9085 83.7725 66.8936 82.3971 66.1348L80.1865 64.8577L85.1262 61.9818C86.3494 61.3104 83.965 57.0949 82.7759 57.7569L82.7728 57.76Z" fill="#B0F1FF"/>
</svg>
