<svg width="100" height="100" viewBox="0 0 100 100" fill="none" xmlns="http://www.w3.org/2000/svg">
<g filter="url(#filter0_f_706_178)">
<ellipse cx="49.403" cy="39.5876" rx="12.5876" ry="12.5876" fill="#FFB247"/>
</g>
<g filter="url(#filter1_f_706_178)">
<ellipse cx="49.403" cy="39.5876" rx="12.5876" ry="12.5876" fill="#FFB247"/>
</g>
<circle cx="49.5" cy="52.5" r="21.5" fill="#2E3547"/>
<path d="M64.6499 37.3501C62.6639 35.3445 60.3013 33.7511 57.6976 32.6613C55.094 31.5716 52.3007 31.007 49.4782 31.0001C46.6557 30.9931 43.8596 31.5439 41.2506 32.6208C38.6417 33.6978 36.2712 35.2796 34.2754 37.2754C32.2796 39.2712 30.6978 41.6417 29.6208 44.2506C28.5439 46.8596 27.9931 49.6557 28.0001 52.4782C28.007 55.3007 28.5716 58.094 29.6613 60.6976C30.7511 63.3012 32.3445 65.6639 34.3501 67.6499C36.3361 69.6555 38.6988 71.2489 41.3024 72.3387C43.906 73.4284 46.6994 73.993 49.5218 73.9999C52.3443 74.0069 55.1404 73.4561 57.7494 72.3792C60.3583 71.3022 62.7288 69.7205 64.7246 67.7246C66.7205 65.7288 68.3022 63.3583 69.3792 60.7494C70.4561 58.1404 71.0069 55.3443 70.9999 52.5218C70.993 49.6994 70.4284 46.906 69.3387 44.3024C68.2489 41.6988 66.6555 39.3361 64.6499 37.3501ZM28.0001 52.4782C27.9994 50.8528 28.3176 48.3982 28.7436 46.8297C29.4457 48.3409 33.4979 50.5048 34.1913 52.0552C35.0876 54.0486 37.4941 53.4957 38.5568 55.2423C39.4999 56.7927 38.4927 58.7535 39.1986 60.3758C39.7113 61.5532 40.9203 61.8105 41.7543 62.6713C42.6066 63.5398 42.5884 64.7297 42.7185 65.8622C42.8653 67.1928 43.1033 68.5117 43.4311 69.8096C43.4311 69.8192 41.2947 72.3291 41.3024 72.3387C34.145 69.825 28.0001 60.4811 28.0001 52.4782ZM49.5 70.8647C48.4744 70.8643 47.4506 70.7786 46.4392 70.6083C46.4497 70.3491 46.4545 70.1071 46.4804 69.9388C46.7128 68.4179 47.4741 66.9306 48.5014 65.7924C49.5163 64.6695 50.907 63.91 51.764 62.6359C52.6038 61.3925 52.8554 59.7186 52.5091 58.2657C51.9993 56.1194 49.083 55.403 47.5105 54.2389C46.6066 53.5694 45.8022 52.5344 44.6152 52.4503C44.0681 52.412 43.6099 52.5297 43.0676 52.39C42.5702 52.2609 42.18 51.9931 41.6501 52.0629C40.6601 52.193 40.0355 53.2508 38.9719 53.1074C37.9628 52.9725 36.9231 51.7912 36.6935 50.83C36.3989 49.5942 37.3765 49.1934 38.4238 49.0834C38.8609 49.0375 39.3516 48.9878 39.7715 49.1485C40.3244 49.3531 40.5855 49.8945 41.0819 50.1681C42.0126 50.6788 42.201 49.863 42.0585 49.0365C41.8452 47.7988 41.5965 47.2948 42.7003 46.4425C43.4655 45.8552 44.1197 45.4306 43.9973 44.3756C43.9246 43.7557 43.5851 43.4755 43.9017 42.8586C44.1417 42.3889 44.8008 41.9652 45.2302 41.6849C46.3388 40.9618 49.9792 41.0154 48.4919 38.9915C48.0547 38.3975 47.2484 37.3358 46.4832 37.1904C45.5267 37.0096 45.102 38.0771 44.4354 38.5476C43.7467 39.0345 42.4057 39.5874 41.7161 38.8346C40.7883 37.8217 42.3311 37.4898 42.6726 36.782C42.8304 36.452 42.6726 35.9938 42.4067 35.5624C42.7516 35.4171 43.1023 35.2822 43.4588 35.1578C43.6822 35.3228 43.9472 35.4222 44.224 35.4448C44.8639 35.4869 45.4674 35.1406 46.026 35.5768C46.6458 36.055 47.0925 36.6595 47.9151 36.8087C48.7109 36.9532 49.5536 36.4893 49.7506 35.6743C49.8702 35.1789 49.5929 31.5118 49.4782 31.0001C53.0555 31.0206 57.9459 32.3551 60.9194 34.344C60.7281 34.2713 60.4365 33.8101 60.1544 33.9412C59.5738 34.2109 58.7512 34.8977 58.6833 35.5787C58.6058 36.3515 59.7459 36.4606 60.2873 36.4606C61.1003 36.4606 61.9239 36.0971 61.6618 35.1578C61.548 34.7504 61.1691 34.6004 60.9194 34.344C61.5195 34.7604 64.1032 36.8657 64.6499 37.3501C64.6413 37.3587 61.6704 38.7896 61.6618 38.7992C61.1109 39.3731 60.471 39.8274 60.0941 40.5257C59.8282 41.0173 59.5288 41.2507 58.9903 41.3779C58.6938 41.4477 58.3552 41.4736 58.1065 41.6725C57.414 42.2177 57.8081 43.5281 58.4642 43.9212C59.2935 44.4176 60.5236 44.1843 61.1491 43.4755C61.6379 42.9207 61.9258 41.9575 62.8048 41.9585C63.1918 41.9577 63.5636 42.1092 63.8397 42.3803C64.2032 42.7572 64.1315 43.1092 64.2089 43.5798C64.3457 44.4157 65.0832 43.9624 65.5318 43.5405C65.8588 44.1225 66.1538 44.7218 66.4156 45.3359C65.922 46.0465 65.5299 46.8213 64.3428 45.993C63.6322 45.4966 63.1951 44.7763 62.3027 44.5525C61.5231 44.3612 60.7244 44.5602 59.9545 44.6931C59.0793 44.8452 58.0415 44.9121 57.3777 45.575C56.7359 46.2139 56.3963 47.069 55.7134 47.7108C54.3925 48.9543 53.8348 50.3115 54.6899 52.0696C55.5125 53.7597 57.2332 54.677 59.0898 54.5565C60.9138 54.435 62.8086 53.3771 62.756 56.0275C62.7369 56.9659 62.933 57.6153 63.2209 58.4867C63.4877 59.2901 63.4696 60.0687 63.5308 60.898C63.589 61.8691 69.1358 59.9561 69.3792 60.898C65.0934 68.9597 61.3033 70.6866 58.793 71.9154C56.2827 73.1443 52.2949 70.8645 49.5 70.8647Z" fill="#3F472E"/>
<g filter="url(#filter2_ii_706_178)">
<circle cx="49.5" cy="52.5" r="21.5" fill="#2E3547" fill-opacity="0.15"/>
</g>
<defs>
<filter id="filter0_f_706_178" x="21.8631" y="12.0476" width="55.0796" height="55.0799" filterUnits="userSpaceOnUse" color-interpolation-filters="sRGB">
<feFlood flood-opacity="0" result="BackgroundImageFix"/>
<feBlend mode="normal" in="SourceGraphic" in2="BackgroundImageFix" result="shape"/>
<feGaussianBlur stdDeviation="7.47619" result="effect1_foregroundBlur_706_178"/>
</filter>
<filter id="filter1_f_706_178" x="31.8313" y="22.0159" width="35.1431" height="35.1434" filterUnits="userSpaceOnUse" color-interpolation-filters="sRGB">
<feFlood flood-opacity="0" result="BackgroundImageFix"/>
<feBlend mode="normal" in="SourceGraphic" in2="BackgroundImageFix" result="shape"/>
<feGaussianBlur stdDeviation="2.49206" result="effect1_foregroundBlur_706_178"/>
</filter>
<filter id="filter2_ii_706_178" x="26.1702" y="30.2681" width="45.1957" height="44.4638" filterUnits="userSpaceOnUse" color-interpolation-filters="sRGB">
<feFlood flood-opacity="0" result="BackgroundImageFix"/>
<feBlend mode="normal" in="SourceGraphic" in2="BackgroundImageFix" result="shape"/>
<feColorMatrix in="SourceAlpha" type="matrix" values="0 0 0 0 0 0 0 0 0 0 0 0 0 0 0 0 0 0 127 0" result="hardAlpha"/>
<feOffset dx="0.365957" dy="0.731915"/>
<feGaussianBlur stdDeviation="0.914894"/>
<feComposite in2="hardAlpha" operator="arithmetic" k2="-1" k3="1"/>
<feColorMatrix type="matrix" values="0 0 0 0 1 0 0 0 0 1 0 0 0 0 1 0 0 0 0.25 0"/>
<feBlend mode="normal" in2="shape" result="effect1_innerShadow_706_178"/>
<feColorMatrix in="SourceAlpha" type="matrix" values="0 0 0 0 0 0 0 0 0 0 0 0 0 0 0 0 0 0 127 0" result="hardAlpha"/>
<feOffset dx="-1.82979" dy="-0.731915"/>
<feGaussianBlur stdDeviation="0.914894"/>
<feComposite in2="hardAlpha" operator="arithmetic" k2="-1" k3="1"/>
<feColorMatrix type="matrix" values="0 0 0 0 0 0 0 0 0 0 0 0 0 0 0 0 0 0 0.25 0"/>
<feBlend mode="normal" in2="effect1_innerShadow_706_178" result="effect2_innerShadow_706_178"/>
</filter>
</defs>
</svg>
