<svg width="100" height="115" viewBox="0 0 100 115" fill="none" xmlns="http://www.w3.org/2000/svg">
<g filter="url(#filter0_f_901_89)">
<ellipse cx="50.2222" cy="48.0865" rx="20.0865" ry="20.0865" fill="#FFB247"/>
</g>
<g filter="url(#filter1_f_901_89)">
<ellipse cx="50.2222" cy="48.0865" rx="20.0865" ry="20.0865" fill="#FFB247"/>
</g>
<circle cx="50.3718" cy="68.6916" r="34.3083" fill="#2E3547"/>
<path d="M74.547 44.5164C71.3779 41.316 67.6077 38.7733 63.453 37.0343C59.2983 35.2954 54.8409 34.3945 50.3369 34.3834C45.833 34.3723 41.3712 35.2513 37.208 36.9697C33.0447 38.6882 29.2621 41.2123 26.0773 44.3971C22.8925 47.5819 20.3684 51.3646 18.6499 55.5278C16.9314 59.6911 16.0525 64.1528 16.0636 68.6568C16.0747 73.1607 16.9756 77.6181 18.7145 81.7728C20.4534 85.9276 22.9962 89.6978 26.1966 92.8668C29.3657 96.0673 33.1359 98.61 37.2906 100.349C41.4453 102.088 45.9027 102.989 50.4067 103C54.9106 103.011 59.3724 102.132 63.5356 100.414C67.6988 98.695 71.4815 96.1709 74.6663 92.9861C77.8511 89.8013 80.3752 86.0187 82.0937 81.8554C83.8122 77.6922 84.6911 73.2304 84.68 68.7265C84.6689 64.2225 83.768 59.7651 82.0291 55.6104C80.2902 51.4557 77.7474 47.6855 74.547 44.5164ZM16.0636 68.6568C16.0625 66.0631 16.5703 62.1462 17.2501 59.6433C18.3704 62.0548 24.8367 65.5077 25.9432 67.9819C27.3734 71.1627 31.2136 70.2805 32.9093 73.0675C34.4142 75.5417 32.807 78.6706 33.9335 81.2593C34.7516 83.1381 36.6808 83.5487 38.0117 84.9224C39.3717 86.3083 39.3427 88.207 39.5503 90.0142C39.7845 92.1374 40.1644 94.2421 40.6874 96.3132C40.6874 96.3285 37.2784 100.334 37.2906 100.349C25.8692 96.3378 16.0636 81.4274 16.0636 68.6568ZM50.3718 97.9968C48.7352 97.9962 47.1015 97.8594 45.4876 97.5877C45.5044 97.1741 45.512 96.7879 45.5532 96.5193C45.9241 94.0925 47.1391 91.719 48.7783 89.9027C50.3977 88.1109 52.617 86.899 53.9846 84.8659C55.3247 82.8817 55.7261 80.2107 55.1736 77.8922C54.36 74.4672 49.7063 73.324 47.1971 71.4665C45.7547 70.398 44.4711 68.7466 42.5769 68.6123C41.7039 68.5512 40.9728 68.7389 40.1074 68.5161C39.3137 68.31 38.691 67.8827 37.8454 67.9941C36.2657 68.2017 35.269 69.8898 33.5717 69.6608C31.9615 69.4456 30.3024 67.5606 29.936 66.0267C29.4659 64.0547 31.0258 63.4152 32.6971 63.2396C33.3947 63.1664 34.1777 63.087 34.8477 63.3434C35.7299 63.6701 36.1466 64.534 36.9388 64.9705C38.4239 65.7855 38.7245 64.4836 38.4971 63.1649C38.1567 61.1898 37.7599 60.3854 39.5213 59.0255C40.7423 58.0884 41.7863 57.4107 41.5909 55.7272C41.4749 54.7381 40.9331 54.2909 41.4383 53.3064C41.8214 52.557 42.873 51.8809 43.5584 51.4336C45.3273 50.2798 51.1365 50.3652 48.7631 47.1356C48.0655 46.1877 46.7789 44.4935 45.5578 44.2615C44.0315 43.9731 43.3538 45.6764 42.29 46.4274C41.191 47.2042 39.0512 48.0865 37.9507 46.8852C36.4702 45.2689 38.9321 44.7393 39.477 43.6098C39.7288 43.0832 39.477 42.3521 39.0527 41.6637C39.6032 41.4317 40.1628 41.2165 40.7316 41.0181C41.0881 41.2814 41.511 41.44 41.9527 41.476C42.9738 41.5432 43.9369 40.9906 44.8282 41.6866C45.8173 42.4498 46.5301 43.4144 47.8427 43.6525C49.1126 43.883 50.4573 43.1427 50.7717 41.8423C50.9625 41.0517 50.5201 35.2 50.3369 34.3834C56.0454 34.4163 63.8493 36.5456 68.5942 39.7195C68.2889 39.6035 67.8236 38.8675 67.3733 39.0767C66.4469 39.5071 65.1343 40.603 65.0259 41.6897C64.9023 42.9229 66.7216 43.0969 67.5855 43.0969C68.8829 43.0969 70.197 42.517 69.7788 41.0181C69.5972 40.3679 68.9925 40.1285 68.5942 39.7195C69.5518 40.384 73.6747 43.7434 74.547 44.5164C74.5333 44.5302 69.7926 46.8135 69.7788 46.8288C68.8997 47.7446 67.8786 48.4696 67.2772 49.5838C66.8529 50.3683 66.3751 50.7407 65.5158 50.9437C65.0427 51.0551 64.5024 51.0963 64.1055 51.4138C63.0005 52.2838 63.6293 54.3748 64.6764 55.0022C65.9997 55.7943 67.9625 55.4219 68.9607 54.2909C69.7407 53.4056 70.2001 51.8686 71.6028 51.8702C72.2203 51.8689 72.8135 52.1107 73.2542 52.5433C73.8342 53.1446 73.7197 53.7063 73.8434 54.4573C74.0616 55.7913 75.2384 55.0678 75.9543 54.3947C76.476 55.3233 76.9469 56.2797 77.3646 57.2596C76.577 58.3936 75.9512 59.6299 74.0571 58.3081C72.923 57.516 72.2255 56.3667 70.8014 56.0095C69.5575 55.7043 68.283 56.0217 67.0544 56.2339C65.6578 56.4766 64.0017 56.5834 62.9425 57.6411C61.9183 58.6607 61.3765 60.0252 60.2867 61.0494C58.1789 63.0336 57.289 65.1994 58.6536 68.0048C59.9662 70.7018 62.712 72.1655 65.6746 71.9732C68.5852 71.7793 71.6089 70.0913 71.5249 74.3207C71.4944 75.818 71.8073 76.8543 72.2667 78.2448C72.6925 79.5269 72.6635 80.7693 72.7612 82.0926C72.8541 83.6422 81.7054 80.5896 82.0937 82.0926C75.2548 94.957 69.2068 97.7126 65.201 99.6735C61.1953 101.634 54.8318 97.9966 50.3718 97.9968Z" fill="#3F472E"/>
<g filter="url(#filter2_ii_901_89)">
<circle cx="50.3718" cy="68.6916" r="34.3083" fill="#2E3547" fill-opacity="0.15"/>
</g>
<defs>
<filter id="filter0_f_901_89" x="2.61462" y="0.478878" width="95.2151" height="95.2151" filterUnits="userSpaceOnUse" color-interpolation-filters="sRGB">
<feFlood flood-opacity="0" result="BackgroundImageFix"/>
<feBlend mode="normal" in="SourceGraphic" in2="BackgroundImageFix" result="shape"/>
<feGaussianBlur stdDeviation="13.7606" result="effect1_foregroundBlur_901_89"/>
</filter>
<filter id="filter1_f_901_89" x="20.962" y="18.8263" width="58.5203" height="58.5203" filterUnits="userSpaceOnUse" color-interpolation-filters="sRGB">
<feFlood flood-opacity="0" result="BackgroundImageFix"/>
<feBlend mode="normal" in="SourceGraphic" in2="BackgroundImageFix" result="shape"/>
<feGaussianBlur stdDeviation="4.58685" result="effect1_foregroundBlur_901_89"/>
</filter>
<filter id="filter2_ii_901_89" x="12.6956" y="33.0361" width="72.6577" height="71.311" filterUnits="userSpaceOnUse" color-interpolation-filters="sRGB">
<feFlood flood-opacity="0" result="BackgroundImageFix"/>
<feBlend mode="normal" in="SourceGraphic" in2="BackgroundImageFix" result="shape"/>
<feColorMatrix in="SourceAlpha" type="matrix" values="0 0 0 0 0 0 0 0 0 0 0 0 0 0 0 0 0 0 127 0" result="hardAlpha"/>
<feOffset dx="0.673576" dy="1.34715"/>
<feGaussianBlur stdDeviation="1.68394"/>
<feComposite in2="hardAlpha" operator="arithmetic" k2="-1" k3="1"/>
<feColorMatrix type="matrix" values="0 0 0 0 1 0 0 0 0 1 0 0 0 0 1 0 0 0 0.25 0"/>
<feBlend mode="normal" in2="shape" result="effect1_innerShadow_901_89"/>
<feColorMatrix in="SourceAlpha" type="matrix" values="0 0 0 0 0 0 0 0 0 0 0 0 0 0 0 0 0 0 127 0" result="hardAlpha"/>
<feOffset dx="-3.36788" dy="-1.34715"/>
<feGaussianBlur stdDeviation="1.68394"/>
<feComposite in2="hardAlpha" operator="arithmetic" k2="-1" k3="1"/>
<feColorMatrix type="matrix" values="0 0 0 0 0 0 0 0 0 0 0 0 0 0 0 0 0 0 0.25 0"/>
<feBlend mode="normal" in2="effect1_innerShadow_901_89" result="effect2_innerShadow_901_89"/>
</filter>
</defs>
</svg>
