<svg width="100" height="103" viewBox="0 0 100 103" fill="none" xmlns="http://www.w3.org/2000/svg">
<g filter="url(#filter0_f_718_374)">
<ellipse cx="49.7692" cy="40.7614" rx="12.7614" ry="12.7614" fill="#FFB247"/>
</g>
<g filter="url(#filter1_f_718_374)">
<ellipse cx="49.7692" cy="40.7614" rx="12.7614" ry="12.7614" fill="#FFB247"/>
</g>
<circle cx="49.8671" cy="53.8521" r="21.7968" fill="#2E3547"/>
<path d="M65.2262 38.4931C63.2128 36.4598 60.8175 34.8443 58.1779 33.7396C55.5383 32.6348 52.7065 32.0624 49.845 32.0554C46.9835 32.0483 44.1489 32.6067 41.5039 33.6985C38.8589 34.7903 36.4557 36.3939 34.4323 38.4173C32.4089 40.4407 30.8053 42.8439 29.7135 45.4889C28.6217 48.1339 28.0633 50.9685 28.0704 53.83C28.0774 56.6915 28.6498 59.5233 29.7546 62.1629C30.8594 64.8025 32.4748 67.1978 34.5081 69.2112C36.5215 71.2445 38.9168 72.8599 41.5564 73.9647C44.196 75.0695 47.0278 75.6419 49.8893 75.6489C52.7508 75.656 55.5854 75.0975 58.2304 74.0058C60.8754 72.914 63.2786 71.3103 65.302 69.287C67.3254 67.2636 68.929 64.8604 70.0208 62.2154C71.1126 59.5704 71.671 56.7357 71.6639 53.8743C71.6569 51.0128 71.0845 48.1809 69.9797 45.5414C68.8749 42.9018 67.2595 40.5065 65.2262 38.4931ZM28.0704 53.83C28.0697 52.1822 28.3923 49.6937 28.8242 48.1035C29.536 49.6356 33.6441 51.8293 34.3471 53.4012C35.2557 55.4221 37.6955 54.8616 38.7728 56.6323C39.729 58.2041 38.7079 60.192 39.4235 61.8366C39.9433 63.0303 41.169 63.2912 42.0145 64.1639C42.8785 65.0444 42.8601 66.2507 42.992 67.3988C43.1408 68.7478 45.2686 73.8947 45.6008 75.2106C45.6008 75.2203 41.5486 73.955 41.5564 73.9647C34.3001 71.4164 28.0704 61.9435 28.0704 53.83ZM49.9962 75.6489C48.9565 75.6486 46.6262 75.3832 45.6008 75.2106C45.6115 74.9478 46.7796 71.7023 46.8058 71.5317C47.0414 69.9899 47.8133 68.482 48.8548 67.328C49.8836 66.1896 51.2936 65.4197 52.1624 64.128C53.0138 62.8674 53.2688 61.1704 52.9178 59.6975C52.401 57.5215 49.4444 56.7952 47.8502 55.615C46.9338 54.9363 46.1183 53.887 44.9149 53.8017C44.3602 53.7629 43.8957 53.8822 43.3459 53.7406C42.8417 53.6097 42.4461 53.3382 41.9088 53.409C40.9052 53.5409 40.272 54.6133 39.1937 54.4679C38.1707 54.3312 37.1166 53.1336 36.8839 52.159C36.5852 50.9062 37.5762 50.4999 38.638 50.3884C39.0812 50.3418 39.5787 50.2914 40.0044 50.4543C40.5648 50.6618 40.8296 51.2107 41.3328 51.488C42.2764 52.0058 42.4674 51.1787 42.3229 50.3409C42.1067 49.0861 41.8545 48.575 42.9736 47.711C43.7493 47.1156 44.4126 46.6851 44.2885 45.6155C44.2148 44.9872 43.8705 44.703 44.1915 44.0776C44.4349 43.6015 45.103 43.1719 45.5384 42.8878C46.6623 42.1547 50.353 42.209 48.8451 40.1571C48.4019 39.5549 47.5845 38.4785 46.8087 38.3312C45.839 38.1479 45.4085 39.2301 44.7326 39.7072C44.0344 40.2007 42.6749 40.7612 41.9757 39.9981C41.0351 38.9712 42.5993 38.6347 42.9454 37.9171C43.1054 37.5825 42.9454 37.1181 42.6759 36.6807C43.0256 36.5333 43.3812 36.3966 43.7425 36.2705C43.969 36.4378 44.2377 36.5386 44.5183 36.5615C45.167 36.6041 45.7789 36.2531 46.3452 36.6953C46.9736 37.1801 47.4264 37.793 48.2604 37.9442C49.0671 38.0907 49.9215 37.6204 50.1212 36.7942C50.2424 36.2919 49.9614 32.5742 49.845 32.0554C53.4717 32.0762 58.4297 33.4291 61.4442 35.4455C61.2503 35.3718 60.9547 34.9042 60.6686 35.0371C60.08 35.3105 59.2461 36.0068 59.1772 36.6972C59.0987 37.4807 60.2546 37.5913 60.8034 37.5913C61.6276 37.5913 62.4626 37.2228 62.1969 36.2705C62.0815 35.8575 61.6973 35.7054 61.4442 35.4455C62.0526 35.8677 64.672 38.002 65.2262 38.4931C65.2175 38.5018 62.2056 39.9525 62.1969 39.9622C61.6383 40.544 60.9896 41.0046 60.6075 41.7125C60.3379 42.2109 60.0344 42.4475 59.4885 42.5765C59.1879 42.6473 58.8446 42.6735 58.5925 42.8752C57.8904 43.4279 58.2899 44.7564 58.9552 45.1549C59.7959 45.6582 61.0429 45.4216 61.6771 44.703C62.1726 44.1406 62.4645 43.1641 63.3557 43.1651C63.748 43.1643 64.1249 43.3179 64.4049 43.5927C64.7733 43.9748 64.7006 44.3316 64.7792 44.8087C64.9178 45.6562 65.6655 45.1966 66.1203 44.769C66.4518 45.359 66.7509 45.9666 67.0163 46.5891C66.5159 47.3096 66.1183 48.095 64.9149 47.2553C64.1944 46.752 63.7513 46.0218 62.8466 45.7949C62.0563 45.601 61.2466 45.8027 60.4659 45.9375C59.5787 46.0916 58.5266 46.1595 57.8536 46.8315C57.2029 47.4793 56.8587 48.3462 56.1663 48.9969C54.8272 50.2575 54.2618 51.6335 55.1287 53.4158C55.9627 55.1292 57.7072 56.0592 59.5893 55.937C61.4386 55.8138 63.3595 54.7414 63.3062 57.4284C63.2868 58.3797 63.4856 59.0381 63.7775 59.9215C64.048 60.736 64.0296 61.5254 64.0916 62.3661C64.1507 63.3506 69.7741 61.4112 70.0208 62.3661C65.6758 70.5391 61.8334 72.2898 59.2885 73.5356C56.7435 74.7815 52.8298 75.6488 49.9962 75.6489Z" fill="#3F472E"/>
<circle cx="49.8671" cy="53.9266" r="21.7968" fill="#2E3547" fill-opacity="0.15"/>
<g filter="url(#filter2_f_718_374)">
<path d="M69.4541 63.4898C71.0268 60.2687 71.7808 56.7095 71.6493 53.1274C71.5179 49.5453 70.5051 46.0509 68.7006 42.9537C66.8961 39.8565 64.3556 37.2522 61.3041 35.3714C58.2527 33.4905 54.7845 32.3913 51.2068 32.171C47.6291 31.9507 44.0522 32.6161 40.7931 34.1083C37.5339 35.6006 34.6931 37.8736 32.5223 40.726C30.3514 43.5783 28.9175 46.9221 28.3476 50.461C27.7777 53.9999 28.0893 57.6248 29.2549 61.0145C28.1423 57.7787 28.7812 53.9966 29.3252 50.6184C29.8692 47.2403 31.238 44.0484 33.3102 41.3256C35.3825 38.6028 38.0942 36.4331 41.2053 35.0087C44.3164 33.5842 47.7307 32.949 51.1459 33.1593C54.5611 33.3696 57.8718 34.4189 60.7846 36.2143C63.6974 38.0097 66.1225 40.4957 67.845 43.4522C69.5675 46.4086 70.5343 49.7443 70.6598 53.1637C70.7853 56.5831 70.9553 60.415 69.4541 63.4898Z" fill="#FFB247" fill-opacity="0.25"/>
</g>
<g filter="url(#filter3_f_718_374)">
<path d="M72.1098 42.3009C73.9 45.9677 74.7584 50.0194 74.6088 54.0971C74.4591 58.1748 73.3062 62.1527 71.252 65.6784C69.1978 69.2041 66.3058 72.1688 62.8322 74.3099C59.3585 76.451 55.4105 77.7023 51.3377 77.9531C47.265 78.2039 43.1932 77.4464 39.4831 75.7477C35.773 74.0489 32.5392 71.4615 30.0679 68.2144C27.5967 64.9674 25.9644 61.161 25.3156 57.1324C24.6669 53.1038 25.0216 48.9774 26.3485 45.1187C25.0819 48.8021 27.4235 41.9328 28.0428 45.7784C28.6621 49.6239 27.709 41.5921 30.0679 44.6917C32.4269 47.7912 31.9995 41.5487 35.541 43.1703C39.0826 44.7918 46.7585 39.8235 50.6462 39.5842C54.534 39.3448 59.5163 44.3447 62.8322 42.3009C66.148 40.2571 66.1813 47.5139 68.1422 44.1483C70.103 40.7828 70.4987 48.0408 70.6416 44.1483C70.7844 40.2558 73.8187 45.8011 72.1098 42.3009Z" fill="black" fill-opacity="0.35"/>
</g>
<defs>
<filter id="filter0_f_718_374" x="9.15067" y="0.142859" width="81.2367" height="81.237" filterUnits="userSpaceOnUse" color-interpolation-filters="sRGB">
<feFlood flood-opacity="0" result="BackgroundImageFix"/>
<feBlend mode="normal" in="SourceGraphic" in2="BackgroundImageFix" result="shape"/>
<feGaussianBlur stdDeviation="13.9286" result="effect1_foregroundBlur_718_374"/>
</filter>
<filter id="filter1_f_718_374" x="27.7221" y="18.7143" width="44.0939" height="44.0942" filterUnits="userSpaceOnUse" color-interpolation-filters="sRGB">
<feFlood flood-opacity="0" result="BackgroundImageFix"/>
<feBlend mode="normal" in="SourceGraphic" in2="BackgroundImageFix" result="shape"/>
<feGaussianBlur stdDeviation="4.64286" result="effect1_foregroundBlur_718_374"/>
</filter>
<filter id="filter2_f_718_374" x="24.2109" y="28.2703" width="51.3126" height="39.0789" filterUnits="userSpaceOnUse" color-interpolation-filters="sRGB">
<feFlood flood-opacity="0" result="BackgroundImageFix"/>
<feBlend mode="normal" in="SourceGraphic" in2="BackgroundImageFix" result="shape"/>
<feGaussianBlur stdDeviation="1.92972" result="effect1_foregroundBlur_718_374"/>
</filter>
<filter id="filter3_f_718_374" x="10" y="24.5758" width="79.625" height="68.4242" filterUnits="userSpaceOnUse" color-interpolation-filters="sRGB">
<feFlood flood-opacity="0" result="BackgroundImageFix"/>
<feBlend mode="normal" in="SourceGraphic" in2="BackgroundImageFix" result="shape"/>
<feGaussianBlur stdDeviation="7.5" result="effect1_foregroundBlur_718_374"/>
</filter>
</defs>
</svg>
