<svg width="69" height="69" viewBox="0 0 69 69" fill="none" xmlns="http://www.w3.org/2000/svg">
<path d="M53.5677 42.3548L38.8776 48.5232L40.1053 33.4445L53.5677 42.3548ZM26.4232 16.4475C27.199 16.3968 27.8905 16.9422 27.9676 17.6656C28.0448 18.389 27.4785 19.0165 26.7027 19.0672L26.4232 16.4475ZM40.5531 42.3843C30.539 39.7719 24.9671 33.7149 22.8014 28.1433C21.7281 25.3818 21.4692 22.6773 21.9981 20.5544C22.5222 18.4509 23.9491 16.6092 26.4232 16.4475L26.7027 19.0672C25.9272 19.1178 25.1327 19.6796 24.7495 21.2177C24.3711 22.7364 24.5193 24.9115 25.4534 27.3147C27.3026 32.0724 32.1474 37.4849 41.2414 39.8572L40.5531 42.3843Z" fill="url(#paint0_linear_718_420)"/>
<defs>
<linearGradient id="paint0_linear_718_420" x1="43.9773" y1="49.0506" x2="29.8836" y2="38.9333" gradientUnits="userSpaceOnUse">
<stop offset="0.677083" stop-color="white"/>
<stop offset="1" stop-color="white" stop-opacity="0.5"/>
</linearGradient>
</defs>
</svg>
